RisingSun-BoldItalic.ufo
<glyph name="exclam" format="2">
  <advance width="295"/>
  <unicode hex="0021"/>
  <outline>
    <contour>
      <point x="10" y="79" type="qcurve" smooth="yes"/>
      <point x="6" y="60"/>
      <point x="13" y="28"/>
      <point x="32" y="4"/>
      <point x="62" y="-10"/>
      <point x="80" y="-10" type="qcurve" smooth="yes"/>
      <point x="98" y="-10"/>
      <point x="133" y="4"/>
      <point x="163" y="28"/>
      <point x="183" y="60"/>
      <point x="187" y="79" type="qcurve" smooth="yes"/>
      <point x="191" y="97"/>
      <point x="184" y="129"/>
      <point x="165" y="153"/>
      <point x="136" y="167"/>
      <point x="117" y="167" type="qcurve" smooth="yes"/>
      <point x="99" y="167"/>
      <point x="64" y="153"/>
      <point x="34" y="129"/>
      <point x="14" y="97"/>
    </contour>
    <contour>
      <point x="189" y="271" type="line"/>
      <point x="264" y="526" type="line"/>
      <point x="305" y="717" type="line"/>
      <point x="164" y="717" type="line"/>
      <point x="123" y="526" type="line"/>
      <point x="89" y="271" type="line"/>
    </contour>
  </outline>
</glyph>
<glyph name="numbersign" format="2">
  <advance width="697"/>
  <unicode hex="0023"/>
  <outline>
    <contour>
      <point x="707" y="519" type="line"/>
      <point x="590" y="519" type="line"/>
      <point x="676" y="710" type="line"/>
      <point x="562" y="710" type="line"/>
      <point x="478" y="519" type="line"/>
      <point x="379" y="519" type="line"/>
      <point x="464" y="710" type="line"/>
      <point x="351" y="710" type="line"/>
      <point x="267" y="519" type="line"/>
      <point x="128" y="519" type="line"/>
      <point x="107" y="421" type="line"/>
      <point x="221" y="421" type="line"/>
      <point x="166" y="290" type="line"/>
      <point x="34" y="290" type="line"/>
      <point x="11" y="185" type="line"/>
      <point x="118" y="185" type="line"/>
      <point x="36" y="0" type="line"/>
      <point x="149" y="0" type="line"/>
      <point x="230" y="185" type="line"/>
      <point x="329" y="185" type="line"/>
      <point x="247" y="0" type="line"/>
      <point x="360" y="0" type="line"/>
      <point x="442" y="185" type="line"/>
      <point x="591" y="185" type="line"/>
      <point x="613" y="290" type="line"/>
      <point x="489" y="290" type="line"/>
      <point x="545" y="421" type="line"/>
      <point x="686" y="421" type="line"/>
    </contour>
    <contour>
      <point x="279" y="290" type="line"/>
      <point x="334" y="421" type="line"/>
      <point x="433" y="421" type="line"/>
      <point x="377" y="290" type="line"/>
    </contour>
  </outline>
</glyph>
<glyph name="dollar" format="2">
  <advance width="614"/>
  <unicode hex="0024"/>
  <outline>
    <contour>
      <point x="189" y="-118" type="line"/>
      <point x="252" y="-118" type="line"/>
      <point x="291" y="68" type="line"/>
      <point x="229" y="68" type="line"/>
    </contour>
    <contour>
      <point x="284" y="83" type="line"/>
      <point x="401" y="633" type="line"/>
      <point x="357" y="623" type="line"/>
      <point x="242" y="85" type="line"/>
    </contour>
    <contour>
      <point x="350" y="636" type="line"/>
      <point x="414" y="647" type="line"/>
      <point x="450" y="815" type="line"/>
      <point x="388" y="815" type="line"/>
    </contour>
    <contour>
      <point x="620" y="637" type="line"/>
      <point x="602" y="651"/>
      <point x="554" y="680"/>
      <point x="498" y="702"/>
      <point x="433" y="716"/>
      <point x="398" y="716" type="qcurve" smooth="yes"/>
      <point x="339" y="716"/>
      <point x="230" y="679"/>
      <point x="147" y="612"/>
      <point x="96" y="513"/>
      <point x="96" y="451" type="qcurve" smooth="yes"/>
      <point x="96" y="421"/>
      <point x="115" y="374"/>
      <point x="154" y="337"/>
      <point x="210" y="309"/>
      <point x="247" y="297" type="qcurve" smooth="yes"/>
      <point x="278" y="287"/>
      <point x="332" y="269"/>
      <point x="372" y="248"/>
      <point x="394" y="221"/>
      <point x="394" y="203" type="qcurve" smooth="yes"/>
      <point x="394" y="185"/>
      <point x="381" y="155"/>
      <point x="353" y="134"/>
      <point x="312" y="122"/>
      <point x="284" y="122" type="qcurve" smooth="yes"/>
      <point x="245" y="122"/>
      <point x="174" y="143"/>
      <point x="119" y="172"/>
      <point x="83" y="200"/>
      <point x="78" y="209" type="qcurve"/>
      <point x="-13" y="83" type="line"/>
      <point x="12" y="62"/>
      <point x="74" y="28"/>
      <point x="142" y="4"/>
      <point x="216" y="-8"/>
      <point x="254" y="-8" type="qcurve" smooth="yes"/>
      <point x="311" y="-8"/>
      <point x="419" y="20"/>
      <point x="505" y="82"/>
      <point x="557" y="178"/>
      <point x="557" y="246" type="qcurve" smooth="yes"/>
      <point x="557" y="283"/>
      <point x="532" y="336"/>
      <point x="486" y="375"/>
      <point x="422" y="404"/>
      <point x="382" y="416" type="qcurve" smooth="yes"/>
      <point x="352" y="425"/>
      <point x="304" y="441"/>
      <point x="272" y="460"/>
      <point x="255" y="483"/>
      <point x="255" y="500" type="qcurve" smooth="yes"/>
      <point x="255" y="520"/>
      <point x="269" y="552"/>
      <point x="297" y="574"/>
      <point x="339" y="587"/>
      <point x="366" y="587" type="qcurve" smooth="yes"/>
      <point x="396" y="587"/>
      <point x="453" y="571"/>
      <point x="498" y="547"/>
      <point x="529" y="525"/>
      <point x="532" y="518" type="qcurve"/>
    </contour>
  </outline>
</glyph>
<glyph name="percent" format="2">
  <advance width="768"/>
  <unicode hex="0025"/>
  <outline>
    <contour>
      <point x="220" y="416" type="qcurve" smooth="yes"/>
      <point x="258" y="416"/>
      <point x="328" y="444"/>
      <point x="382" y="493"/>
      <point x="415" y="558"/>
      <point x="415" y="593" type="qcurve" smooth="yes"/>
      <point x="415" y="620"/>
      <point x="397" y="666"/>
      <point x="362" y="700"/>
      <point x="314" y="720"/>
      <point x="284" y="720" type="qcurve" smooth="yes"/>
      <point x="247" y="720"/>
      <point x="176" y="691"/>
      <point x="122" y="643"/>
      <point x="89" y="579"/>
      <point x="89" y="542" type="qcurve" smooth="yes"/>
      <point x="89" y="516"/>
      <point x="108" y="469"/>
      <point x="142" y="435"/>
      <point x="190" y="416"/>
    </contour>
    <contour>
      <point x="234" y="485" type="qcurve" smooth="yes"/>
      <point x="213" y="485"/>
      <point x="188" y="523"/>
      <point x="188" y="549" type="qcurve" smooth="yes"/>
      <point x="188" y="569"/>
      <point x="203" y="605"/>
      <point x="226" y="633"/>
      <point x="255" y="650"/>
      <point x="270" y="650" type="qcurve" smooth="yes"/>
      <point x="291" y="650"/>
      <point x="317" y="613"/>
      <point x="317" y="586" type="qcurve" smooth="yes"/>
      <point x="317" y="567"/>
      <point x="302" y="530"/>
      <point x="278" y="502"/>
      <point x="249" y="485"/>
    </contour>
    <contour>
      <point x="507" y="-10" type="qcurve" smooth="yes"/>
      <point x="545" y="-10"/>
      <point x="615" y="19"/>
      <point x="669" y="67"/>
      <point x="702" y="132"/>
      <point x="702" y="168" type="qcurve" smooth="yes"/>
      <point x="702" y="195"/>
      <point x="683" y="241"/>
      <point x="649" y="275"/>
      <point x="601" y="294"/>
      <point x="572" y="294" type="qcurve" smooth="yes"/>
      <point x="534" y="294"/>
      <point x="463" y="266"/>
      <point x="409" y="217"/>
      <point x="376" y="153"/>
      <point x="376" y="117" type="qcurve" smooth="yes"/>
      <point x="376" y="90"/>
      <point x="395" y="44"/>
      <point x="429" y="10"/>
      <point x="477" y="-10"/>
    </contour>
    <contour>
      <point x="522" y="60" type="qcurve" smooth="yes"/>
      <point x="500" y="60"/>
      <point x="474" y="97"/>
      <point x="474" y="124" type="qcurve" smooth="yes"/>
      <point x="474" y="144"/>
      <point x="489" y="180"/>
      <point x="512" y="208"/>
      <point x="542" y="225"/>
      <point x="556" y="225" type="qcurve" smooth="yes"/>
      <point x="578" y="225"/>
      <point x="603" y="187"/>
      <point x="603" y="161" type="qcurve" smooth="yes"/>
      <point x="603" y="141"/>
      <point x="588" y="105"/>
      <point x="566" y="76"/>
      <point x="536" y="60"/>
    </contour>
    <contour>
      <point x="94" y="-8" type="line"/>
      <point x="421" y="340" type="line"/>
      <point x="749" y="661" type="line"/>
      <point x="697" y="718" type="line"/>
      <point x="380" y="377" type="line"/>
      <point x="43" y="50" type="line"/>
    </contour>
  </outline>
</glyph>
<glyph name="ampersand" format="2">
  <advance width="701"/>
  <unicode hex="0026"/>
  <outline>
    <contour>
      <point x="198" y="-10" type="qcurve" smooth="yes"/>
      <point x="259" y="-10"/>
      <point x="387" y="47"/>
      <point x="501" y="156"/>
      <point x="589" y="314"/>
      <point x="610" y="416" type="qcurve"/>
      <point x="493" y="416" type="line"/>
      <point x="482" y="344"/>
      <point x="428" y="227"/>
      <point x="357" y="144"/>
      <point x="275" y="98"/>
      <point x="235" y="98" type="qcurve" smooth="yes"/>
      <point x="199" y="98"/>
      <point x="152" y="139"/>
      <point x="152" y="181" type="qcurve" smooth="yes"/>
      <point x="152" y="205"/>
      <point x="173" y="246"/>
      <point x="213" y="283"/>
      <point x="276" y="320"/>
      <point x="318" y="341" type="qcurve"/>
      <point x="255" y="432" type="line"/>
      <point x="211" y="406"/>
      <point x="125" y="354"/>
      <point x="57" y="293"/>
      <point x="14" y="216"/>
      <point x="14" y="165" type="qcurve" smooth="yes"/>
      <point x="14" y="130"/>
      <point x="38" y="66"/>
      <point x="84" y="19"/>
      <point x="153" y="-10"/>
    </contour>
    <contour>
      <point x="441" y="0" type="line"/>
      <point x="622" y="0" type="line"/>
      <point x="326" y="427" type="line" smooth="yes"/>
      <point x="309" y="451"/>
      <point x="285" y="486"/>
      <point x="270" y="512"/>
      <point x="264" y="533"/>
      <point x="264" y="543" type="qcurve" smooth="yes"/>
      <point x="264" y="559"/>
      <point x="278" y="585"/>
      <point x="300" y="605"/>
      <point x="329" y="616"/>
      <point x="344" y="616" type="qcurve" smooth="yes"/>
      <point x="373" y="616"/>
      <point x="421" y="575"/>
      <point x="432" y="537" type="qcurve"/>
      <point x="530" y="589" type="line"/>
      <point x="522" y="621"/>
      <point x="487" y="670"/>
      <point x="441" y="702"/>
      <point x="386" y="719"/>
      <point x="356" y="719" type="qcurve" smooth="yes"/>
      <point x="312" y="719"/>
      <point x="231" y="689"/>
      <point x="169" y="636"/>
      <point x="132" y="563"/>
      <point x="132" y="520" type="qcurve" smooth="yes"/>
      <point x="132" y="501"/>
      <point x="140" y="465"/>
      <point x="157" y="424"/>
      <point x="184" y="379"/>
      <point x="203" y="352" type="qcurve" smooth="yes"/>
    </contour>
  </outline>
</glyph>
<glyph name="quotesingle" format="2">
  <advance width="239"/>
  <unicode hex="0027"/>
  <outline>
    <contour>
      <point x="142" y="502" type="line"/>
      <point x="290" y="724" type="line"/>
      <point x="169" y="724" type="line"/>
      <point x="79" y="502" type="line"/>
    </contour>
  </outline>
</glyph>
<glyph name="parenleft" format="2">
  <advance width="308"/>
  <unicode hex="0028"/>
  <outline>
    <contour>
      <point x="34" y="264" type="qcurve" smooth="yes"/>
      <point x="34" y="224"/>
      <point x="44" y="141"/>
      <point x="63" y="59"/>
      <point x="88" y="-20"/>
      <point x="103" y="-54" type="qcurve"/>
      <point x="217" y="-3" type="line"/>
      <point x="206" y="31"/>
      <point x="187" y="102"/>
      <point x="173" y="173"/>
      <point x="166" y="241"/>
      <point x="166" y="272" type="qcurve" smooth="yes"/>
      <point x="166" y="323"/>
      <point x="200" y="434"/>
      <point x="256" y="548"/>
      <point x="331" y="661"/>
      <point x="372" y="714" type="qcurve"/>
      <point x="275" y="759" type="line"/>
      <point x="224" y="694"/>
      <point x="136" y="572"/>
      <point x="71" y="452"/>
      <point x="34" y="329"/>
    </contour>
  </outline>
</glyph>
<glyph name="parenright" format="2">
  <advance width="308"/>
  <unicode hex="0029"/>
  <outline>
    <contour>
      <point x="294" y="431" type="qcurve" smooth="yes"/>
      <point x="294" y="509"/>
      <point x="256" y="679"/>
      <point x="228" y="759" type="qcurve"/>
      <point x="111" y="714" type="line"/>
      <point x="118" y="696"/>
      <point x="135" y="633"/>
      <point x="151" y="554"/>
      <point x="161" y="467"/>
      <point x="161" y="425" type="qcurve" smooth="yes"/>
      <point x="161" y="368"/>
      <point x="131" y="263"/>
      <point x="78" y="158"/>
      <point x="5" y="53"/>
      <point x="-38" y="-3" type="qcurve"/>
      <point x="54" y="-54" type="line"/>
      <point x="101" y="1"/>
      <point x="188" y="118"/>
      <point x="254" y="238"/>
      <point x="294" y="364"/>
    </contour>
  </outline>
</glyph>
<glyph name="asterisk" format="2">
  <advance width="340"/>
  <unicode hex="002A"/>
  <outline>
    <contour>
      <point x="164" y="482" type="line"/>
      <point x="224" y="558" type="line"/>
      <point x="252" y="482" type="line"/>
      <point x="313" y="518" type="line"/>
      <point x="283" y="589" type="line"/>
      <point x="354" y="611" type="line"/>
      <point x="349" y="671" type="line"/>
      <point x="273" y="639" type="line"/>
      <point x="295" y="718" type="line"/>
      <point x="221" y="718" type="line"/>
      <point x="210" y="639" type="line"/>
      <point x="147" y="671" type="line"/>
      <point x="116" y="611" type="line"/>
      <point x="178" y="589" type="line"/>
      <point x="119" y="518" type="line"/>
    </contour>
  </outline>
</glyph>
<glyph name="plus" format="2">
  <advance width="428"/>
  <unicode hex="002B"/>
  <outline>
    <contour>
      <point x="287" y="411" type="line"/>
      <point x="287" y="522" type="line"/>
      <point x="160" y="522" type="line"/>
      <point x="160" y="411" type="line"/>
      <point x="60" y="411" type="line"/>
      <point x="60" y="299" type="line"/>
      <point x="160" y="299" type="line"/>
      <point x="160" y="188" type="line"/>
      <point x="287" y="188" type="line"/>
      <point x="287" y="299" type="line"/>
      <point x="388" y="299" type="line"/>
      <point x="388" y="411" type="line"/>
    </contour>
  </outline>
</glyph>
<glyph name="comma" format="2">
  <advance width="257"/>
  <unicode hex="002C"/>
  <outline>
    <contour>
      <point x="40" y="-157" type="line"/>
      <point x="266" y="184" type="line"/>
      <point x="109" y="184" type="line"/>
      <point x="-42" y="-157" type="line"/>
    </contour>
  </outline>
</glyph>
<glyph name="hyphen" format="2">
  <advance width="402"/>
  <unicode hex="002D"/>
  <outline>
    <contour>
      <point x="327" y="211" type="line"/>
      <point x="354" y="338" type="line"/>
      <point x="63" y="338" type="line"/>
      <point x="37" y="211" type="line"/>
    </contour>
  </outline>
</glyph>
<glyph name="period" format="2">
  <advance width="254"/>
  <unicode hex="002E"/>
  <outline>
    <contour>
      <point x="31.8548" y="84" type="curve" smooth="yes"/>
      <point x="20.8018" y="32"/>
      <point x="53.8744" y="-10"/>
      <point x="105.874" y="-10" type="curve" smooth="yes"/>
      <point x="157.874" y="-10"/>
      <point x="208.802" y="32"/>
      <point x="219.855" y="84" type="curve" smooth="yes"/>
      <point x="230.908" y="136"/>
      <point x="197.835" y="178"/>
      <point x="145.835" y="178" type="curve" smooth="yes"/>
      <point x="93.8351" y="178"/>
      <point x="42.9077" y="136"/>
    </contour>
  </outline>
</glyph>
<glyph name="slash" format="2">
  <advance width="702"/>
  <unicode hex="002F"/>
  <outline>
    <contour>
      <point x="600" y="710" type="line"/>
      <point x="-27" y="0" type="line"/>
      <point x="129" y="0" type="line"/>
      <point x="755" y="710" type="line"/>
    </contour>
  </outline>
</glyph>
<glyph name="one.tnum" format="2">
  <advance width="586"/>
  <unicode hex="0031"/>
  <outline>
    <contour>
      <point x="-19" y="0" type="line"/>
      <point x="480" y="0" type="line"/>
      <point x="505" y="126" type="line"/>
      <point x="335" y="126" type="line"/>
      <point x="448" y="716" type="line"/>
      <point x="315" y="716" type="line"/>
      <point x="314" y="715"/>
      <point x="281" y="684"/>
      <point x="257" y="667" type="qcurve" smooth="yes"/>
      <point x="232" y="649"/>
      <point x="177" y="620"/>
      <point x="153" y="620" type="qcurve"/>
      <point x="128" y="490" type="line"/>
      <point x="145" y="490"/>
      <point x="189" y="508"/>
      <point x="211" y="522" type="qcurve" smooth="yes"/>
      <point x="232" y="536"/>
      <point x="270" y="565"/>
      <point x="278" y="577" type="qcurve"/>
      <point x="191" y="126" type="line"/>
      <point x="5" y="126" type="line"/>
    </contour>
  </outline>
</glyph>
<glyph name="two.tnum" format="2">
  <advance width="586"/>
  <unicode hex="0032"/>
  <outline>
    <contour>
      <point x="-3" y="-2" type="qcurve"/>
      <point x="478" y="-2" type="line"/>
      <point x="505" y="125" type="line"/>
      <point x="193" y="125" type="line"/>
      <point x="198" y="149"/>
      <point x="232" y="190"/>
      <point x="285" y="227"/>
      <point x="349" y="260"/>
      <point x="384" y="278" type="qcurve" smooth="yes"/>
      <point x="430" y="302"/>
      <point x="505" y="351"/>
      <point x="560" y="412"/>
      <point x="590" y="492"/>
      <point x="590" y="547" type="qcurve" smooth="yes"/>
      <point x="590" y="585"/>
      <point x="566" y="649"/>
      <point x="519" y="694"/>
      <point x="450" y="718"/>
      <point x="404" y="718" type="qcurve" smooth="yes"/>
      <point x="355" y="718"/>
      <point x="269" y="695"/>
      <point x="196" y="657"/>
      <point x="140" y="616"/>
      <point x="122" y="600" type="qcurve"/>
      <point x="187" y="506" type="line"/>
      <point x="203" y="521"/>
      <point x="241" y="550"/>
      <point x="285" y="574"/>
      <point x="332" y="590"/>
      <point x="355" y="590" type="qcurve" smooth="yes"/>
      <point x="371" y="590"/>
      <point x="398" y="580"/>
      <point x="417" y="561"/>
      <point x="426" y="535"/>
      <point x="426" y="518" type="qcurve" smooth="yes"/>
      <point x="426" y="478"/>
      <point x="392" y="423"/>
      <point x="337" y="382"/>
      <point x="267" y="349"/>
      <point x="230" y="332" type="qcurve" smooth="yes"/>
      <point x="176" y="307"/>
      <point x="100" y="248"/>
      <point x="47" y="170"/>
      <point x="12" y="67"/>
    </contour>
  </outline>
</glyph>
<glyph name="three" format="2">
  <advance width="561"/>
  <unicode hex="0033"/>
  <outline>
    <contour>
      <point x="188" y="-9" type="curve" smooth="yes"/>
      <point x="381" y="-9"/>
      <point x="511" y="86"/>
      <point x="511" y="232" type="curve" smooth="yes"/>
      <point x="511" y="305"/>
      <point x="473" y="363"/>
      <point x="411" y="375" type="curve"/>
      <point x="495" y="391"/>
      <point x="573" y="476"/>
      <point x="573" y="566" type="curve" smooth="yes"/>
      <point x="573" y="655"/>
      <point x="495" y="714"/>
      <point x="368" y="714" type="curve" smooth="yes"/>
      <point x="265" y="714"/>
      <point x="155" y="677"/>
      <point x="98" y="624" type="curve"/>
      <point x="188" y="483" type="line"/>
      <point x="227" y="529"/>
      <point x="271" y="553"/>
      <point x="312" y="553" type="curve" smooth="yes"/>
      <point x="342" y="553"/>
      <point x="358" y="538"/>
      <point x="358" y="513" type="curve" smooth="yes"/>
      <point x="358" y="465"/>
      <point x="310" y="433"/>
      <point x="246" y="433" type="curve" smooth="yes"/>
      <point x="212" y="433" type="line"/>
      <point x="184" y="301" type="line"/>
      <point x="214" y="301" type="line" smooth="yes"/>
      <point x="287" y="301"/>
      <point x="319" y="284"/>
      <point x="319" y="245" type="curve" smooth="yes"/>
      <point x="319" y="193"/>
      <point x="292" y="165"/>
      <point x="214" y="165" type="curve" smooth="yes"/>
      <point x="163" y="165"/>
      <point x="127" y="179"/>
      <point x="97" y="209" type="curve"/>
      <point x="-28" y="71" type="line"/>
      <point x="22" y="17"/>
      <point x="91" y="-9"/>
    </contour>
  </outline>
</glyph>
<glyph name="five" format="2">
  <advance width="586"/>
  <unicode hex="0035"/>
  <outline>
    <contour>
      <point x="212" y="-11" type="curve" smooth="yes"/>
      <point x="376" y="-11"/>
      <point x="515" y="109"/>
      <point x="515" y="277" type="curve" smooth="yes"/>
      <point x="515" y="382"/>
      <point x="444" y="460"/>
      <point x="337" y="460" type="curve" smooth="yes"/>
      <point x="310" y="460"/>
      <point x="276" y="452"/>
      <point x="256" y="432" type="curve"/>
      <point x="308" y="582" type="line"/>
      <point x="537" y="582" type="line"/>
      <point x="564" y="711" type="line"/>
      <point x="236" y="711" type="line"/>
      <point x="74" y="285" type="line"/>
      <point x="192" y="285" type="line"/>
      <point x="215" y="315"/>
      <point x="252" y="338"/>
      <point x="291" y="338" type="curve" smooth="yes"/>
      <point x="341" y="338"/>
      <point x="366" y="298"/>
      <point x="366" y="251" type="curve" smooth="yes"/>
      <point x="366" y="179"/>
      <point x="311" y="115"/>
      <point x="237" y="115" type="curve" smooth="yes"/>
      <point x="182" y="115"/>
      <point x="138" y="150"/>
      <point x="116" y="198" type="curve"/>
      <point x="22" y="113" type="line"/>
      <point x="50" y="29"/>
      <point x="127" y="-11"/>
    </contour>
  </outline>
</glyph>
<glyph name="six.tnum" format="2">
  <advance width="586"/>
  <unicode hex="0036"/>
  <outline>
    <contour>
      <point x="214" y="-12" type="qcurve" smooth="yes"/>
      <point x="161" y="-12"/>
      <point x="88" y="29"/>
      <point x="44" y="94"/>
      <point x="24" y="179"/>
      <point x="24" y="223" type="qcurve" smooth="yes"/>
      <point x="24" y="274"/>
      <point x="42" y="387"/>
      <point x="79" y="496"/>
      <point x="135" y="595"/>
      <point x="214" y="671"/>
      <point x="316" y="716"/>
      <point x="379" y="716" type="qcurve" smooth="yes"/>
      <point x="442" y="716"/>
      <point x="535" y="658"/>
      <point x="562" y="603" type="qcurve"/>
      <point x="464" y="516" type="line"/>
      <point x="449" y="551"/>
      <point x="392" y="591"/>
      <point x="352" y="591" type="qcurve" smooth="yes"/>
      <point x="314" y="591"/>
      <point x="256" y="554"/>
      <point x="212" y="497"/>
      <point x="183" y="430"/>
      <point x="175" y="400" type="qcurve"/>
      <point x="188" y="417"/>
      <point x="222" y="444"/>
      <point x="262" y="463"/>
      <point x="306" y="473"/>
      <point x="327" y="473" type="qcurve" smooth="yes"/>
      <point x="371" y="473"/>
      <point x="440" y="444"/>
      <point x="489" y="391"/>
      <point x="515" y="321"/>
      <point x="515" y="280" type="qcurve" smooth="yes"/>
      <point x="515" y="222"/>
      <point x="465" y="115"/>
      <point x="383" y="35"/>
      <point x="273" y="-12"/>
    </contour>
    <contour>
      <point x="240" y="109" type="qcurve" smooth="yes"/>
      <point x="269" y="109"/>
      <point x="319" y="137"/>
      <point x="356" y="181"/>
      <point x="377" y="234"/>
      <point x="377" y="259" type="qcurve" smooth="yes"/>
      <point x="377" y="277"/>
      <point x="367" y="313"/>
      <point x="346" y="342"/>
      <point x="314" y="360"/>
      <point x="291" y="360" type="qcurve" smooth="yes"/>
      <point x="262" y="360"/>
      <point x="212" y="333"/>
      <point x="175" y="291"/>
      <point x="154" y="238"/>
      <point x="154" y="214" type="qcurve" smooth="yes"/>
      <point x="154" y="196"/>
      <point x="165" y="159"/>
      <point x="186" y="129"/>
      <point x="218" y="109"/>
    </contour>
  </outline>
</glyph>
<glyph name="seven" format="2">
  <advance width="586"/>
  <unicode hex="0037"/>
  <outline>
    <contour>
      <point x="17" y="1" type="line"/>
      <point x="171" y="1" type="line"/>
      <point x="638" y="711" type="line"/>
      <point x="106" y="711" type="line"/>
      <point x="80" y="582" type="line"/>
      <point x="396" y="582" type="line"/>
    </contour>
  </outline>
</glyph>
<glyph name="nine" format="2">
  <advance width="574"/>
  <unicode hex="0039"/>
  <outline>
    <contour>
      <point x="207" y="-10" type="curve" smooth="yes"/>
      <point x="126" y="-10"/>
      <point x="60" y="23"/>
      <point x="11" y="86" type="curve"/>
      <point x="142" y="208" type="line"/>
      <point x="168" y="173"/>
      <point x="204" y="154"/>
      <point x="245" y="154" type="curve" smooth="yes"/>
      <point x="302" y="154"/>
      <point x="346" y="196"/>
      <point x="365" y="267" type="curve"/>
      <point x="335" y="244"/>
      <point x="303" y="233"/>
      <point x="262" y="233" type="curve" smooth="yes"/>
      <point x="144" y="233"/>
      <point x="68" y="314"/>
      <point x="68" y="424" type="curve" smooth="yes"/>
      <point x="68" y="581"/>
      <point x="215" y="716"/>
      <point x="380" y="716" type="curve" smooth="yes"/>
      <point x="508" y="716"/>
      <point x="575" y="624"/>
      <point x="575" y="472" type="curve" smooth="yes"/>
      <point x="575" y="200"/>
      <point x="425" y="-10"/>
    </contour>
    <contour>
      <point x="309" y="382" type="curve" smooth="yes"/>
      <point x="356" y="382"/>
      <point x="402" y="428"/>
      <point x="402" y="484" type="curve" smooth="yes"/>
      <point x="402" y="524"/>
      <point x="379" y="557"/>
      <point x="346" y="557" type="curve" smooth="yes"/>
      <point x="303" y="557"/>
      <point x="252" y="505"/>
      <point x="252" y="449" type="curve" smooth="yes"/>
      <point x="252" y="411"/>
      <point x="275" y="382"/>
    </contour>
  </outline>
</glyph>
<glyph name="less" format="2">
  <advance width="551"/>
  <unicode hex="003C"/>
  <outline>
    <contour>
      <point x="29" y="222" type="line"/>
      <point x="451" y="-28" type="line"/>
      <point x="451" y="129" type="line"/>
      <point x="234" y="259" type="line"/>
      <point x="451" y="395" type="line"/>
      <point x="451" y="545" type="line"/>
      <point x="29" y="289" type="line"/>
    </contour>
  </outline>
</glyph>
<glyph name="equal" format="2">
  <advance width="486"/>
  <unicode hex="003D"/>
  <outline>
    <contour>
      <point x="394" y="138" type="line"/>
      <point x="394" y="230" type="line"/>
      <point x="79" y="230" type="line"/>
      <point x="79" y="138" type="line"/>
    </contour>
    <contour>
      <point x="394" y="322" type="line"/>
      <point x="394" y="414" type="line"/>
      <point x="79" y="414" type="line"/>
      <point x="79" y="322" type="line"/>
    </contour>
  </outline>
</glyph>
<glyph name="greater" format="2">
  <advance width="551"/>
  <unicode hex="003E"/>
  <outline>
    <contour>
      <point x="503" y="289" type="line"/>
      <point x="81" y="545" type="line"/>
      <point x="81" y="395" type="line"/>
      <point x="298" y="259" type="line"/>
      <point x="81" y="129" type="line"/>
      <point x="81" y="-28" type="line"/>
      <point x="503" y="222" type="line"/>
    </contour>
  </outline>
</glyph>
<glyph name="question" format="2">
  <advance width="472"/>
  <unicode hex="003F"/>
  <outline>
    <contour>
      <point x="173" y="236" type="line"/>
      <point x="179" y="250"/>
      <point x="192" y="261"/>
      <point x="206" y="272" type="curve" smooth="yes"/>
      <point x="286" y="335"/>
      <point x="458" y="360"/>
      <point x="492" y="521" type="curve" smooth="yes"/>
      <point x="518" y="645"/>
      <point x="447" y="719"/>
      <point x="330" y="719" type="curve" smooth="yes"/>
      <point x="242" y="719"/>
      <point x="150" y="674"/>
      <point x="96" y="590" type="curve"/>
      <point x="173" y="527" type="line"/>
      <point x="208" y="569"/>
      <point x="247" y="604"/>
      <point x="300" y="604" type="curve" smooth="yes"/>
      <point x="346" y="604"/>
      <point x="382" y="573"/>
      <point x="371" y="523" type="curve" smooth="yes"/>
      <point x="349" y="419"/>
      <point x="149" y="393"/>
      <point x="128" y="298" type="curve"/>
      <point x="123" y="272"/>
      <point x="135" y="252"/>
      <point x="149" y="236" type="curve"/>
    </contour>
    <contour>
      <point x="53" y="66" type="curve" smooth="yes"/>
      <point x="44" y="24"/>
      <point x="70" y="-10"/>
      <point x="111" y="-10" type="curve" smooth="yes"/>
      <point x="152" y="-10"/>
      <point x="193" y="24"/>
      <point x="202" y="66" type="curve" smooth="yes"/>
      <point x="211" y="108"/>
      <point x="185" y="142"/>
      <point x="144" y="142" type="curve" smooth="yes"/>
      <point x="103" y="142"/>
      <point x="62" y="108"/>
    </contour>
  </outline>
</glyph>
<glyph name="at" format="2">
  <advance width="814"/>
  <unicode hex="0040"/>
  <outline>
    <contour>
      <point x="579" y="47" type="qcurve" smooth="yes"/>
      <point x="563" y="47"/>
      <point x="547" y="66"/>
      <point x="547" y="85" type="qcurve" smooth="yes"/>
      <point x="547" y="91"/>
      <point x="549" y="109"/>
      <point x="551" y="118" type="qcurve" smooth="yes"/>
      <point x="618" y="450" type="line"/>
      <point x="548" y="450" type="line"/>
      <point x="534" y="379" type="line"/>
      <point x="523" y="416"/>
      <point x="459" y="463"/>
      <point x="410" y="463" type="qcurve" smooth="yes"/>
      <point x="361" y="463"/>
      <point x="271" y="417"/>
      <point x="202" y="339"/>
      <point x="160" y="236"/>
      <point x="160" y="180" type="qcurve" smooth="yes"/>
      <point x="160" y="141"/>
      <point x="183" y="74"/>
      <point x="224" y="24"/>
      <point x="283" y="-4"/>
      <point x="320" y="-4" type="qcurve" smooth="yes"/>
      <point x="362" y="-4"/>
      <point x="441" y="33"/>
      <point x="479" y="66" type="qcurve"/>
      <point x="478" y="62"/>
      <point x="478" y="54"/>
      <point x="478" y="49" type="qcurve" smooth="yes"/>
      <point x="478" y="16"/>
      <point x="520" y="-16"/>
      <point x="553" y="-16" type="qcurve" smooth="yes"/>
      <point x="587" y="-16"/>
      <point x="644" y="14"/>
      <point x="690" y="66"/>
      <point x="725" y="132"/>
      <point x="748" y="205"/>
      <point x="759" y="280"/>
      <point x="759" y="312" type="qcurve" smooth="yes"/>
      <point x="759" y="375"/>
      <point x="718" y="481"/>
      <point x="643" y="559"/>
      <point x="534" y="603"/>
      <point x="465" y="603" type="qcurve" smooth="yes"/>
      <point x="380" y="603"/>
      <point x="219" y="536"/>
      <point x="95" y="417"/>
      <point x="20" y="253"/>
      <point x="20" y="157" type="qcurve" smooth="yes"/>
      <point x="20" y="88"/>
      <point x="60" y="-23"/>
      <point x="133" y="-103"/>
      <point x="236" y="-146"/>
      <point x="299" y="-146" type="qcurve" smooth="yes"/>
      <point x="342" y="-146"/>
      <point x="428" y="-126"/>
      <point x="471" y="-106" type="qcurve"/>
      <point x="465" y="-52" type="line"/>
      <point x="422" y="-71"/>
      <point x="350" y="-90"/>
      <point x="311" y="-90" type="qcurve" smooth="yes"/>
      <point x="257" y="-90"/>
      <point x="171" y="-54"/>
      <point x="111" y="14"/>
      <point x="79" y="108"/>
      <point x="79" y="164" type="qcurve" smooth="yes"/>
      <point x="79" y="244"/>
      <point x="140" y="384"/>
      <point x="243" y="487"/>
      <point x="377" y="547"/>
      <point x="451" y="547" type="qcurve" smooth="yes"/>
      <point x="511" y="547"/>
      <point x="603" y="508"/>
      <point x="667" y="440"/>
      <point x="700" y="349"/>
      <point x="700" y="296" type="qcurve" smooth="yes"/>
      <point x="700" y="257"/>
      <point x="682" y="169"/>
      <point x="649" y="95"/>
      <point x="605" y="47"/>
    </contour>
    <contour>
      <point x="351" y="66" type="qcurve" smooth="yes"/>
      <point x="326" y="66"/>
      <point x="286" y="86"/>
      <point x="260" y="119"/>
      <point x="245" y="165"/>
      <point x="245" y="192" type="qcurve" smooth="yes"/>
      <point x="245" y="232"/>
      <point x="274" y="302"/>
      <point x="319" y="354"/>
      <point x="376" y="384"/>
      <point x="404" y="384" type="qcurve" smooth="yes"/>
      <point x="441" y="384"/>
      <point x="492" y="336"/>
      <point x="501" y="292" type="qcurve"/>
      <point x="481" y="166" type="line"/>
      <point x="472" y="145"/>
      <point x="446" y="108"/>
      <point x="412" y="81"/>
      <point x="373" y="66"/>
    </contour>
  </outline>
</glyph>
<glyph name="A" format="2">
  <advance width="644"/>
  <unicode hex="0041"/>
  <outline>
    <contour>
      <point x="-54" y="0" type="line"/>
      <point x="95" y="0" type="line"/>
      <point x="187" y="172" type="line"/>
      <point x="409" y="172" type="line"/>
      <point x="429" y="0" type="line"/>
      <point x="578" y="0" type="line"/>
      <point x="478" y="710" type="line"/>
      <point x="348" y="710" type="line"/>
    </contour>
    <contour>
      <point x="232" y="273" type="line"/>
      <point x="378" y="545" type="line"/>
      <point x="406" y="273" type="line"/>
    </contour>
  </outline>
</glyph>
<glyph name="B" format="2">
  <advance width="657"/>
  <unicode hex="0042"/>
  <outline>
    <contour>
      <point x="8" y="0" type="line"/>
      <point x="335" y="0" type="line" smooth="yes"/>
      <point x="387" y="0"/>
      <point x="484" y="29"/>
      <point x="559" y="85"/>
      <point x="603" y="168"/>
      <point x="603" y="223" type="qcurve" smooth="yes"/>
      <point x="603" y="276"/>
      <point x="555" y="350"/>
      <point x="511" y="364" type="qcurve"/>
      <point x="543" y="378"/>
      <point x="593" y="421"/>
      <point x="629" y="474"/>
      <point x="648" y="534"/>
      <point x="648" y="564" type="qcurve" smooth="yes"/>
      <point x="648" y="592"/>
      <point x="633" y="645"/>
      <point x="603" y="685"/>
      <point x="558" y="710"/>
      <point x="528" y="710" type="qcurve" smooth="yes"/>
      <point x="159" y="710" type="line"/>
    </contour>
    <contour>
      <point x="179" y="123" type="line"/>
      <point x="216" y="302" type="line"/>
      <point x="406" y="302" type="line" smooth="yes"/>
      <point x="418" y="302"/>
      <point x="439" y="290"/>
      <point x="453" y="271"/>
      <point x="460" y="246"/>
      <point x="460" y="231" type="qcurve" smooth="yes"/>
      <point x="460" y="209"/>
      <point x="443" y="169"/>
      <point x="416" y="139"/>
      <point x="380" y="123"/>
      <point x="361" y="123" type="qcurve" smooth="yes"/>
    </contour>
    <contour>
      <point x="241" y="416" type="line"/>
      <point x="277" y="586" type="line"/>
      <point x="445" y="586" type="line" smooth="yes"/>
      <point x="457" y="586"/>
      <point x="476" y="577"/>
      <point x="489" y="561"/>
      <point x="497" y="537"/>
      <point x="497" y="522" type="qcurve" smooth="yes"/>
      <point x="497" y="497"/>
      <point x="480" y="458"/>
      <point x="454" y="430"/>
      <point x="421" y="416"/>
      <point x="403" y="416" type="qcurve" smooth="yes"/>
    </contour>
  </outline>
</glyph>
<glyph name="D" format="2">
  <advance width="693"/>
  <unicode hex="0044"/>
  <outline>
    <contour>
      <point x="8" y="0" type="line"/>
      <point x="257" y="0" type="line" smooth="yes"/>
      <point x="347" y="0"/>
      <point x="501" y="65"/>
      <point x="614" y="182"/>
      <point x="677" y="341"/>
      <point x="677" y="435" type="qcurve" smooth="yes"/>
      <point x="677" y="492"/>
      <point x="645" y="593"/>
      <point x="578" y="667"/>
      <point x="477" y="710"/>
      <point x="408" y="710" type="qcurve" smooth="yes"/>
      <point x="159" y="710" type="line"/>
    </contour>
    <contour>
      <point x="180" y="127" type="line"/>
      <point x="277" y="583" type="line"/>
      <point x="381" y="583" type="line" smooth="yes"/>
      <point x="417" y="583"/>
      <point x="472" y="558"/>
      <point x="509" y="513"/>
      <point x="528" y="451"/>
      <point x="528" y="414" type="qcurve" smooth="yes"/>
      <point x="528" y="357"/>
      <point x="493" y="253"/>
      <point x="430" y="173"/>
      <point x="339" y="127"/>
      <point x="284" y="127" type="qcurve" smooth="yes"/>
    </contour>
  </outline>
</glyph>
<glyph name="E" format="2">
  <advance width="577"/>
  <unicode hex="0045"/>
  <outline>
    <contour>
      <point x="8" y="0" type="line"/>
      <point x="480" y="0" type="line"/>
      <point x="506" y="127" type="line"/>
      <point x="180" y="127" type="line"/>
      <point x="217" y="303" type="line"/>
      <point x="491" y="303" type="line"/>
      <point x="516" y="421" type="line"/>
      <point x="242" y="421" type="line"/>
      <point x="277" y="583" type="line"/>
      <point x="595" y="583" type="line"/>
      <point x="622" y="710" type="line"/>
      <point x="159" y="710" type="line"/>
    </contour>
  </outline>
</glyph>
<glyph name="F" format="2">
  <advance width="555"/>
  <unicode hex="0046"/>
  <outline>
    <contour>
      <point x="8" y="0" type="line"/>
      <point x="153" y="0" type="line"/>
      <point x="214" y="290" type="line"/>
      <point x="472" y="290" type="line"/>
      <point x="497" y="408" type="line"/>
      <point x="240" y="408" type="line"/>
      <point x="277" y="583" type="line"/>
      <point x="588" y="583" type="line"/>
      <point x="614" y="710" type="line"/>
      <point x="159" y="710" type="line"/>
    </contour>
  </outline>
</glyph>
<glyph name="G" format="2">
  <advance width="701"/>
  <unicode hex="0047"/>
  <outline>
    <contour>
      <point x="287" y="-5" type="curve" smooth="yes"/>
      <point x="395" y="-5"/>
      <point x="471" y="10"/>
      <point x="596" y="100" type="curve"/>
      <point x="659" y="398" type="line"/>
      <point x="350" y="398" type="line"/>
      <point x="320" y="238" type="line"/>
      <point x="433" y="238" type="line"/>
      <point x="422" y="184" type="line"/>
      <point x="377" y="164"/>
      <point x="377" y="164"/>
      <point x="325" y="164" type="curve" smooth="yes"/>
      <point x="220" y="164"/>
      <point x="207" y="273"/>
      <point x="225" y="356" type="curve" smooth="yes"/>
      <point x="245" y="448"/>
      <point x="308" y="542"/>
      <point x="401" y="542" type="curve" smooth="yes"/>
      <point x="485" y="542"/>
      <point x="502" y="463"/>
      <point x="505" y="449" type="curve"/>
      <point x="680" y="570" type="line"/>
      <point x="649" y="664"/>
      <point x="566" y="715"/>
      <point x="449" y="715" type="curve" smooth="yes"/>
      <point x="237" y="715"/>
      <point x="75" y="545"/>
      <point x="35" y="355" type="curve" smooth="yes"/>
      <point x="-4" y="173"/>
      <point x="73" y="-5"/>
    </contour>
  </outline>
</glyph>
<glyph name="H" format="2">
  <advance width="719"/>
  <unicode hex="0048"/>
  <outline>
    <contour>
      <point x="8" y="0" type="line"/>
      <point x="153" y="0" type="line"/>
      <point x="216" y="300" type="line"/>
      <point x="502" y="300" type="line"/>
      <point x="438" y="0" type="line"/>
      <point x="583" y="0" type="line"/>
      <point x="734" y="710" type="line"/>
      <point x="589" y="710" type="line"/>
      <point x="529" y="426" type="line"/>
      <point x="243" y="426" type="line"/>
      <point x="304" y="710" type="line"/>
      <point x="159" y="710" type="line"/>
    </contour>
  </outline>
</glyph>
<glyph name="I" format="2">
  <advance width="289"/>
  <unicode hex="0049"/>
  <outline>
    <contour>
      <point x="8" y="0" type="line"/>
      <point x="153" y="0" type="line"/>
      <point x="304" y="710" type="line"/>
      <point x="159" y="710" type="line"/>
    </contour>
  </outline>
</glyph>
<glyph name="J" format="2">
  <advance width="559"/>
  <unicode hex="004A"/>
  <outline>
    <contour>
      <point x="121" y="212" type="line"/>
      <point x="126" y="196"/>
      <point x="141" y="164"/>
      <point x="163" y="138"/>
      <point x="192" y="122"/>
      <point x="211" y="122" type="qcurve" smooth="yes"/>
      <point x="240" y="122"/>
      <point x="282" y="146"/>
      <point x="313" y="185"/>
      <point x="333" y="234"/>
      <point x="337" y="258" type="qcurve"/>
      <point x="426" y="710" type="line"/>
      <point x="568" y="710" type="line"/>
      <point x="473" y="235" type="line" smooth="yes"/>
      <point x="463" y="184"/>
      <point x="412" y="95"/>
      <point x="337" y="29"/>
      <point x="242" y="-8"/>
      <point x="188" y="-8" type="qcurve" smooth="yes"/>
      <point x="149" y="-8"/>
      <point x="85" y="17"/>
      <point x="37" y="61"/>
      <point x="3" y="122"/>
      <point x="-6" y="158" type="qcurve"/>
    </contour>
  </outline>
</glyph>
<glyph name="K" format="2">
  <advance width="646"/>
  <unicode hex="004B"/>
  <outline>
    <contour>
      <point x="8" y="0" type="line"/>
      <point x="153" y="0" type="line"/>
      <point x="198" y="211" type="line"/>
      <point x="294" y="301" type="line"/>
      <point x="429" y="0" type="line"/>
      <point x="594" y="0" type="line"/>
      <point x="406" y="394" type="line"/>
      <point x="729" y="710" type="line"/>
      <point x="567" y="710" type="line"/>
      <point x="234" y="381" type="line"/>
      <point x="304" y="710" type="line"/>
      <point x="159" y="710" type="line"/>
    </contour>
  </outline>
</glyph>
<glyph name="L" format="2">
  <advance width="562"/>
  <unicode hex="004C"/>
  <outline>
    <contour>
      <point x="8" y="0" type="line"/>
      <point x="487" y="0" type="line"/>
      <point x="514" y="127" type="line"/>
      <point x="180" y="127" type="line"/>
      <point x="304" y="710" type="line"/>
      <point x="159" y="710" type="line"/>
    </contour>
  </outline>
</glyph>
<glyph name="M" format="2">
  <advance width="829"/>
  <unicode hex="004D"/>
  <outline>
    <contour>
      <point x="8" y="0" type="line"/>
      <point x="153" y="0" type="line"/>
      <point x="250" y="458" type="line"/>
      <point x="337" y="119" type="line"/>
      <point x="415" y="119" type="line"/>
      <point x="645" y="458" type="line"/>
      <point x="548" y="0" type="line"/>
      <point x="693" y="0" type="line"/>
      <point x="844" y="710" type="line"/>
      <point x="688" y="710" type="line"/>
      <point x="417" y="315" type="line"/>
      <point x="315" y="710" type="line"/>
      <point x="159" y="710" type="line"/>
    </contour>
  </outline>
</glyph>
<glyph name="N" format="2">
  <advance width="732"/>
  <unicode hex="004E"/>
  <outline>
    <contour>
      <point x="8" y="0" type="line"/>
      <point x="153" y="0" type="line"/>
      <point x="246" y="442" type="line"/>
      <point x="480" y="0" type="line"/>
      <point x="596" y="0" type="line"/>
      <point x="747" y="710" type="line"/>
      <point x="602" y="710" type="line"/>
      <point x="506" y="257" type="line"/>
      <point x="272" y="710" type="line"/>
      <point x="159" y="710" type="line"/>
    </contour>
  </outline>
</glyph>
<glyph name="O" format="2">
  <advance width="730"/>
  <unicode hex="004F"/>
  <outline>
    <contour>
      <point x="299" y="-6" type="qcurve" smooth="yes"/>
      <point x="381" y="-6"/>
      <point x="533" y="66"/>
      <point x="648" y="185"/>
      <point x="717" y="337"/>
      <point x="717" y="418" type="qcurve" smooth="yes"/>
      <point x="717" y="475"/>
      <point x="682" y="582"/>
      <point x="616" y="664"/>
      <point x="518" y="714"/>
      <point x="455" y="714" type="qcurve" smooth="yes"/>
      <point x="373" y="714"/>
      <point x="221" y="643"/>
      <point x="105" y="524"/>
      <point x="36" y="371"/>
      <point x="36" y="290" type="qcurve" smooth="yes"/>
      <point x="36" y="233"/>
      <point x="70" y="126"/>
      <point x="137" y="44"/>
      <point x="236" y="-6"/>
    </contour>
    <contour>
      <point x="328" y="123" type="qcurve" smooth="yes"/>
      <point x="291" y="123"/>
      <point x="237" y="153"/>
      <point x="202" y="202"/>
      <point x="184" y="266"/>
      <point x="184" y="302" type="qcurve" smooth="yes"/>
      <point x="184" y="351"/>
      <point x="219" y="452"/>
      <point x="282" y="533"/>
      <point x="372" y="585"/>
      <point x="425" y="585" type="qcurve" smooth="yes"/>
      <point x="461" y="585"/>
      <point x="516" y="556"/>
      <point x="551" y="508"/>
      <point x="569" y="443"/>
      <point x="569" y="408" type="qcurve" smooth="yes"/>
      <point x="569" y="359"/>
      <point x="534" y="258"/>
      <point x="471" y="176"/>
      <point x="382" y="123"/>
    </contour>
  </outline>
</glyph>
<glyph name="P" format="2">
  <advance width="602"/>
  <unicode hex="0050"/>
  <outline>
    <contour>
      <point x="8" y="0" type="line"/>
      <point x="153" y="0" type="line"/>
      <point x="202" y="236" type="line"/>
      <point x="350" y="236" type="line" smooth="yes"/>
      <point x="405" y="236"/>
      <point x="502" y="285"/>
      <point x="576" y="363"/>
      <point x="619" y="463"/>
      <point x="619" y="513" type="qcurve" smooth="yes"/>
      <point x="619" y="551"/>
      <point x="595" y="622"/>
      <point x="550" y="676"/>
      <point x="487" y="710"/>
      <point x="446" y="710" type="qcurve" smooth="yes"/>
      <point x="159" y="710" type="line"/>
    </contour>
    <contour>
      <point x="230" y="363" type="line"/>
      <point x="277" y="583" type="line"/>
      <point x="409" y="583" type="line" smooth="yes"/>
      <point x="422" y="583"/>
      <point x="444" y="572"/>
      <point x="461" y="551"/>
      <point x="470" y="521"/>
      <point x="470" y="501" type="qcurve" smooth="yes"/>
      <point x="470" y="471"/>
      <point x="453" y="420"/>
      <point x="424" y="383"/>
      <point x="387" y="363"/>
      <point x="368" y="363" type="qcurve" smooth="yes"/>
    </contour>
  </outline>
</glyph>
<glyph name="Q" format="2">
  <advance width="738"/>
  <unicode hex="0051"/>
  <anchor x="315" y="0" name="bottom"/>
  <anchor x="379" y="355" name="center"/>
  <anchor x="371" y="0" name="ogonek"/>
  <anchor x="458" y="708" name="top"/>
  <anchor x="20" y="710" name="topleft"/>
  <anchor x="616" y="636" name="topright"/>
  <outline>
    <contour>
      <point x="303" y="-6" type="curve" smooth="yes"/>
      <point x="533" y="-6"/>
      <point x="733" y="203"/>
      <point x="733" y="416" type="curve" smooth="yes"/>
      <point x="733" y="570"/>
      <point x="637" y="714"/>
      <point x="460" y="714" type="curve" smooth="yes"/>
      <point x="230" y="714"/>
      <point x="28" y="507"/>
      <point x="28" y="292" type="curve" smooth="yes"/>
      <point x="28" y="137"/>
      <point x="126" y="-6"/>
    </contour>
    <contour>
      <point x="341" y="167" type="curve" smooth="yes"/>
      <point x="260" y="167"/>
      <point x="228" y="233"/>
      <point x="228" y="307" type="curve" smooth="yes"/>
      <point x="228" y="411"/>
      <point x="294" y="541"/>
      <point x="420" y="541" type="curve" smooth="yes"/>
      <point x="501" y="541"/>
      <point x="534" y="477"/>
      <point x="534" y="403" type="curve" smooth="yes"/>
      <point x="534" y="300"/>
      <point x="469" y="167"/>
    </contour>
    <contour>
      <point x="550" y="-30" type="line"/>
      <point x="662" y="55" type="line"/>
      <point x="448" y="344" type="line"/>
      <point x="333" y="262" type="line"/>
    </contour>
  </outline>
</glyph>
<glyph name="R" format="2">
  <advance width="643"/>
  <unicode hex="0052"/>
  <outline>
    <contour>
      <point x="153" y="0" type="line"/>
      <point x="202" y="236" type="line"/>
      <point x="317" y="236" type="line"/>
      <point x="400" y="0" type="line"/>
      <point x="563" y="0" type="line"/>
      <point x="468" y="266" type="line"/>
      <point x="504" y="282"/>
      <point x="564" y="335"/>
      <point x="608" y="400"/>
      <point x="633" y="475"/>
      <point x="633" y="513" type="qcurve" smooth="yes"/>
      <point x="633" y="551"/>
      <point x="609" y="622"/>
      <point x="565" y="676"/>
      <point x="501" y="710"/>
      <point x="460" y="710" type="qcurve" smooth="yes"/>
      <point x="159" y="710" type="line"/>
      <point x="8" y="0" type="line"/>
    </contour>
    <contour>
      <point x="230" y="363" type="line"/>
      <point x="277" y="583" type="line"/>
      <point x="424" y="583" type="line" smooth="yes"/>
      <point x="437" y="583"/>
      <point x="458" y="570"/>
      <point x="474" y="548"/>
      <point x="484" y="516"/>
      <point x="484" y="498" type="qcurve" smooth="yes"/>
      <point x="484" y="471"/>
      <point x="466" y="422"/>
      <point x="437" y="385"/>
      <point x="401" y="363"/>
      <point x="383" y="363" type="qcurve" smooth="yes"/>
    </contour>
  </outline>
</glyph>
<glyph name="S" format="2">
  <advance width="592"/>
  <unicode hex="0053"/>
  <outline>
    <contour>
      <point x="244" y="-8" type="qcurve" smooth="yes"/>
      <point x="300" y="-8"/>
      <point x="409" y="20"/>
      <point x="494" y="82"/>
      <point x="546" y="178"/>
      <point x="546" y="246" type="qcurve" smooth="yes"/>
      <point x="546" y="283"/>
      <point x="522" y="336"/>
      <point x="476" y="375"/>
      <point x="411" y="404"/>
      <point x="372" y="416" type="qcurve" smooth="yes"/>
      <point x="342" y="425"/>
      <point x="294" y="441"/>
      <point x="261" y="460"/>
      <point x="244" y="483"/>
      <point x="244" y="500" type="qcurve" smooth="yes"/>
      <point x="244" y="520"/>
      <point x="259" y="552"/>
      <point x="287" y="574"/>
      <point x="329" y="587"/>
      <point x="356" y="587" type="qcurve" smooth="yes"/>
      <point x="386" y="587"/>
      <point x="443" y="571"/>
      <point x="488" y="547"/>
      <point x="519" y="525"/>
      <point x="521" y="518" type="qcurve"/>
      <point x="610" y="637" type="line"/>
      <point x="592" y="651"/>
      <point x="544" y="680"/>
      <point x="487" y="702"/>
      <point x="423" y="716"/>
      <point x="387" y="716" type="qcurve" smooth="yes"/>
      <point x="329" y="716"/>
      <point x="220" y="679"/>
      <point x="136" y="612"/>
      <point x="86" y="513"/>
      <point x="86" y="451" type="qcurve" smooth="yes"/>
      <point x="86" y="421"/>
      <point x="105" y="374"/>
      <point x="143" y="337"/>
      <point x="199" y="309"/>
      <point x="236" y="297" type="qcurve" smooth="yes"/>
      <point x="268" y="287"/>
      <point x="322" y="269"/>
      <point x="362" y="248"/>
      <point x="384" y="221"/>
      <point x="384" y="203" type="qcurve" smooth="yes"/>
      <point x="384" y="185"/>
      <point x="370" y="155"/>
      <point x="343" y="134"/>
      <point x="302" y="122"/>
      <point x="273" y="122" type="qcurve" smooth="yes"/>
      <point x="234" y="122"/>
      <point x="164" y="143"/>
      <point x="109" y="172"/>
      <point x="73" y="200"/>
      <point x="68" y="209" type="qcurve"/>
      <point x="-23" y="83" type="line"/>
      <point x="2" y="62"/>
      <point x="63" y="28"/>
      <point x="132" y="4"/>
      <point x="206" y="-8"/>
    </contour>
  </outline>
</glyph>
<glyph name="T" format="2">
  <advance width="593"/>
  <unicode hex="0054"/>
  <outline>
    <contour>
      <point x="160" y="0" type="line"/>
      <point x="305" y="0" type="line"/>
      <point x="429" y="583" type="line"/>
      <point x="639" y="583" type="line"/>
      <point x="665" y="710" type="line"/>
      <point x="101" y="710" type="line"/>
      <point x="74" y="583" type="line"/>
      <point x="284" y="583" type="line"/>
    </contour>
  </outline>
</glyph>
<glyph name="U" format="2">
  <advance width="719"/>
  <unicode hex="0055"/>
  <outline>
    <contour>
      <point x="294" y="-6" type="qcurve" smooth="yes"/>
      <point x="372" y="-6"/>
      <point x="496" y="50"/>
      <point x="590" y="146"/>
      <point x="651" y="275"/>
      <point x="667" y="348" type="qcurve" smooth="yes"/>
      <point x="744" y="710" type="line"/>
      <point x="599" y="710" type="line"/>
      <point x="522" y="348" type="line" smooth="yes"/>
      <point x="513" y="306"/>
      <point x="480" y="224"/>
      <point x="431" y="162"/>
      <point x="365" y="123"/>
      <point x="321" y="123" type="qcurve" smooth="yes"/>
      <point x="290" y="123"/>
      <point x="246" y="144"/>
      <point x="219" y="182"/>
      <point x="207" y="232"/>
      <point x="207" y="261" type="qcurve" smooth="yes"/>
      <point x="207" y="282"/>
      <point x="212" y="325"/>
      <point x="217" y="348" type="qcurve" smooth="yes"/>
      <point x="294" y="710" type="line"/>
      <point x="149" y="710" type="line"/>
      <point x="72" y="348" type="line" smooth="yes"/>
      <point x="66" y="318"/>
      <point x="59" y="263"/>
      <point x="59" y="235" type="qcurve" smooth="yes"/>
      <point x="59" y="185"/>
      <point x="85" y="97"/>
      <point x="141" y="31"/>
      <point x="230" y="-6"/>
    </contour>
  </outline>
</glyph>
<glyph name="V" format="2">
  <advance width="645"/>
  <unicode hex="0056"/>
  <outline>
    <contour>
      <point x="195" y="0" type="line"/>
      <point x="317" y="0" type="line"/>
      <point x="727" y="710" type="line"/>
      <point x="574" y="710" type="line"/>
      <point x="294" y="182" type="line"/>
      <point x="238" y="710" type="line"/>
      <point x="85" y="710" type="line"/>
    </contour>
  </outline>
</glyph>
<glyph name="W" format="2">
  <advance width="1007"/>
  <unicode hex="0057"/>
  <outline>
    <contour>
      <point x="149" y="0" type="line"/>
      <point x="281" y="0" type="line"/>
      <point x="541" y="493" type="line"/>
      <point x="605" y="1" type="line"/>
      <point x="737" y="1" type="line"/>
      <point x="1077" y="710" type="line"/>
      <point x="936" y="710" type="line"/>
      <point x="696" y="191" type="line"/>
      <point x="654" y="709" type="line"/>
      <point x="514" y="709" type="line"/>
      <point x="265" y="190" type="line"/>
      <point x="234" y="709" type="line"/>
      <point x="92" y="709" type="line"/>
    </contour>
  </outline>
</glyph>
<glyph name="X" format="2">
  <advance width="621"/>
  <unicode hex="0058"/>
  <outline>
    <contour>
      <point x="-59" y="0" type="line"/>
      <point x="98" y="0" type="line"/>
      <point x="299" y="249" type="line"/>
      <point x="395" y="0" type="line"/>
      <point x="552" y="0" type="line"/>
      <point x="397" y="350" type="line"/>
      <point x="711" y="710" type="line"/>
      <point x="554" y="710" type="line"/>
      <point x="343" y="451" type="line"/>
      <point x="241" y="710" type="line"/>
      <point x="84" y="710" type="line"/>
      <point x="244" y="350" type="line"/>
    </contour>
  </outline>
</glyph>
<glyph name="Y" format="2">
  <advance width="620"/>
  <unicode hex="0059"/>
  <outline>
    <contour>
      <point x="169" y="0" type="line"/>
      <point x="313" y="0" type="line"/>
      <point x="365" y="247" type="line"/>
      <point x="707" y="710" type="line"/>
      <point x="549" y="710" type="line"/>
      <point x="320" y="373" type="line"/>
      <point x="237" y="710" type="line"/>
      <point x="80" y="710" type="line"/>
      <point x="222" y="249" type="line"/>
    </contour>
  </outline>
</glyph>
<glyph name="Z" format="2">
  <advance width="596"/>
  <unicode hex="005A"/>
  <outline>
    <contour>
      <point x="-36" y="0" type="line"/>
      <point x="499" y="0" type="line"/>
      <point x="526" y="127" type="line"/>
      <point x="173" y="127" type="line"/>
      <point x="624" y="601" type="line"/>
      <point x="647" y="710" type="line"/>
      <point x="128" y="710" type="line"/>
      <point x="101" y="583" type="line"/>
      <point x="453" y="583" type="line"/>
      <point x="-12" y="109" type="line"/>
    </contour>
  </outline>
</glyph>
<glyph name="bracketleft" format="2">
  <advance width="307"/>
  <unicode hex="005B"/>
  <outline>
    <contour>
      <point x="192" y="-40" type="line"/>
      <point x="216" y="73" type="line"/>
      <point x="154" y="73" type="line"/>
      <point x="272" y="627" type="line"/>
      <point x="333" y="627" type="line"/>
      <point x="357" y="740" type="line"/>
      <point x="166" y="740" type="line"/>
      <point x="0" y="-40" type="line"/>
    </contour>
  </outline>
</glyph>
<glyph name="backslash" format="2">
  <advance width="612"/>
  <unicode hex="005C"/>
  <outline>
    <contour>
      <point x="107" y="710" type="line"/>
      <point x="370" y="0" type="line"/>
      <point x="526" y="0" type="line"/>
      <point x="264" y="710" type="line"/>
    </contour>
  </outline>
</glyph>
<glyph name="bracketright" format="2">
  <advance width="308"/>
  <unicode hex="005D"/>
  <outline>
    <contour>
      <point x="164" y="-40" type="line"/>
      <point x="329" y="740" type="line"/>
      <point x="137" y="740" type="line"/>
      <point x="113" y="627" type="line"/>
      <point x="175" y="627" type="line"/>
      <point x="57" y="73" type="line"/>
      <point x="-5" y="73" type="line"/>
      <point x="-29" y="-40" type="line"/>
    </contour>
  </outline>
</glyph>
<glyph name="asciicircum" format="2">
  <advance width="594"/>
  <unicode hex="005E"/>
  <outline>
    <contour>
      <point x="161" y="303" type="line"/>
      <point x="304" y="592" type="line"/>
      <point x="444" y="303" type="line"/>
      <point x="560" y="303" type="line"/>
      <point x="363" y="710" type="line"/>
      <point x="245" y="710" type="line"/>
      <point x="47" y="303" type="line"/>
    </contour>
  </outline>
</glyph>
<glyph name="underscore" format="2">
  <advance width="452"/>
  <unicode hex="005F"/>
  <outline>
    <contour>
      <point x="307" y="-127" type="line"/>
      <point x="334" y="0" type="line"/>
      <point x="-11" y="0" type="line"/>
      <point x="-38" y="-127" type="line"/>
    </contour>
  </outline>
</glyph>
<glyph name="a" format="2">
  <advance width="615"/>
  <unicode hex="0061"/>
  <outline>
    <contour>
      <point x="200" y="-10" type="qcurve" smooth="yes"/>
      <point x="253" y="-10"/>
      <point x="337" y="39"/>
      <point x="370" y="83" type="qcurve"/>
      <point x="352" y="0" type="line"/>
      <point x="493" y="0" type="line"/>
      <point x="603" y="518" type="line"/>
      <point x="462" y="518" type="line"/>
      <point x="444" y="433" type="line"/>
      <point x="430" y="479"/>
      <point x="356" y="534"/>
      <point x="302" y="534" type="qcurve" smooth="yes"/>
      <point x="246" y="534"/>
      <point x="142" y="481"/>
      <point x="62" y="390"/>
      <point x="14" y="271"/>
      <point x="14" y="204" type="qcurve" smooth="yes"/>
      <point x="14" y="159"/>
      <point x="40" y="80"/>
      <point x="87" y="22"/>
      <point x="156" y="-10"/>
    </contour>
    <contour>
      <point x="262" y="110" type="qcurve" smooth="yes"/>
      <point x="239" y="110"/>
      <point x="202" y="127"/>
      <point x="177" y="159"/>
      <point x="163" y="202"/>
      <point x="163" y="227" type="qcurve" smooth="yes"/>
      <point x="163" y="261"/>
      <point x="189" y="328"/>
      <point x="233" y="381"/>
      <point x="290" y="414"/>
      <point x="320" y="414" type="qcurve" smooth="yes"/>
      <point x="340" y="414"/>
      <point x="373" y="399"/>
      <point x="398" y="373"/>
      <point x="415" y="336"/>
      <point x="419" y="313" type="qcurve"/>
      <point x="393" y="193" type="line"/>
      <point x="380" y="175"/>
      <point x="349" y="144"/>
      <point x="316" y="122"/>
      <point x="280" y="110"/>
    </contour>
  </outline>
</glyph>
<glyph name="b" format="2">
  <advance width="614"/>
  <unicode hex="0062"/>
  <outline>
    <contour>
      <point x="285" y="-10" type="qcurve" smooth="yes"/>
      <point x="342" y="-10"/>
      <point x="450" y="42"/>
      <point x="533" y="133"/>
      <point x="583" y="254"/>
      <point x="583" y="322" type="qcurve" smooth="yes"/>
      <point x="583" y="366"/>
      <point x="561" y="443"/>
      <point x="517" y="501"/>
      <point x="453" y="534"/>
      <point x="412" y="534" type="qcurve" smooth="yes"/>
      <point x="358" y="534"/>
      <point x="262" y="479"/>
      <point x="227" y="434" type="qcurve"/>
      <point x="290" y="730" type="line"/>
      <point x="149" y="730" type="line"/>
      <point x="-6" y="0" type="line"/>
      <point x="117" y="0" type="line"/>
      <point x="136" y="90" type="line"/>
      <point x="144" y="67"/>
      <point x="170" y="30"/>
      <point x="208" y="4"/>
      <point x="256" y="-10"/>
    </contour>
    <contour>
      <point x="274" y="110" type="qcurve" smooth="yes"/>
      <point x="255" y="110"/>
      <point x="222" y="122"/>
      <point x="196" y="144"/>
      <point x="180" y="175"/>
      <point x="176" y="193" type="qcurve"/>
      <point x="202" y="315" type="line"/>
      <point x="215" y="336"/>
      <point x="248" y="372"/>
      <point x="284" y="399"/>
      <point x="323" y="414"/>
      <point x="342" y="414" type="qcurve" smooth="yes"/>
      <point x="365" y="414"/>
      <point x="398" y="395"/>
      <point x="422" y="362"/>
      <point x="434" y="318"/>
      <point x="434" y="294" type="qcurve" smooth="yes"/>
      <point x="434" y="258"/>
      <point x="408" y="191"/>
      <point x="363" y="140"/>
      <point x="305" y="110"/>
    </contour>
  </outline>
</glyph>
<glyph name="c" format="2">
  <advance width="543"/>
  <unicode hex="0063"/>
  <outline>
    <contour>
      <point x="230" y="-10" type="qcurve" smooth="yes"/>
      <point x="271" y="-10"/>
      <point x="347" y="11"/>
      <point x="414" y="47"/>
      <point x="469" y="98"/>
      <point x="488" y="127" type="qcurve"/>
      <point x="360" y="169" type="line"/>
      <point x="351" y="156"/>
      <point x="327" y="134"/>
      <point x="299" y="119"/>
      <point x="268" y="110"/>
      <point x="253" y="110" type="qcurve" smooth="yes"/>
      <point x="232" y="110"/>
      <point x="198" y="126"/>
      <point x="174" y="158"/>
      <point x="160" y="201"/>
      <point x="160" y="227" type="qcurve" smooth="yes"/>
      <point x="160" y="267"/>
      <point x="186" y="335"/>
      <point x="231" y="385"/>
      <point x="287" y="414"/>
      <point x="317" y="414" type="qcurve" smooth="yes"/>
      <point x="347" y="414"/>
      <point x="388" y="384"/>
      <point x="398" y="356" type="qcurve"/>
      <point x="544" y="398" type="line"/>
      <point x="528" y="459"/>
      <point x="428" y="534"/>
      <point x="343" y="534" type="qcurve" smooth="yes"/>
      <point x="270" y="534"/>
      <point x="149" y="479"/>
      <point x="62" y="389"/>
      <point x="14" y="273"/>
      <point x="14" y="211" type="qcurve" smooth="yes"/>
      <point x="14" y="166"/>
      <point x="41" y="86"/>
      <point x="95" y="26"/>
      <point x="176" y="-10"/>
    </contour>
  </outline>
</glyph>
<glyph name="d" format="2">
  <advance width="614"/>
  <unicode hex="0064"/>
  <outline>
    <contour>
      <point x="200" y="-10" type="qcurve" smooth="yes"/>
      <point x="226" y="-10"/>
      <point x="272" y="2"/>
      <point x="315" y="25"/>
      <point x="352" y="59"/>
      <point x="368" y="80" type="qcurve"/>
      <point x="351" y="0" type="line"/>
      <point x="492" y="0" type="line"/>
      <point x="647" y="730" type="line"/>
      <point x="506" y="730" type="line"/>
      <point x="443" y="434" type="line"/>
      <point x="435" y="456"/>
      <point x="409" y="492"/>
      <point x="373" y="519"/>
      <point x="326" y="534"/>
      <point x="300" y="534" type="qcurve" smooth="yes"/>
      <point x="244" y="534"/>
      <point x="141" y="480"/>
      <point x="62" y="389"/>
      <point x="14" y="270"/>
      <point x="14" y="204" type="qcurve" smooth="yes"/>
      <point x="14" y="159"/>
      <point x="40" y="80"/>
      <point x="88" y="23"/>
      <point x="157" y="-10"/>
    </contour>
    <contour>
      <point x="262" y="110" type="qcurve" smooth="yes"/>
      <point x="239" y="110"/>
      <point x="202" y="127"/>
      <point x="177" y="159"/>
      <point x="163" y="203"/>
      <point x="163" y="228" type="qcurve" smooth="yes"/>
      <point x="163" y="262"/>
      <point x="189" y="329"/>
      <point x="232" y="381"/>
      <point x="288" y="414"/>
      <point x="319" y="414" type="qcurve" smooth="yes"/>
      <point x="337" y="414"/>
      <point x="370" y="399"/>
      <point x="398" y="373"/>
      <point x="415" y="337"/>
      <point x="418" y="315" type="qcurve"/>
      <point x="393" y="194" type="line"/>
      <point x="382" y="176"/>
      <point x="351" y="144"/>
      <point x="316" y="122"/>
      <point x="280" y="110"/>
    </contour>
  </outline>
</glyph>
<glyph name="e" format="2">
  <advance width="553"/>
  <unicode hex="0065"/>
  <outline>
    <contour>
      <point x="231" y="-10" type="qcurve" smooth="yes"/>
      <point x="270" y="-10"/>
      <point x="346" y="10"/>
      <point x="416" y="47"/>
      <point x="475" y="97"/>
      <point x="495" y="127" type="qcurve"/>
      <point x="383" y="162" type="line"/>
      <point x="373" y="146"/>
      <point x="345" y="120"/>
      <point x="312" y="102"/>
      <point x="275" y="92"/>
      <point x="256" y="92" type="qcurve" smooth="yes"/>
      <point x="231" y="92"/>
      <point x="195" y="109"/>
      <point x="172" y="139"/>
      <point x="160" y="181"/>
      <point x="160" y="207" type="qcurve" smooth="yes"/>
      <point x="160" y="247"/>
      <point x="182" y="328"/>
      <point x="225" y="392"/>
      <point x="286" y="432"/>
      <point x="326" y="432" type="qcurve" smooth="yes"/>
      <point x="343" y="432"/>
      <point x="371" y="424"/>
      <point x="391" y="410"/>
      <point x="401" y="390"/>
      <point x="401" y="376" type="qcurve" smooth="yes"/>
      <point x="401" y="359"/>
      <point x="384" y="333"/>
      <point x="344" y="314"/>
      <point x="279" y="305"/>
      <point x="232" y="305" type="qcurve" smooth="yes"/>
      <point x="204" y="305"/>
      <point x="147" y="308"/>
      <point x="118" y="311" type="qcurve"/>
      <point x="94" y="223" type="line"/>
      <point x="131" y="219"/>
      <point x="201" y="216"/>
      <point x="231" y="216" type="qcurve" smooth="yes"/>
      <point x="384" y="216"/>
      <point x="536" y="302"/>
      <point x="536" y="386" type="qcurve" smooth="yes"/>
      <point x="536" y="422"/>
      <point x="509" y="477"/>
      <point x="460" y="514"/>
      <point x="390" y="534"/>
      <point x="347" y="534" type="qcurve" smooth="yes"/>
      <point x="277" y="534"/>
      <point x="155" y="482"/>
      <point x="66" y="394"/>
      <point x="15" y="278"/>
      <point x="15" y="212" type="qcurve" smooth="yes"/>
      <point x="15" y="163"/>
      <point x="44" y="82"/>
      <point x="100" y="23"/>
      <point x="181" y="-10"/>
    </contour>
  </outline>
</glyph>
<glyph name="f" format="2">
  <advance width="365"/>
  <unicode hex="0066"/>
  <outline>
    <contour>
      <point x="-22" y="-213" type="line"/>
      <point x="119" y="-213" type="line"/>
      <point x="246" y="385" type="line"/>
      <point x="365" y="385" type="line"/>
      <point x="388" y="492" type="line"/>
      <point x="269" y="492" type="line"/>
      <point x="278" y="532" type="line" smooth="yes"/>
      <point x="287" y="576"/>
      <point x="327" y="621"/>
      <point x="358" y="621" type="qcurve" smooth="yes"/>
      <point x="373" y="621"/>
      <point x="410" y="611"/>
      <point x="423" y="603" type="qcurve"/>
      <point x="472" y="709" type="line"/>
      <point x="443" y="724"/>
      <point x="382" y="740"/>
      <point x="352" y="740" type="qcurve" smooth="yes"/>
      <point x="313" y="740"/>
      <point x="244" y="710"/>
      <point x="186" y="655"/>
      <point x="146" y="576"/>
      <point x="136" y="527" type="qcurve" smooth="yes"/>
      <point x="129" y="492" type="line"/>
      <point x="65" y="492" type="line"/>
      <point x="41" y="385" type="line"/>
      <point x="105" y="385" type="line"/>
    </contour>
  </outline>
</glyph>
<glyph name="g" format="2">
  <advance width="613"/>
  <unicode hex="0067"/>
  <outline>
    <contour>
      <point x="161" y="-223" type="qcurve" smooth="yes"/>
      <point x="223" y="-223"/>
      <point x="335" y="-188"/>
      <point x="423" y="-124"/>
      <point x="485" y="-31"/>
      <point x="497" y="28" type="qcurve" smooth="yes"/>
      <point x="603" y="524" type="line"/>
      <point x="480" y="524" type="line"/>
      <point x="460" y="434" type="line"/>
      <point x="452" y="456"/>
      <point x="425" y="493"/>
      <point x="388" y="520"/>
      <point x="340" y="534"/>
      <point x="312" y="534" type="qcurve" smooth="yes"/>
      <point x="252" y="534"/>
      <point x="144" y="481"/>
      <point x="63" y="391"/>
      <point x="15" y="272"/>
      <point x="15" y="205" type="qcurve" smooth="yes"/>
      <point x="15" y="162"/>
      <point x="38" y="86"/>
      <point x="82" y="30"/>
      <point x="147" y="-3"/>
      <point x="188" y="-3" type="qcurve" smooth="yes"/>
      <point x="213" y="-3"/>
      <point x="263" y="10"/>
      <point x="311" y="33"/>
      <point x="352" y="67"/>
      <point x="369" y="90" type="qcurve"/>
      <point x="356" y="28" type="line" smooth="yes"/>
      <point x="348" y="-10"/>
      <point x="314" y="-65"/>
      <point x="268" y="-100"/>
      <point x="212" y="-117"/>
      <point x="183" y="-117" type="qcurve" smooth="yes"/>
      <point x="135" y="-117"/>
      <point x="61" y="-76"/>
      <point x="40" y="-40" type="qcurve"/>
      <point x="-52" y="-115" type="line"/>
      <point x="-37" y="-141"/>
      <point x="3" y="-181"/>
      <point x="55" y="-209"/>
      <point x="121" y="-223"/>
    </contour>
    <contour>
      <point x="261" y="110" type="qcurve" smooth="yes"/>
      <point x="238" y="110"/>
      <point x="201" y="128"/>
      <point x="176" y="160"/>
      <point x="161" y="203"/>
      <point x="161" y="227" type="qcurve" smooth="yes"/>
      <point x="161" y="261"/>
      <point x="187" y="328"/>
      <point x="230" y="381"/>
      <point x="286" y="414"/>
      <point x="318" y="414" type="qcurve" smooth="yes"/>
      <point x="336" y="414"/>
      <point x="370" y="400"/>
      <point x="396" y="373"/>
      <point x="414" y="337"/>
      <point x="417" y="315" type="qcurve"/>
      <point x="392" y="194" type="line"/>
      <point x="380" y="177"/>
      <point x="351" y="146"/>
      <point x="317" y="123"/>
      <point x="280" y="110"/>
    </contour>
  </outline>
</glyph>
<glyph name="h" format="2">
  <advance width="585"/>
  <unicode hex="0068"/>
  <outline>
    <contour>
      <point x="-6" y="0" type="line"/>
      <point x="135" y="0" type="line"/>
      <point x="200" y="305" type="line"/>
      <point x="212" y="328"/>
      <point x="246" y="366"/>
      <point x="284" y="394"/>
      <point x="321" y="409"/>
      <point x="336" y="409" type="qcurve" smooth="yes"/>
      <point x="364" y="409"/>
      <point x="394" y="376"/>
      <point x="394" y="341" type="qcurve" smooth="yes"/>
      <point x="394" y="330"/>
      <point x="392" y="308"/>
      <point x="389" y="294" type="qcurve" smooth="yes"/>
      <point x="327" y="0" type="line"/>
      <point x="468" y="0" type="line"/>
      <point x="537" y="330" type="line"/>
      <point x="542" y="350"/>
      <point x="547" y="391"/>
      <point x="547" y="411" type="qcurve" smooth="yes"/>
      <point x="547" y="437"/>
      <point x="535" y="481"/>
      <point x="507" y="515"/>
      <point x="460" y="534"/>
      <point x="424" y="534" type="qcurve" smooth="yes"/>
      <point x="396" y="534"/>
      <point x="342" y="520"/>
      <point x="291" y="493"/>
      <point x="246" y="454"/>
      <point x="226" y="430" type="qcurve"/>
      <point x="290" y="730" type="line"/>
      <point x="149" y="730" type="line"/>
    </contour>
  </outline>
</glyph>
<glyph name="k" format="2">
  <advance width="563"/>
  <unicode hex="006B"/>
  <outline>
    <contour>
      <point x="336" y="0" type="line"/>
      <point x="485" y="0" type="line"/>
      <point x="390" y="203" type="line"/>
      <point x="462" y="240"/>
      <point x="538" y="351"/>
      <point x="538" y="416" type="qcurve" smooth="yes"/>
      <point x="538" y="470"/>
      <point x="483" y="531"/>
      <point x="429" y="531" type="qcurve" smooth="yes"/>
      <point x="394" y="531"/>
      <point x="330" y="507"/>
      <point x="273" y="464"/>
      <point x="222" y="402"/>
      <point x="201" y="365" type="qcurve"/>
      <point x="176" y="211" type="line"/>
      <point x="188" y="252"/>
      <point x="230" y="325"/>
      <point x="283" y="380"/>
      <point x="340" y="412"/>
      <point x="367" y="412" type="qcurve" smooth="yes"/>
      <point x="387" y="412"/>
      <point x="412" y="390"/>
      <point x="412" y="367" type="qcurve" smooth="yes"/>
      <point x="412" y="324"/>
      <point x="321" y="251"/>
      <point x="238" y="234" type="qcurve"/>
    </contour>
    <contour>
      <point x="-6" y="0" type="line"/>
      <point x="134" y="0" type="line"/>
      <point x="289" y="730" type="line"/>
      <point x="149" y="730" type="line"/>
    </contour>
  </outline>
</glyph>
<glyph name="l" format="2">
  <advance width="314"/>
  <unicode hex="006C"/>
  <outline>
    <contour>
      <point x="122" y="-9" type="qcurve" smooth="yes"/>
      <point x="153" y="-9"/>
      <point x="227" y="7"/>
      <point x="257" y="19" type="qcurve"/>
      <point x="262" y="126" type="line"/>
      <point x="248" y="120"/>
      <point x="219" y="113"/>
      <point x="208" y="113" type="qcurve" smooth="yes"/>
      <point x="188" y="113"/>
      <point x="168" y="133"/>
      <point x="168" y="153" type="qcurve" smooth="yes"/>
      <point x="168" y="158"/>
      <point x="169" y="168"/>
      <point x="170" y="173" type="qcurve" smooth="yes"/>
      <point x="289" y="730" type="line"/>
      <point x="148" y="730" type="line"/>
      <point x="19" y="123" type="line" smooth="yes"/>
      <point x="17" y="113"/>
      <point x="15" y="94"/>
      <point x="15" y="85" type="qcurve" smooth="yes"/>
      <point x="15" y="40"/>
      <point x="69" y="-9"/>
    </contour>
  </outline>
</glyph>
<glyph name="m" format="2">
  <advance width="893"/>
  <unicode hex="006D"/>
  <outline>
    <contour>
      <point x="-6" y="0" type="line"/>
      <point x="135" y="0" type="line"/>
      <point x="200" y="305" type="line"/>
      <point x="211" y="327"/>
      <point x="243" y="366"/>
      <point x="278" y="394"/>
      <point x="315" y="409"/>
      <point x="332" y="409" type="qcurve" smooth="yes"/>
      <point x="356" y="409"/>
      <point x="383" y="378"/>
      <point x="383" y="345" type="qcurve" smooth="yes"/>
      <point x="383" y="334"/>
      <point x="381" y="309"/>
      <point x="377" y="294" type="qcurve"/>
      <point x="315" y="0" type="line"/>
      <point x="456" y="0" type="line"/>
      <point x="520" y="304" type="line"/>
      <point x="532" y="327"/>
      <point x="563" y="365"/>
      <point x="598" y="394"/>
      <point x="635" y="409"/>
      <point x="652" y="409" type="qcurve" smooth="yes"/>
      <point x="676" y="409"/>
      <point x="703" y="378"/>
      <point x="703" y="344" type="qcurve" smooth="yes"/>
      <point x="703" y="333"/>
      <point x="701" y="308"/>
      <point x="697" y="294" type="qcurve"/>
      <point x="635" y="0" type="line"/>
      <point x="776" y="0" type="line"/>
      <point x="846" y="330" type="line" smooth="yes"/>
      <point x="852" y="357"/>
      <point x="856" y="398"/>
      <point x="856" y="412" type="qcurve" smooth="yes"/>
      <point x="856" y="438"/>
      <point x="845" y="482"/>
      <point x="818" y="515"/>
      <point x="773" y="534"/>
      <point x="739" y="534" type="qcurve" smooth="yes"/>
      <point x="710" y="534"/>
      <point x="655" y="520"/>
      <point x="603" y="492"/>
      <point x="556" y="451"/>
      <point x="536" y="425" type="qcurve"/>
      <point x="534" y="449"/>
      <point x="520" y="489"/>
      <point x="491" y="518"/>
      <point x="447" y="534"/>
      <point x="416" y="534" type="qcurve" smooth="yes"/>
      <point x="358" y="534"/>
      <point x="250" y="479"/>
      <point x="213" y="430" type="qcurve"/>
      <point x="233" y="524" type="line"/>
      <point x="106" y="524" type="line"/>
    </contour>
  </outline>
</glyph>
<glyph name="n" format="2">
  <advance width="585"/>
  <unicode hex="006E"/>
  <outline>
    <contour>
      <point x="-6" y="0" type="line"/>
      <point x="135" y="0" type="line"/>
      <point x="200" y="305" type="line"/>
      <point x="212" y="328"/>
      <point x="246" y="366"/>
      <point x="284" y="394"/>
      <point x="323" y="409"/>
      <point x="341" y="409" type="qcurve" smooth="yes"/>
      <point x="366" y="409"/>
      <point x="395" y="378"/>
      <point x="395" y="344" type="qcurve" smooth="yes"/>
      <point x="395" y="333"/>
      <point x="393" y="309"/>
      <point x="389" y="294" type="qcurve"/>
      <point x="327" y="0" type="line"/>
      <point x="468" y="0" type="line"/>
      <point x="537" y="330" type="line" smooth="yes"/>
      <point x="541" y="350"/>
      <point x="547" y="392"/>
      <point x="547" y="413" type="qcurve" smooth="yes"/>
      <point x="547" y="438"/>
      <point x="536" y="482"/>
      <point x="509" y="515"/>
      <point x="464" y="534"/>
      <point x="430" y="534" type="qcurve" smooth="yes"/>
      <point x="398" y="534"/>
      <point x="336" y="520"/>
      <point x="280" y="492"/>
      <point x="232" y="454"/>
      <point x="213" y="430" type="qcurve"/>
      <point x="233" y="524" type="line"/>
      <point x="106" y="524" type="line"/>
    </contour>
  </outline>
</glyph>
<glyph name="o" format="2">
  <advance width="587"/>
  <unicode hex="006F"/>
  <outline>
    <contour>
      <point x="235" y="-10" type="qcurve" smooth="yes"/>
      <point x="306" y="-10"/>
      <point x="424" y="42"/>
      <point x="509" y="131"/>
      <point x="557" y="248"/>
      <point x="557" y="312" type="qcurve" smooth="yes"/>
      <point x="557" y="358"/>
      <point x="531" y="438"/>
      <point x="477" y="499"/>
      <point x="393" y="534"/>
      <point x="335" y="534" type="qcurve" smooth="yes"/>
      <point x="264" y="534"/>
      <point x="147" y="482"/>
      <point x="62" y="393"/>
      <point x="14" y="277"/>
      <point x="14" y="212" type="qcurve" smooth="yes"/>
      <point x="14" y="167"/>
      <point x="40" y="86"/>
      <point x="94" y="25"/>
      <point x="177" y="-10"/>
    </contour>
    <contour>
      <point x="256" y="110" type="qcurve" smooth="yes"/>
      <point x="233" y="110"/>
      <point x="197" y="126"/>
      <point x="173" y="158"/>
      <point x="161" y="202"/>
      <point x="161" y="228" type="qcurve" smooth="yes"/>
      <point x="161" y="268"/>
      <point x="187" y="336"/>
      <point x="229" y="386"/>
      <point x="285" y="414"/>
      <point x="314" y="414" type="qcurve" smooth="yes"/>
      <point x="338" y="414"/>
      <point x="373" y="397"/>
      <point x="397" y="365"/>
      <point x="410" y="321"/>
      <point x="410" y="294" type="qcurve" smooth="yes"/>
      <point x="410" y="255"/>
      <point x="384" y="187"/>
      <point x="341" y="138"/>
      <point x="286" y="110"/>
    </contour>
  </outline>
</glyph>
<glyph name="p" format="2">
  <advance width="614"/>
  <unicode hex="0070"/>
  <outline>
    <contour>
      <point x="-51" y="-213" type="line"/>
      <point x="90" y="-213" type="line"/>
      <point x="154" y="90" type="line"/>
      <point x="161" y="68"/>
      <point x="187" y="30"/>
      <point x="224" y="4"/>
      <point x="271" y="-10"/>
      <point x="300" y="-10" type="qcurve" smooth="yes"/>
      <point x="355" y="-10"/>
      <point x="458" y="44"/>
      <point x="536" y="135"/>
      <point x="582" y="254"/>
      <point x="582" y="319" type="qcurve" smooth="yes"/>
      <point x="582" y="364"/>
      <point x="557" y="442"/>
      <point x="510" y="500"/>
      <point x="442" y="534"/>
      <point x="400" y="534" type="qcurve" smooth="yes"/>
      <point x="372" y="534"/>
      <point x="319" y="520"/>
      <point x="271" y="495"/>
      <point x="228" y="458"/>
      <point x="209" y="436" type="qcurve"/>
      <point x="228" y="524" type="line"/>
      <point x="105" y="524" type="line"/>
    </contour>
    <contour>
      <point x="278" y="110" type="qcurve" smooth="yes"/>
      <point x="259" y="110"/>
      <point x="226" y="125"/>
      <point x="201" y="152"/>
      <point x="183" y="190"/>
      <point x="179" y="211" type="qcurve"/>
      <point x="205" y="330" type="line"/>
      <point x="216" y="348"/>
      <point x="247" y="380"/>
      <point x="281" y="401"/>
      <point x="318" y="414"/>
      <point x="334" y="414" type="qcurve" smooth="yes"/>
      <point x="358" y="414"/>
      <point x="395" y="396"/>
      <point x="421" y="364"/>
      <point x="435" y="321"/>
      <point x="435" y="296" type="qcurve" smooth="yes"/>
      <point x="435" y="261"/>
      <point x="409" y="194"/>
      <point x="365" y="142"/>
      <point x="309" y="110"/>
    </contour>
  </outline>
</glyph>
<glyph name="r" format="2">
  <advance width="382"/>
  <unicode hex="0072"/>
  <outline>
    <contour>
      <point x="-6" y="0" type="line"/>
      <point x="135" y="0" type="line"/>
      <point x="202" y="317" type="line"/>
      <point x="231" y="359"/>
      <point x="331" y="402"/>
      <point x="387" y="403" type="qcurve"/>
      <point x="414" y="528" type="line"/>
      <point x="410" y="529"/>
      <point x="400" y="530"/>
      <point x="390" y="530" type="qcurve" smooth="yes"/>
      <point x="343" y="530"/>
      <point x="250" y="467"/>
      <point x="212" y="414" type="qcurve"/>
      <point x="235" y="524" type="line"/>
      <point x="106" y="524" type="line"/>
    </contour>
  </outline>
</glyph>
<glyph name="s" format="2">
  <advance width="480"/>
  <unicode hex="0073"/>
  <outline>
    <contour>
      <point x="186" y="-10" type="qcurve" smooth="yes"/>
      <point x="241" y="-10"/>
      <point x="330" y="19"/>
      <point x="393" y="69"/>
      <point x="428" y="139"/>
      <point x="428" y="180" type="qcurve" smooth="yes"/>
      <point x="428" y="207"/>
      <point x="408" y="247"/>
      <point x="368" y="279"/>
      <point x="307" y="305"/>
      <point x="264" y="317" type="qcurve" smooth="yes"/>
      <point x="242" y="323"/>
      <point x="212" y="334"/>
      <point x="192" y="346"/>
      <point x="184" y="361"/>
      <point x="184" y="372" type="qcurve" smooth="yes"/>
      <point x="184" y="387"/>
      <point x="197" y="410"/>
      <point x="220" y="426"/>
      <point x="250" y="434"/>
      <point x="268" y="434" type="qcurve" smooth="yes"/>
      <point x="302" y="434"/>
      <point x="360" y="407"/>
      <point x="394" y="377" type="qcurve"/>
      <point x="468" y="461" type="line"/>
      <point x="432" y="500"/>
      <point x="342" y="534"/>
      <point x="284" y="534" type="qcurve" smooth="yes"/>
      <point x="235" y="534"/>
      <point x="148" y="504"/>
      <point x="84" y="452"/>
      <point x="47" y="380"/>
      <point x="47" y="338" type="qcurve" smooth="yes"/>
      <point x="47" y="313"/>
      <point x="65" y="277"/>
      <point x="102" y="249"/>
      <point x="160" y="225"/>
      <point x="200" y="213" type="qcurve" smooth="yes"/>
      <point x="223" y="206"/>
      <point x="255" y="194"/>
      <point x="276" y="181"/>
      <point x="286" y="164"/>
      <point x="286" y="153" type="qcurve" smooth="yes"/>
      <point x="286" y="139"/>
      <point x="274" y="116"/>
      <point x="253" y="100"/>
      <point x="222" y="92"/>
      <point x="203" y="92" type="qcurve" smooth="yes"/>
      <point x="162" y="92"/>
      <point x="82" y="126"/>
      <point x="44" y="160" type="qcurve"/>
      <point x="-26" y="72" type="line"/>
      <point x="9" y="32"/>
      <point x="122" y="-10"/>
    </contour>
  </outline>
</glyph>
<glyph name="v" format="2">
  <advance width="529"/>
  <unicode hex="0076"/>
  <outline>
    <contour>
      <point x="117" y="0" type="line"/>
      <point x="279" y="0" type="line"/>
      <point x="562" y="524" type="line"/>
      <point x="418" y="524" type="line"/>
      <point x="224" y="114" type="line"/>
      <point x="195" y="524" type="line"/>
      <point x="49" y="524" type="line"/>
    </contour>
  </outline>
</glyph>
<glyph name="w" format="2">
  <advance width="868"/>
  <unicode hex="0077"/>
  <anchor x="487" y="526" name="top"/>
  <outline>
    <contour>
      <point x="56" y="520" type="line"/>
      <point x="111" y="0" type="line"/>
      <point x="304" y="0" type="line"/>
      <point x="432" y="275" type="line"/>
      <point x="432" y="0" type="line"/>
      <point x="636" y="0" type="line"/>
      <point x="908" y="520" type="line"/>
      <point x="736" y="520" type="line"/>
      <point x="566" y="171" type="line"/>
      <point x="566" y="520" type="line"/>
      <point x="402" y="520" type="line"/>
      <point x="255" y="172" type="line"/>
      <point x="232" y="520" type="line"/>
    </contour>
  </outline>
</glyph>
<glyph name="x" format="2">
  <advance width="514"/>
  <unicode hex="0078"/>
  <outline>
    <contour>
      <point x="-61" y="0" type="line"/>
      <point x="84" y="0" type="line"/>
      <point x="218" y="159" type="line"/>
      <point x="230" y="176" type="line"/>
      <point x="235" y="159" type="line"/>
      <point x="302" y="0" type="line"/>
      <point x="447" y="0" type="line"/>
      <point x="325" y="262" type="line"/>
      <point x="556" y="524" type="line"/>
      <point x="412" y="524" type="line"/>
      <point x="279" y="365" type="line"/>
      <point x="266" y="346" type="line"/>
      <point x="262" y="365" type="line"/>
      <point x="198" y="524" type="line"/>
      <point x="54" y="524" type="line"/>
      <point x="172" y="262" type="line"/>
    </contour>
  </outline>
</glyph>
<glyph name="y" format="2">
  <advance width="520"/>
  <unicode hex="0079"/>
  <outline>
    <contour>
      <point x="130" y="0" type="line"/>
      <point x="116" y="-23"/>
      <point x="86" y="-75"/>
      <point x="54" y="-130"/>
      <point x="21" y="-186"/>
      <point x="4" y="-213" type="qcurve"/>
      <point x="168" y="-213" type="line"/>
      <point x="559" y="524" type="line"/>
      <point x="427" y="524" type="line"/>
      <point x="233" y="122" type="line"/>
      <point x="198" y="524" type="line"/>
      <point x="48" y="524" type="line"/>
    </contour>
  </outline>
</glyph>
<glyph name="z" format="2">
  <advance width="471"/>
  <unicode hex="007A"/>
  <outline>
    <contour>
      <point x="-39" y="0" type="line"/>
      <point x="379" y="0" type="line"/>
      <point x="400" y="98" type="line"/>
      <point x="134" y="98" type="line"/>
      <point x="467" y="438" type="line"/>
      <point x="485" y="524" type="line"/>
      <point x="85" y="524" type="line"/>
      <point x="64" y="426" type="line"/>
      <point x="314" y="426" type="line"/>
      <point x="-20" y="86" type="line"/>
    </contour>
  </outline>
</glyph>
<glyph name="braceleft" format="2">
  <advance width="314"/>
  <unicode hex="007B"/>
  <outline>
    <contour>
      <point x="339" y="627" type="line"/>
      <point x="363" y="740" type="line"/>
      <point x="206" y="740" type="line" smooth="yes"/>
      <point x="200" y="740"/>
      <point x="181" y="728"/>
      <point x="177" y="710" type="qcurve" smooth="yes"/>
      <point x="128" y="477" type="line"/>
      <point x="126" y="466"/>
      <point x="112" y="442"/>
      <point x="95" y="423"/>
      <point x="73" y="410"/>
      <point x="63" y="410" type="qcurve"/>
      <point x="43" y="312" type="line"/>
      <point x="58" y="309"/>
      <point x="79" y="281"/>
      <point x="79" y="260" type="qcurve" smooth="yes"/>
      <point x="79" y="255"/>
      <point x="79" y="248"/>
      <point x="78" y="243" type="qcurve" smooth="yes"/>
      <point x="26" y="-1" type="line"/>
      <point x="25" y="-4"/>
      <point x="25" y="-9"/>
      <point x="25" y="-11" type="qcurve" smooth="yes"/>
      <point x="25" y="-24"/>
      <point x="36" y="-31"/>
      <point x="42" y="-31" type="qcurve" smooth="yes"/>
      <point x="199" y="-31" type="line"/>
      <point x="223" y="82" type="line"/>
      <point x="171" y="82" type="line"/>
      <point x="215" y="290" type="line"/>
      <point x="216" y="294"/>
      <point x="216" y="302"/>
      <point x="216" y="306" type="qcurve" smooth="yes"/>
      <point x="216" y="322"/>
      <point x="204" y="349"/>
      <point x="195" y="360" type="qcurve"/>
      <point x="213" y="374"/>
      <point x="240" y="409"/>
      <point x="244" y="430" type="qcurve"/>
      <point x="287" y="627" type="line"/>
    </contour>
  </outline>
</glyph>
<glyph name="bar" format="2">
  <advance width="331"/>
  <unicode hex="007C"/>
  <outline>
    <contour>
      <point x="230" y="-130" type="line"/>
      <point x="230" y="775" type="line"/>
      <point x="111" y="775" type="line"/>
      <point x="111" y="-130" type="line"/>
    </contour>
  </outline>
</glyph>
<glyph name="braceright" format="2">
  <advance width="316"/>
  <unicode hex="007D"/>
  <outline>
    <contour>
      <point x="170" y="627" type="line"/>
      <point x="128" y="430" type="line"/>
      <point x="126" y="426"/>
      <point x="126" y="418"/>
      <point x="126" y="413" type="qcurve" smooth="yes"/>
      <point x="126" y="397"/>
      <point x="138" y="371"/>
      <point x="146" y="360" type="qcurve"/>
      <point x="129" y="346"/>
      <point x="102" y="311"/>
      <point x="98" y="290" type="qcurve" smooth="yes"/>
      <point x="53" y="82" type="line"/>
      <point x="1" y="82" type="line"/>
      <point x="-23" y="-31" type="line"/>
      <point x="134" y="-31" type="line" smooth="yes"/>
      <point x="140" y="-31"/>
      <point x="159" y="-19"/>
      <point x="163" y="-1" type="qcurve" smooth="yes"/>
      <point x="214" y="243" type="line" smooth="yes"/>
      <point x="220" y="271"/>
      <point x="259" y="308"/>
      <point x="279" y="312" type="qcurve"/>
      <point x="300" y="410" type="line"/>
      <point x="282" y="410"/>
      <point x="262" y="443"/>
      <point x="262" y="463" type="qcurve" smooth="yes"/>
      <point x="262" y="466"/>
      <point x="263" y="473"/>
      <point x="264" y="477" type="qcurve"/>
      <point x="314" y="710" type="line"/>
      <point x="315" y="713"/>
      <point x="315" y="718"/>
      <point x="315" y="720" type="qcurve" smooth="yes"/>
      <point x="315" y="731"/>
      <point x="302" y="740"/>
      <point x="298" y="740" type="qcurve" smooth="yes"/>
      <point x="141" y="740" type="line"/>
      <point x="117" y="627" type="line"/>
    </contour>
  </outline>
</glyph>
<glyph name="asciitilde" format="2">
  <advance width="551"/>
  <unicode hex="007E"/>
  <outline>
    <contour>
      <point x="40" y="226" type="qcurve"/>
      <point x="118" y="226" type="line"/>
      <point x="118" y="227"/>
      <point x="124" y="243"/>
      <point x="139" y="262"/>
      <point x="165" y="278"/>
      <point x="186" y="278" type="qcurve" smooth="yes"/>
      <point x="207" y="278"/>
      <point x="245" y="262"/>
      <point x="284" y="243"/>
      <point x="327" y="226"/>
      <point x="354" y="226" type="qcurve" smooth="yes"/>
      <point x="396" y="226"/>
      <point x="454" y="263"/>
      <point x="491" y="311"/>
      <point x="509" y="354"/>
      <point x="510" y="360" type="qcurve"/>
      <point x="433" y="360" type="line"/>
      <point x="433" y="358"/>
      <point x="426" y="341"/>
      <point x="409" y="323"/>
      <point x="382" y="308"/>
      <point x="361" y="308" type="qcurve" smooth="yes"/>
      <point x="339" y="308"/>
      <point x="301" y="325"/>
      <point x="262" y="345"/>
      <point x="219" y="362"/>
      <point x="192" y="362" type="qcurve" smooth="yes"/>
      <point x="152" y="362"/>
      <point x="96" y="327"/>
      <point x="59" y="281"/>
      <point x="41" y="235"/>
    </contour>
  </outline>
</glyph>
<glyph name="exclamdown" format="2">
  <advance width="295"/>
  <unicode hex="00A1"/>
  <outline>
    <contour>
      <point x="285" y="440" type="qcurve" smooth="yes"/>
      <point x="289" y="459"/>
      <point x="282" y="491"/>
      <point x="263" y="515"/>
      <point x="234" y="529"/>
      <point x="215" y="529" type="qcurve" smooth="yes"/>
      <point x="197" y="529"/>
      <point x="162" y="515"/>
      <point x="132" y="491"/>
      <point x="112" y="459"/>
      <point x="108" y="440" type="qcurve" smooth="yes"/>
      <point x="104" y="422"/>
      <point x="111" y="390"/>
      <point x="130" y="367"/>
      <point x="160" y="352"/>
      <point x="178" y="352" type="qcurve" smooth="yes"/>
      <point x="196" y="352"/>
      <point x="231" y="367"/>
      <point x="261" y="390"/>
      <point x="281" y="422"/>
    </contour>
    <contour>
      <point x="106" y="248" type="line"/>
      <point x="31" y="-7" type="line"/>
      <point x="-9" y="-198" type="line"/>
      <point x="132" y="-198" type="line"/>
      <point x="172" y="-7" type="line"/>
      <point x="206" y="248" type="line"/>
    </contour>
  </outline>
</glyph>
<glyph name="cent" format="2">
  <advance width="575"/>
  <unicode hex="00A2"/>
  <outline>
    <contour>
      <point x="240" y="-120" type="line"/>
      <point x="263" y="-10" type="line"/>
      <point x="287" y="-10"/>
      <point x="352" y="7"/>
      <point x="418" y="41"/>
      <point x="481" y="93"/>
      <point x="502" y="127" type="qcurve"/>
      <point x="373" y="169" type="line"/>
      <point x="367" y="158"/>
      <point x="348" y="140"/>
      <point x="326" y="126"/>
      <point x="301" y="116"/>
      <point x="290" y="113" type="qcurve"/>
      <point x="352" y="409" type="line"/>
      <point x="373" y="407"/>
      <point x="406" y="380"/>
      <point x="412" y="356" type="qcurve"/>
      <point x="558" y="398" type="line"/>
      <point x="540" y="463"/>
      <point x="443" y="530"/>
      <point x="378" y="532" type="qcurve"/>
      <point x="402" y="645" type="line"/>
      <point x="341" y="645" type="line"/>
      <point x="316" y="532" type="line"/>
      <point x="248" y="522"/>
      <point x="141" y="460"/>
      <point x="66" y="373"/>
      <point x="26" y="267"/>
      <point x="26" y="212" type="qcurve" smooth="yes"/>
      <point x="26" y="172"/>
      <point x="50" y="95"/>
      <point x="95" y="34"/>
      <point x="160" y="-6"/>
      <point x="202" y="-9" type="qcurve"/>
      <point x="178" y="-120" type="line"/>
    </contour>
    <contour>
      <point x="173" y="224" type="qcurve" smooth="yes"/>
      <point x="173" y="252"/>
      <point x="190" y="310"/>
      <point x="222" y="360"/>
      <point x="264" y="397"/>
      <point x="289" y="403" type="qcurve"/>
      <point x="228" y="120" type="line"/>
      <point x="215" y="125"/>
      <point x="194" y="145"/>
      <point x="180" y="173"/>
      <point x="173" y="206"/>
    </contour>
  </outline>
</glyph>
<glyph name="sterling" format="2">
  <advance width="530"/>
  <unicode hex="00A3"/>
  <outline>
    <contour>
      <point x="52" y="276" type="line"/>
      <point x="419" y="276" type="line"/>
      <point x="442" y="382" type="line"/>
      <point x="74" y="382" type="line"/>
    </contour>
    <contour>
      <point x="14" y="-9" type="line"/>
      <point x="48" y="2"/>
      <point x="119" y="14"/>
      <point x="144" y="14" type="qcurve" smooth="yes"/>
      <point x="167" y="14"/>
      <point x="211" y="5"/>
      <point x="254" y="-6"/>
      <point x="296" y="-15"/>
      <point x="318" y="-15" type="qcurve" smooth="yes"/>
      <point x="345" y="-15"/>
      <point x="409" y="2"/>
      <point x="434" y="16" type="qcurve"/>
      <point x="422" y="121" type="line"/>
      <point x="401" y="113"/>
      <point x="367" y="105"/>
      <point x="350" y="105" type="qcurve" smooth="yes"/>
      <point x="334" y="105"/>
      <point x="304" y="111"/>
      <point x="274" y="116"/>
      <point x="243" y="122"/>
      <point x="227" y="122" type="qcurve" smooth="yes"/>
      <point x="210" y="122"/>
      <point x="175" y="116"/>
      <point x="151" y="109" type="qcurve"/>
      <point x="187" y="142"/>
      <point x="233" y="196"/>
      <point x="260" y="246"/>
      <point x="271" y="296"/>
      <point x="271" y="324" type="qcurve" smooth="yes"/>
      <point x="271" y="350"/>
      <point x="262" y="398"/>
      <point x="252" y="442"/>
      <point x="244" y="483"/>
      <point x="244" y="502" type="qcurve" smooth="yes"/>
      <point x="244" y="523"/>
      <point x="258" y="559"/>
      <point x="283" y="586"/>
      <point x="318" y="600"/>
      <point x="337" y="600" type="qcurve" smooth="yes"/>
      <point x="371" y="600"/>
      <point x="435" y="557"/>
      <point x="451" y="523" type="qcurve"/>
      <point x="542" y="610" type="line"/>
      <point x="516" y="660"/>
      <point x="421" y="715"/>
      <point x="362" y="715" type="qcurve" smooth="yes"/>
      <point x="315" y="715"/>
      <point x="228" y="682"/>
      <point x="160" y="624"/>
      <point x="119" y="548"/>
      <point x="119" y="503" type="qcurve" smooth="yes"/>
      <point x="119" y="480"/>
      <point x="128" y="432"/>
      <point x="138" y="384"/>
      <point x="147" y="335"/>
      <point x="147" y="310" type="qcurve" smooth="yes"/>
      <point x="147" y="281"/>
      <point x="128" y="224"/>
      <point x="92" y="170"/>
      <point x="40" y="117"/>
      <point x="6" y="92" type="qcurve"/>
    </contour>
  </outline>
</glyph>
<glyph name="currency" format="2">
  <advance width="577"/>
  <unicode hex="00A4"/>
  <outline>
    <contour>
      <point x="121" y="568" type="line"/>
      <point x="64" y="512" type="line"/>
      <point x="132" y="443" type="line"/>
      <point x="117" y="420"/>
      <point x="102" y="366"/>
      <point x="102" y="338" type="qcurve" smooth="yes"/>
      <point x="102" y="308"/>
      <point x="118" y="254"/>
      <point x="133" y="231" type="qcurve"/>
      <point x="64" y="162" type="line"/>
      <point x="116" y="111" type="line"/>
      <point x="188" y="179" type="line"/>
      <point x="211" y="165"/>
      <point x="265" y="150"/>
      <point x="297" y="150" type="qcurve" smooth="yes"/>
      <point x="328" y="150"/>
      <point x="382" y="165"/>
      <point x="403" y="179" type="qcurve"/>
      <point x="476" y="111" type="line"/>
      <point x="527" y="162" type="line"/>
      <point x="459" y="230" type="line"/>
      <point x="475" y="253"/>
      <point x="491" y="308"/>
      <point x="491" y="338" type="qcurve" smooth="yes"/>
      <point x="491" y="367"/>
      <point x="475" y="421"/>
      <point x="460" y="444" type="qcurve"/>
      <point x="527" y="512" type="line"/>
      <point x="471" y="568" type="line"/>
      <point x="401" y="498" type="line"/>
      <point x="379" y="511"/>
      <point x="327" y="525"/>
      <point x="297" y="525" type="qcurve" smooth="yes"/>
      <point x="266" y="525"/>
      <point x="213" y="511"/>
      <point x="191" y="497" type="qcurve"/>
    </contour>
    <contour>
      <point x="206" y="337" type="qcurve" smooth="yes"/>
      <point x="206" y="359"/>
      <point x="220" y="396"/>
      <point x="244" y="422"/>
      <point x="277" y="437"/>
      <point x="297" y="437" type="qcurve" smooth="yes"/>
      <point x="316" y="437"/>
      <point x="349" y="423"/>
      <point x="374" y="397"/>
      <point x="388" y="360"/>
      <point x="388" y="338" type="qcurve" smooth="yes"/>
      <point x="388" y="316"/>
      <point x="374" y="279"/>
      <point x="349" y="253"/>
      <point x="316" y="238"/>
      <point x="297" y="238" type="qcurve" smooth="yes"/>
      <point x="277" y="238"/>
      <point x="244" y="253"/>
      <point x="220" y="278"/>
      <point x="206" y="316"/>
    </contour>
  </outline>
</glyph>
<glyph name="yen" format="2">
  <advance width="690"/>
  <unicode hex="00A5"/>
  <outline>
    <contour>
      <point x="741" y="710" type="line"/>
      <point x="583" y="710" type="line"/>
      <point x="354" y="373" type="line"/>
      <point x="271" y="710" type="line"/>
      <point x="115" y="710" type="line"/>
      <point x="209" y="406" type="line"/>
      <point x="140" y="406" type="line"/>
      <point x="121" y="314" type="line"/>
      <point x="236" y="314" type="line"/>
      <point x="256" y="249" type="line"/>
      <point x="249" y="216" type="line"/>
      <point x="100" y="216" type="line"/>
      <point x="80" y="125" type="line"/>
      <point x="229" y="125" type="line"/>
      <point x="203" y="0" type="line"/>
      <point x="347" y="0" type="line"/>
      <point x="373" y="125" type="line"/>
      <point x="525" y="125" type="line"/>
      <point x="544" y="216" type="line"/>
      <point x="393" y="216" type="line"/>
      <point x="400" y="247" type="line"/>
      <point x="449" y="314" type="line"/>
      <point x="564" y="314" type="line"/>
      <point x="584" y="406" type="line"/>
      <point x="516" y="406" type="line"/>
    </contour>
  </outline>
</glyph>
<glyph name="brokenbar" format="2">
  <advance width="324"/>
  <unicode hex="00A6"/>
  <outline>
    <contour>
      <point x="107" y="263" type="line"/>
      <point x="107" y="-130" type="line"/>
      <point x="227" y="-130" type="line"/>
      <point x="227" y="263" type="line"/>
    </contour>
    <contour>
      <point x="107" y="775" type="line"/>
      <point x="107" y="382" type="line"/>
      <point x="227" y="382" type="line"/>
      <point x="227" y="775" type="line"/>
    </contour>
  </outline>
</glyph>
<glyph name="section" format="2">
  <advance width="517"/>
  <unicode hex="00A7"/>
  <outline>
    <contour>
      <point x="426" y="217" type="qcurve"/>
      <point x="431" y="223"/>
      <point x="445" y="245"/>
      <point x="457" y="275"/>
      <point x="466" y="310"/>
      <point x="466" y="329" type="qcurve" smooth="yes"/>
      <point x="466" y="367"/>
      <point x="434" y="419"/>
      <point x="384" y="452"/>
      <point x="321" y="467"/>
      <point x="290" y="467" type="qcurve"/>
      <point x="265" y="468"/>
      <point x="230" y="486"/>
      <point x="230" y="512" type="qcurve" smooth="yes"/>
      <point x="230" y="530"/>
      <point x="244" y="559"/>
      <point x="268" y="579"/>
      <point x="299" y="590"/>
      <point x="317" y="590" type="qcurve" smooth="yes"/>
      <point x="332" y="590"/>
      <point x="358" y="583"/>
      <point x="378" y="569"/>
      <point x="392" y="550"/>
      <point x="396" y="538" type="qcurve"/>
      <point x="514" y="589" type="line"/>
      <point x="506" y="607"/>
      <point x="480" y="651"/>
      <point x="438" y="689"/>
      <point x="377" y="715"/>
      <point x="334" y="715" type="qcurve" smooth="yes"/>
      <point x="286" y="715"/>
      <point x="196" y="678"/>
      <point x="128" y="617"/>
      <point x="86" y="535"/>
      <point x="86" y="491" type="qcurve" smooth="yes"/>
      <point x="86" y="465"/>
      <point x="96" y="424"/>
      <point x="103" y="414" type="qcurve"/>
      <point x="99" y="408"/>
      <point x="87" y="389"/>
      <point x="75" y="363"/>
      <point x="67" y="329"/>
      <point x="67" y="307" type="qcurve" smooth="yes"/>
      <point x="67" y="277"/>
      <point x="88" y="225"/>
      <point x="129" y="188"/>
      <point x="191" y="165"/>
      <point x="233" y="162" type="qcurve"/>
      <point x="243" y="161"/>
      <point x="263" y="158"/>
      <point x="278" y="149"/>
      <point x="289" y="134"/>
      <point x="289" y="121" type="qcurve" smooth="yes"/>
      <point x="289" y="104"/>
      <point x="273" y="75"/>
      <point x="247" y="56"/>
      <point x="215" y="46"/>
      <point x="198" y="46" type="qcurve" smooth="yes"/>
      <point x="169" y="46"/>
      <point x="120" y="72"/>
      <point x="99" y="104" type="qcurve"/>
      <point x="-10" y="17" type="line"/>
      <point x="-2" y="3"/>
      <point x="30" y="-33"/>
      <point x="76" y="-66"/>
      <point x="138" y="-88"/>
      <point x="176" y="-88" type="qcurve" smooth="yes"/>
      <point x="214" y="-88"/>
      <point x="306" y="-61"/>
      <point x="386" y="-3"/>
      <point x="440" y="89"/>
      <point x="440" y="155" type="qcurve" smooth="yes"/>
      <point x="440" y="175"/>
      <point x="433" y="208"/>
    </contour>
    <contour>
      <point x="202" y="308" type="qcurve" smooth="yes"/>
      <point x="202" y="326"/>
      <point x="217" y="355"/>
      <point x="226" y="362" type="qcurve"/>
      <point x="231" y="360"/>
      <point x="257" y="354"/>
      <point x="271" y="354" type="qcurve" smooth="yes"/>
      <point x="281" y="354"/>
      <point x="301" y="349"/>
      <point x="318" y="338"/>
      <point x="328" y="319"/>
      <point x="328" y="306" type="qcurve" smooth="yes"/>
      <point x="328" y="291"/>
      <point x="314" y="260"/>
      <point x="303" y="252" type="qcurve"/>
      <point x="292" y="257"/>
      <point x="257" y="260"/>
      <point x="225" y="268"/>
      <point x="202" y="287"/>
    </contour>
  </outline>
</glyph>
<glyph name="copyright" format="2">
  <advance width="856"/>
  <unicode hex="00A9"/>
  <outline>
    <contour>
      <point x="436" y="-7" type="qcurve" smooth="yes"/>
      <point x="518" y="-7"/>
      <point x="659" y="48"/>
      <point x="761" y="145"/>
      <point x="818" y="277"/>
      <point x="818" y="355" type="qcurve" smooth="yes"/>
      <point x="818" y="432"/>
      <point x="761" y="564"/>
      <point x="659" y="660"/>
      <point x="518" y="715"/>
      <point x="436" y="715" type="qcurve" smooth="yes"/>
      <point x="356" y="715"/>
      <point x="217" y="660"/>
      <point x="117" y="564"/>
      <point x="61" y="432"/>
      <point x="61" y="355" type="qcurve" smooth="yes"/>
      <point x="61" y="277"/>
      <point x="117" y="145"/>
      <point x="217" y="48"/>
      <point x="356" y="-7"/>
    </contour>
    <contour>
      <point x="436" y="45" type="qcurve" smooth="yes"/>
      <point x="367" y="45"/>
      <point x="250" y="92"/>
      <point x="165" y="176"/>
      <point x="116" y="289"/>
      <point x="116" y="355" type="qcurve" smooth="yes"/>
      <point x="116" y="420"/>
      <point x="165" y="532"/>
      <point x="251" y="616"/>
      <point x="368" y="663"/>
      <point x="436" y="663" type="qcurve" smooth="yes"/>
      <point x="507" y="663"/>
      <point x="626" y="616"/>
      <point x="713" y="532"/>
      <point x="762" y="419"/>
      <point x="762" y="354" type="qcurve" smooth="yes"/>
      <point x="762" y="285"/>
      <point x="712" y="171"/>
      <point x="624" y="90"/>
      <point x="505" y="45"/>
    </contour>
    <contour>
      <point x="445" y="116" type="qcurve" smooth="yes"/>
      <point x="488" y="116"/>
      <point x="560" y="137"/>
      <point x="617" y="174"/>
      <point x="659" y="222"/>
      <point x="671" y="248" type="qcurve"/>
      <point x="534" y="289" type="line"/>
      <point x="527" y="277"/>
      <point x="507" y="257"/>
      <point x="483" y="243"/>
      <point x="457" y="235"/>
      <point x="443" y="235" type="qcurve" smooth="yes"/>
      <point x="423" y="235"/>
      <point x="384" y="251"/>
      <point x="354" y="281"/>
      <point x="335" y="326"/>
      <point x="335" y="354" type="qcurve" smooth="yes"/>
      <point x="335" y="379"/>
      <point x="350" y="423"/>
      <point x="377" y="455"/>
      <point x="417" y="474"/>
      <point x="442" y="474" type="qcurve" smooth="yes"/>
      <point x="454" y="474"/>
      <point x="479" y="468"/>
      <point x="503" y="456"/>
      <point x="523" y="436"/>
      <point x="531" y="422" type="qcurve"/>
      <point x="668" y="464" type="line"/>
      <point x="640" y="523"/>
      <point x="524" y="594"/>
      <point x="443" y="594" type="qcurve" smooth="yes"/>
      <point x="381" y="594"/>
      <point x="286" y="553"/>
      <point x="223" y="486"/>
      <point x="191" y="400"/>
      <point x="191" y="354" type="qcurve" smooth="yes"/>
      <point x="191" y="305"/>
      <point x="227" y="218"/>
      <point x="294" y="153"/>
      <point x="388" y="116"/>
    </contour>
  </outline>
</glyph>
<glyph name="ordfeminine" format="2">
  <advance width="426"/>
  <unicode hex="00AA"/>
  <outline>
    <contour>
      <point x="160" y="338" type="qcurve" smooth="yes"/>
      <point x="195" y="338"/>
      <point x="263" y="371"/>
      <point x="292" y="403" type="qcurve"/>
      <point x="282" y="347" type="line"/>
      <point x="367" y="347" type="line"/>
      <point x="367" y="348"/>
      <point x="374" y="383"/>
      <point x="382" y="425"/>
      <point x="390" y="461"/>
      <point x="390" y="463" type="qcurve"/>
      <point x="411" y="562" type="line"/>
      <point x="413" y="574"/>
      <point x="416" y="595"/>
      <point x="416" y="605" type="qcurve" smooth="yes"/>
      <point x="416" y="659"/>
      <point x="348" y="713"/>
      <point x="285" y="713" type="qcurve" smooth="yes"/>
      <point x="245" y="713"/>
      <point x="169" y="690"/>
      <point x="131" y="667" type="qcurve"/>
      <point x="148" y="602" type="line"/>
      <point x="179" y="622"/>
      <point x="233" y="643"/>
      <point x="261" y="643" type="qcurve" smooth="yes"/>
      <point x="289" y="643"/>
      <point x="316" y="618"/>
      <point x="316" y="595" type="qcurve" smooth="yes"/>
      <point x="316" y="591"/>
      <point x="315" y="580"/>
      <point x="313" y="574" type="qcurve"/>
      <point x="310" y="557" type="line"/>
      <point x="296" y="564"/>
      <point x="259" y="572"/>
      <point x="237" y="572" type="qcurve" smooth="yes"/>
      <point x="201" y="572"/>
      <point x="140" y="551"/>
      <point x="93" y="513"/>
      <point x="67" y="462"/>
      <point x="67" y="431" type="qcurve" smooth="yes"/>
      <point x="67" y="391"/>
      <point x="117" y="338"/>
    </contour>
    <contour>
      <point x="205" y="413" type="qcurve" smooth="yes"/>
      <point x="187" y="413"/>
      <point x="165" y="436"/>
      <point x="165" y="453" type="qcurve" smooth="yes"/>
      <point x="165" y="479"/>
      <point x="210" y="514"/>
      <point x="242" y="514" type="qcurve" smooth="yes"/>
      <point x="256" y="514"/>
      <point x="286" y="508"/>
      <point x="297" y="502" type="qcurve"/>
      <point x="289" y="465" type="line" smooth="yes"/>
      <point x="287" y="455"/>
      <point x="269" y="436"/>
      <point x="245" y="422"/>
      <point x="217" y="413"/>
    </contour>
  </outline>
</glyph>
<glyph name="guillemotleft" format="2">
  <advance width="637"/>
  <unicode hex="00AB"/>
  <outline>
    <contour>
      <point x="18" y="222" type="line"/>
      <point x="234" y="44" type="line"/>
      <point x="258" y="159" type="line"/>
      <point x="137" y="259" type="line"/>
      <point x="303" y="365" type="line"/>
      <point x="327" y="479" type="line"/>
      <point x="33" y="289" type="line"/>
    </contour>
    <contour>
      <point x="310" y="222" type="line"/>
      <point x="526" y="44" type="line"/>
      <point x="550" y="159" type="line"/>
      <point x="429" y="259" type="line"/>
      <point x="594" y="365" type="line"/>
      <point x="618" y="479" type="line"/>
      <point x="324" y="289" type="line"/>
    </contour>
  </outline>
</glyph>
<glyph name="logicalnot" format="2">
  <advance width="594"/>
  <unicode hex="00AC"/>
  <outline>
    <contour>
      <point x="78" y="404" type="line"/>
      <point x="51" y="277" type="line"/>
      <point x="405" y="277" type="line"/>
      <point x="368" y="104" type="line"/>
      <point x="487" y="104" type="line"/>
      <point x="552" y="404" type="line"/>
    </contour>
  </outline>
</glyph>
<glyph name="uni00AD" format="2">
  <advance width="585"/>
  <unicode hex="00AD"/>
  <outline>
    <contour>
      <point x="511" y="211" type="line"/>
      <point x="537" y="338" type="line"/>
      <point x="63" y="338" type="line"/>
      <point x="37" y="211" type="line"/>
    </contour>
  </outline>
</glyph>
<glyph name="registered" format="2">
  <advance width="856"/>
  <unicode hex="00AE"/>
  <outline>
    <contour>
      <point x="438" y="-7" type="qcurve" smooth="yes"/>
      <point x="519" y="-7"/>
      <point x="659" y="48"/>
      <point x="761" y="145"/>
      <point x="818" y="277"/>
      <point x="818" y="355" type="qcurve" smooth="yes"/>
      <point x="818" y="432"/>
      <point x="761" y="564"/>
      <point x="659" y="660"/>
      <point x="519" y="715"/>
      <point x="438" y="715" type="qcurve" smooth="yes"/>
      <point x="356" y="715"/>
      <point x="218" y="660"/>
      <point x="117" y="564"/>
      <point x="61" y="432"/>
      <point x="61" y="355" type="qcurve" smooth="yes"/>
      <point x="61" y="277"/>
      <point x="117" y="145"/>
      <point x="218" y="48"/>
      <point x="356" y="-7"/>
    </contour>
    <contour>
      <point x="438" y="44" type="qcurve" smooth="yes"/>
      <point x="369" y="44"/>
      <point x="251" y="92"/>
      <point x="167" y="176"/>
      <point x="119" y="289"/>
      <point x="119" y="354" type="qcurve" smooth="yes"/>
      <point x="119" y="419"/>
      <point x="167" y="532"/>
      <point x="251" y="616"/>
      <point x="369" y="663"/>
      <point x="438" y="663" type="qcurve" smooth="yes"/>
      <point x="508" y="663"/>
      <point x="625" y="616"/>
      <point x="711" y="532"/>
      <point x="760" y="419"/>
      <point x="760" y="353" type="qcurve" smooth="yes"/>
      <point x="760" y="285"/>
      <point x="710" y="172"/>
      <point x="623" y="89"/>
      <point x="506" y="44"/>
    </contour>
    <contour>
      <point x="275" y="137" type="line"/>
      <point x="375" y="137" type="line"/>
      <point x="375" y="283" type="line"/>
      <point x="432" y="283" type="line"/>
      <point x="524" y="137" type="line"/>
      <point x="635" y="137" type="line"/>
      <point x="533" y="301" type="line"/>
      <point x="550" y="309"/>
      <point x="579" y="336"/>
      <point x="600" y="369"/>
      <point x="611" y="408"/>
      <point x="611" y="428" type="qcurve" smooth="yes"/>
      <point x="611" y="455"/>
      <point x="590" y="508"/>
      <point x="553" y="550"/>
      <point x="501" y="575"/>
      <point x="470" y="575" type="qcurve" smooth="yes"/>
      <point x="275" y="575" type="line"/>
    </contour>
    <contour>
      <point x="375" y="369" type="line"/>
      <point x="375" y="487" type="line"/>
      <point x="459" y="487" type="line" smooth="yes"/>
      <point x="470" y="487"/>
      <point x="489" y="480"/>
      <point x="504" y="465"/>
      <point x="513" y="444"/>
      <point x="513" y="428" type="qcurve" smooth="yes"/>
      <point x="513" y="414"/>
      <point x="505" y="392"/>
      <point x="492" y="377"/>
      <point x="473" y="369"/>
      <point x="462" y="369" type="qcurve" smooth="yes"/>
    </contour>
  </outline>
</glyph>
<glyph name="degree" format="2">
  <advance width="280"/>
  <unicode hex="00B0"/>
  <outline>
    <contour>
      <point x="183" y="515" type="qcurve" smooth="yes"/>
      <point x="209" y="515"/>
      <point x="255" y="534"/>
      <point x="290" y="569"/>
      <point x="310" y="615"/>
      <point x="310" y="642" type="qcurve" smooth="yes"/>
      <point x="310" y="677"/>
      <point x="266" y="724"/>
      <point x="228" y="724" type="qcurve" smooth="yes"/>
      <point x="201" y="724"/>
      <point x="155" y="702"/>
      <point x="121" y="666"/>
      <point x="102" y="620"/>
      <point x="102" y="596" type="qcurve" smooth="yes"/>
      <point x="102" y="559"/>
      <point x="145" y="515"/>
    </contour>
    <contour>
      <point x="198" y="583" type="qcurve" smooth="yes"/>
      <point x="185" y="583"/>
      <point x="170" y="600"/>
      <point x="170" y="613" type="qcurve" smooth="yes"/>
      <point x="170" y="630"/>
      <point x="197" y="656"/>
      <point x="213" y="656" type="qcurve" smooth="yes"/>
      <point x="224" y="656"/>
      <point x="240" y="641"/>
      <point x="240" y="627" type="qcurve" smooth="yes"/>
      <point x="240" y="609"/>
      <point x="213" y="583"/>
    </contour>
  </outline>
</glyph>
<glyph name="plusminus" format="2">
  <advance width="515"/>
  <unicode hex="00B1"/>
  <outline>
    <contour>
      <point x="424" y="25" type="line"/>
      <point x="424" y="138" type="line"/>
      <point x="67" y="138" type="line"/>
      <point x="67" y="25" type="line"/>
    </contour>
    <contour>
      <point x="310" y="434" type="line"/>
      <point x="310" y="559" type="line"/>
      <point x="183" y="559" type="line"/>
      <point x="183" y="434" type="line"/>
      <point x="68" y="434" type="line"/>
      <point x="68" y="322" type="line"/>
      <point x="183" y="322" type="line"/>
      <point x="183" y="197" type="line"/>
      <point x="310" y="197" type="line"/>
      <point x="310" y="322" type="line"/>
      <point x="425" y="322" type="line"/>
      <point x="425" y="434" type="line"/>
    </contour>
  </outline>
</glyph>
<glyph name="twosuperior" format="2">
  <advance width="406"/>
  <unicode hex="00B2"/>
  <outline>
    <contour>
      <point x="382" y="388" type="line"/>
      <point x="401" y="469" type="line"/>
      <point x="200" y="469" type="line"/>
      <point x="202" y="481"/>
      <point x="217" y="502"/>
      <point x="241" y="521"/>
      <point x="275" y="537"/>
      <point x="298" y="544" type="qcurve"/>
      <point x="327" y="554"/>
      <point x="383" y="581"/>
      <point x="425" y="621"/>
      <point x="451" y="675"/>
      <point x="451" y="710" type="qcurve" smooth="yes"/>
      <point x="451" y="759"/>
      <point x="384" y="816"/>
      <point x="318" y="816" type="qcurve" smooth="yes"/>
      <point x="286" y="816"/>
      <point x="226" y="803"/>
      <point x="177" y="783"/>
      <point x="139" y="758"/>
      <point x="129" y="747" type="qcurve"/>
      <point x="167" y="685" type="line"/>
      <point x="177" y="695"/>
      <point x="205" y="714"/>
      <point x="238" y="730"/>
      <point x="276" y="740"/>
      <point x="295" y="740" type="qcurve" smooth="yes"/>
      <point x="326" y="740"/>
      <point x="357" y="713"/>
      <point x="357" y="691" type="qcurve" smooth="yes"/>
      <point x="357" y="668"/>
      <point x="330" y="636"/>
      <point x="288" y="613"/>
      <point x="236" y="593"/>
      <point x="211" y="583" type="qcurve" smooth="yes"/>
      <point x="173" y="567"/>
      <point x="119" y="531"/>
      <point x="81" y="486"/>
      <point x="55" y="427"/>
      <point x="47" y="388" type="qcurve"/>
    </contour>
  </outline>
</glyph>
<glyph name="threesuperior" format="2">
  <advance width="394"/>
  <unicode hex="00B3"/>
  <outline>
    <contour>
      <point x="201" y="381" type="qcurve" smooth="yes"/>
      <point x="239" y="381"/>
      <point x="310" y="398"/>
      <point x="365" y="433"/>
      <point x="399" y="486"/>
      <point x="399" y="522" type="qcurve" smooth="yes"/>
      <point x="399" y="555"/>
      <point x="366" y="606"/>
      <point x="333" y="611" type="qcurve"/>
      <point x="379" y="620"/>
      <point x="433" y="675"/>
      <point x="433" y="716" type="qcurve" smooth="yes"/>
      <point x="433" y="760"/>
      <point x="363" y="816"/>
      <point x="299" y="816" type="qcurve" smooth="yes"/>
      <point x="277" y="816"/>
      <point x="228" y="809"/>
      <point x="182" y="794"/>
      <point x="141" y="772"/>
      <point x="127" y="757" type="qcurve"/>
      <point x="163" y="694" type="line"/>
      <point x="183" y="714"/>
      <point x="241" y="742"/>
      <point x="277" y="742" type="qcurve" smooth="yes"/>
      <point x="299" y="742"/>
      <point x="337" y="723"/>
      <point x="337" y="700" type="qcurve" smooth="yes"/>
      <point x="337" y="686"/>
      <point x="324" y="665"/>
      <point x="296" y="651"/>
      <point x="253" y="644"/>
      <point x="223" y="644" type="qcurve" smooth="yes"/>
      <point x="201" y="644" type="line"/>
      <point x="186" y="570" type="line"/>
      <point x="208" y="570" type="line" smooth="yes"/>
      <point x="262" y="570"/>
      <point x="311" y="546"/>
      <point x="311" y="523" type="qcurve" smooth="yes"/>
      <point x="311" y="508"/>
      <point x="295" y="484"/>
      <point x="269" y="468"/>
      <point x="234" y="459"/>
      <point x="215" y="459" type="qcurve" smooth="yes"/>
      <point x="193" y="459"/>
      <point x="161" y="468"/>
      <point x="137" y="484"/>
      <point x="120" y="503"/>
      <point x="116" y="513" type="qcurve"/>
      <point x="61" y="460" type="line"/>
      <point x="67" y="421"/>
      <point x="145" y="381"/>
    </contour>
  </outline>
</glyph>
<glyph name="uni00B5" format="2">
  <advance width="638"/>
  <unicode hex="00B5"/>
  <outline>
    <contour>
      <point x="-41" y="-213" type="line"/>
      <point x="100" y="-213" type="line"/>
      <point x="146" y="46" type="line"/>
      <point x="148" y="21"/>
      <point x="181" y="-10"/>
      <point x="213" y="-10" type="qcurve" smooth="yes"/>
      <point x="237" y="-10"/>
      <point x="287" y="11"/>
      <point x="333" y="42"/>
      <point x="370" y="79"/>
      <point x="381" y="96" type="qcurve"/>
      <point x="389" y="0" type="line"/>
      <point x="485" y="0" type="line"/>
      <point x="592" y="524" type="line"/>
      <point x="451" y="524" type="line"/>
      <point x="382" y="200" type="line"/>
      <point x="366" y="176"/>
      <point x="331" y="142"/>
      <point x="297" y="120"/>
      <point x="262" y="110"/>
      <point x="247" y="110" type="qcurve" smooth="yes"/>
      <point x="217" y="110"/>
      <point x="187" y="143"/>
      <point x="187" y="177" type="qcurve" smooth="yes"/>
      <point x="187" y="187"/>
      <point x="190" y="211"/>
      <point x="193" y="224" type="qcurve" smooth="yes"/>
      <point x="257" y="524" type="line"/>
      <point x="116" y="524" type="line"/>
    </contour>
  </outline>
</glyph>
<glyph name="paragraph" format="2">
  <advance width="641"/>
  <unicode hex="00B6"/>
  <outline>
    <contour>
      <point x="62" y="394" type="qcurve" smooth="yes"/>
      <point x="62" y="351"/>
      <point x="84" y="282"/>
      <point x="127" y="233"/>
      <point x="189" y="206"/>
      <point x="227" y="205" type="qcurve"/>
      <point x="167" y="-80" type="line"/>
      <point x="286" y="-80" type="line"/>
      <point x="347" y="205" type="line"/>
      <point x="390" y="205" type="line"/>
      <point x="330" y="-80" type="line"/>
      <point x="449" y="-80" type="line"/>
      <point x="595" y="605" type="line"/>
      <point x="661" y="605" type="line"/>
      <point x="684" y="710" type="line"/>
      <point x="393" y="710" type="line" smooth="yes"/>
      <point x="317" y="710"/>
      <point x="194" y="665"/>
      <point x="108" y="582"/>
      <point x="62" y="465"/>
    </contour>
    <contour>
      <point x="181" y="407" type="qcurve" smooth="yes"/>
      <point x="181" y="445"/>
      <point x="201" y="516"/>
      <point x="237" y="570"/>
      <point x="285" y="603"/>
      <point x="313" y="605" type="qcurve"/>
      <point x="250" y="311" type="line"/>
      <point x="235" y="312"/>
      <point x="210" y="326"/>
      <point x="191" y="351"/>
      <point x="181" y="385"/>
    </contour>
    <contour>
      <point x="413" y="311" type="line"/>
      <point x="369" y="311" type="line"/>
      <point x="432" y="605" type="line"/>
      <point x="476" y="605" type="line"/>
    </contour>
  </outline>
</glyph>
<glyph name="onesuperior" format="2">
  <advance width="291"/>
  <unicode hex="00B9"/>
  <outline>
    <contour>
      <point x="240" y="471" type="line"/>
      <point x="314" y="816" type="line"/>
      <point x="230" y="816" type="line"/>
      <point x="230" y="815"/>
      <point x="209" y="797"/>
      <point x="178" y="776"/>
      <point x="143" y="759"/>
      <point x="128" y="759" type="qcurve"/>
      <point x="111" y="676" type="line"/>
      <point x="122" y="676"/>
      <point x="151" y="687"/>
      <point x="180" y="703"/>
      <point x="205" y="720"/>
      <point x="211" y="727" type="qcurve"/>
      <point x="157" y="471" type="line"/>
      <point x="83" y="471" type="line"/>
      <point x="65" y="389" type="line"/>
      <point x="289" y="389" type="line"/>
      <point x="306" y="471" type="line"/>
    </contour>
  </outline>
</glyph>
<glyph name="ordmasculine" format="2">
  <advance width="427"/>
  <unicode hex="00BA"/>
  <outline>
    <contour>
      <point x="220" y="338" type="qcurve" smooth="yes"/>
      <point x="270" y="338"/>
      <point x="352" y="377"/>
      <point x="411" y="440"/>
      <point x="443" y="522"/>
      <point x="443" y="564" type="qcurve" smooth="yes"/>
      <point x="443" y="595"/>
      <point x="425" y="649"/>
      <point x="389" y="690"/>
      <point x="336" y="713"/>
      <point x="300" y="713" type="qcurve" smooth="yes"/>
      <point x="251" y="713"/>
      <point x="169" y="675"/>
      <point x="110" y="612"/>
      <point x="77" y="531"/>
      <point x="77" y="488" type="qcurve" smooth="yes"/>
      <point x="77" y="457"/>
      <point x="95" y="403"/>
      <point x="131" y="362"/>
      <point x="185" y="338"/>
    </contour>
    <contour>
      <point x="239" y="426" type="qcurve" smooth="yes"/>
      <point x="226" y="426"/>
      <point x="205" y="437"/>
      <point x="190" y="456"/>
      <point x="181" y="484"/>
      <point x="181" y="500" type="qcurve" smooth="yes"/>
      <point x="181" y="526"/>
      <point x="198" y="571"/>
      <point x="226" y="606"/>
      <point x="262" y="625"/>
      <point x="281" y="625" type="qcurve" smooth="yes"/>
      <point x="295" y="625"/>
      <point x="316" y="614"/>
      <point x="331" y="594"/>
      <point x="339" y="567"/>
      <point x="339" y="550" type="qcurve" smooth="yes"/>
      <point x="339" y="525"/>
      <point x="322" y="479"/>
      <point x="294" y="446"/>
      <point x="258" y="426"/>
    </contour>
  </outline>
</glyph>
<glyph name="guillemotright" format="2">
  <advance width="637"/>
  <unicode hex="00BB"/>
  <outline>
    <contour>
      <point x="599" y="289" type="line"/>
      <point x="386" y="479" type="line"/>
      <point x="361" y="365" type="line"/>
      <point x="481" y="259" type="line"/>
      <point x="317" y="159" type="line"/>
      <point x="293" y="44" type="line"/>
      <point x="584" y="222" type="line"/>
    </contour>
    <contour>
      <point x="307" y="289" type="line"/>
      <point x="94" y="479" type="line"/>
      <point x="70" y="365" type="line"/>
      <point x="190" y="259" type="line"/>
      <point x="26" y="159" type="line"/>
      <point x="2" y="44" type="line"/>
      <point x="293" y="222" type="line"/>
    </contour>
  </outline>
</glyph>
<glyph name="onehalf" format="2">
  <advance width="893"/>
  <unicode hex="00BD"/>
  <outline>
    <contour>
      <point x="223" y="385" type="line"/>
      <point x="296" y="731" type="line"/>
      <point x="212" y="731" type="line"/>
      <point x="212" y="730"/>
      <point x="191" y="712"/>
      <point x="161" y="691"/>
      <point x="126" y="673"/>
      <point x="111" y="673" type="qcurve"/>
      <point x="93" y="590" type="line"/>
      <point x="105" y="590"/>
      <point x="134" y="601"/>
      <point x="162" y="617"/>
      <point x="187" y="635"/>
      <point x="194" y="641" type="qcurve"/>
      <point x="139" y="385" type="line"/>
      <point x="66" y="385" type="line"/>
      <point x="48" y="303" type="line"/>
      <point x="271" y="303" type="line"/>
      <point x="289" y="385" type="line"/>
    </contour>
    <contour>
      <point x="105" y="-8" type="line"/>
      <point x="431" y="340" type="line"/>
      <point x="760" y="661" type="line"/>
      <point x="708" y="718" type="line"/>
      <point x="391" y="377" type="line"/>
      <point x="53" y="50" type="line"/>
    </contour>
    <contour>
      <point x="792" y="-1" type="line"/>
      <point x="809" y="81" type="line"/>
      <point x="616" y="81" type="line"/>
      <point x="618" y="93"/>
      <point x="632" y="114"/>
      <point x="656" y="132"/>
      <point x="688" y="149"/>
      <point x="710" y="156" type="qcurve" smooth="yes"/>
      <point x="739" y="166"/>
      <point x="792" y="193"/>
      <point x="833" y="233"/>
      <point x="858" y="287"/>
      <point x="858" y="322" type="qcurve" smooth="yes"/>
      <point x="858" y="371"/>
      <point x="794" y="428"/>
      <point x="730" y="428" type="qcurve" smooth="yes"/>
      <point x="699" y="428"/>
      <point x="642" y="415"/>
      <point x="594" y="395"/>
      <point x="558" y="370"/>
      <point x="547" y="359" type="qcurve"/>
      <point x="584" y="297" type="line"/>
      <point x="594" y="307"/>
      <point x="621" y="326"/>
      <point x="653" y="342"/>
      <point x="689" y="352"/>
      <point x="708" y="352" type="qcurve" smooth="yes"/>
      <point x="738" y="352"/>
      <point x="767" y="325"/>
      <point x="767" y="303" type="qcurve" smooth="yes"/>
      <point x="767" y="280"/>
      <point x="741" y="248"/>
      <point x="700" y="225"/>
      <point x="650" y="205"/>
      <point x="626" y="195" type="qcurve" smooth="yes"/>
      <point x="590" y="179"/>
      <point x="537" y="143"/>
      <point x="501" y="97"/>
      <point x="477" y="39"/>
      <point x="468" y="-1" type="qcurve"/>
    </contour>
  </outline>
</glyph>
<glyph name="questiondown" format="2">
  <advance width="472"/>
  <unicode hex="00BF"/>
  <outline>
    <contour>
      <point x="183" y="327" type="curve" smooth="yes"/>
      <point x="169" y="327"/>
      <point x="137" y="322"/>
      <point x="120" y="318" type="curve"/>
      <point x="124" y="255" type="line"/>
      <point x="143" y="260"/>
      <point x="154" y="261"/>
      <point x="168" y="261" type="curve" smooth="yes"/>
      <point x="191" y="261"/>
      <point x="230" y="244"/>
      <point x="224" y="216" type="curve" smooth="yes"/>
      <point x="220" y="199"/>
      <point x="209" y="188"/>
      <point x="183" y="178" type="curve" smooth="yes"/>
      <point x="160" y="169"/>
      <point x="135" y="158"/>
      <point x="111" y="148" type="curve" smooth="yes"/>
      <point x="42" y="118"/>
      <point x="-13" y="76"/>
      <point x="-29" y="-1" type="curve" smooth="yes"/>
      <point x="-54" y="-120"/>
      <point x="11" y="-200"/>
      <point x="133" y="-200" type="curve" smooth="yes"/>
      <point x="227" y="-200"/>
      <point x="318" y="-150"/>
      <point x="368" y="-70" type="curve"/>
      <point x="292" y="-7" type="line"/>
      <point x="251" y="-57"/>
      <point x="205" y="-84"/>
      <point x="163" y="-84" type="curve" smooth="yes"/>
      <point x="112" y="-84"/>
      <point x="81" y="-50"/>
      <point x="91" y="-3" type="curve" smooth="yes"/>
      <point x="96" y="19"/>
      <point x="112" y="37"/>
      <point x="144" y="56" type="curve" smooth="yes"/>
      <point x="164" y="68"/>
      <point x="183" y="77"/>
      <point x="212" y="90" type="curve" smooth="yes"/>
      <point x="236" y="101"/>
      <point x="260" y="112"/>
      <point x="282" y="125" type="curve" smooth="yes"/>
      <point x="322" y="148"/>
      <point x="345" y="176"/>
      <point x="352" y="209" type="curve" smooth="yes"/>
      <point x="372" y="301"/>
      <point x="253" y="327"/>
    </contour>
    <contour>
      <point x="357" y="452" type="curve" smooth="yes"/>
      <point x="367" y="497"/>
      <point x="338" y="534"/>
      <point x="294" y="534" type="curve" smooth="yes"/>
      <point x="251" y="534"/>
      <point x="206" y="497"/>
      <point x="196" y="452" type="curve" smooth="yes"/>
      <point x="187" y="408"/>
      <point x="217" y="371"/>
      <point x="260" y="371" type="curve" smooth="yes"/>
      <point x="303" y="371"/>
      <point x="348" y="408"/>
    </contour>
  </outline>
</glyph>
<glyph name="AE" format="2">
  <advance width="930"/>
  <unicode hex="00C6"/>
  <outline>
    <contour>
      <point x="-80" y="0" type="line"/>
      <point x="74" y="0" type="line"/>
      <point x="203" y="172" type="line"/>
      <point x="413" y="172" type="line"/>
      <point x="376" y="0" type="line"/>
      <point x="832" y="0" type="line"/>
      <point x="859" y="127" type="line"/>
      <point x="547" y="127" type="line"/>
      <point x="583" y="298" type="line"/>
      <point x="836" y="298" type="line"/>
      <point x="863" y="425" type="line"/>
      <point x="610" y="425" type="line"/>
      <point x="643" y="583" type="line"/>
      <point x="947" y="583" type="line"/>
      <point x="975" y="710" type="line"/>
      <point x="489" y="710" type="line"/>
    </contour>
    <contour>
      <point x="291" y="299" type="line"/>
      <point x="481" y="548" type="line"/>
      <point x="429" y="299" type="line"/>
    </contour>
  </outline>
</glyph>
<glyph name="Idieresis" format="2">
  <advance width="317"/>
  <unicode hex="00CF"/>
  <anchor x="254" y="710" name="_top"/>
  <anchor x="295" y="904" name="top"/>
  <outline>
    <component base="I"/>
    <contour>
      <point x="241" y="764" type="line"/>
      <point x="271" y="904" type="line"/>
      <point x="146" y="904" type="line"/>
      <point x="116" y="764" type="line"/>
    </contour>
    <contour>
      <point x="421" y="764" type="line"/>
      <point x="450" y="904" type="line"/>
      <point x="326" y="904" type="line"/>
      <point x="296" y="764" type="line"/>
    </contour>
  </outline>
</glyph>
<glyph name="multiply" format="2">
  <advance width="489"/>
  <unicode hex="00D7"/>
  <outline>
    <contour>
      <point x="325" y="276" type="line"/>
      <point x="420" y="372" type="line"/>
      <point x="333" y="460" type="line"/>
      <point x="237" y="364" type="line"/>
      <point x="141" y="460" type="line"/>
      <point x="52" y="372" type="line"/>
      <point x="148" y="275" type="line"/>
      <point x="48" y="175" type="line"/>
      <point x="135" y="87" type="line"/>
      <point x="236" y="188" type="line"/>
      <point x="337" y="87" type="line"/>
      <point x="426" y="175" type="line"/>
    </contour>
  </outline>
</glyph>
<glyph name="Thorn" format="2">
  <advance width="583"/>
  <unicode hex="00DE"/>
  <outline>
    <contour>
      <point x="8" y="0" type="line"/>
      <point x="153" y="0" type="line"/>
      <point x="176" y="109" type="line"/>
      <point x="308" y="109" type="line" smooth="yes"/>
      <point x="363" y="109"/>
      <point x="460" y="158"/>
      <point x="533" y="237"/>
      <point x="576" y="336"/>
      <point x="576" y="387" type="qcurve" smooth="yes"/>
      <point x="576" y="424"/>
      <point x="553" y="495"/>
      <point x="508" y="550"/>
      <point x="444" y="583"/>
      <point x="403" y="583" type="qcurve" smooth="yes"/>
      <point x="277" y="583" type="line"/>
      <point x="304" y="710" type="line"/>
      <point x="159" y="710" type="line"/>
    </contour>
    <contour>
      <point x="203" y="236" type="line"/>
      <point x="250" y="456" type="line"/>
      <point x="369" y="456" type="line" smooth="yes"/>
      <point x="382" y="456"/>
      <point x="405" y="444"/>
      <point x="421" y="421"/>
      <point x="430" y="390"/>
      <point x="430" y="372" type="qcurve" smooth="yes"/>
      <point x="430" y="346"/>
      <point x="412" y="297"/>
      <point x="384" y="259"/>
      <point x="347" y="236"/>
      <point x="327" y="236" type="qcurve" smooth="yes"/>
    </contour>
  </outline>
</glyph>
<glyph name="germandbls" format="2">
  <advance width="539"/>
  <unicode hex="00DF"/>
  <outline>
    <contour>
      <point x="175" y="-6" type="line"/>
      <point x="234" y="-5"/>
      <point x="350" y="24"/>
      <point x="440" y="86"/>
      <point x="497" y="184"/>
      <point x="497" y="254" type="qcurve" smooth="yes"/>
      <point x="497" y="308"/>
      <point x="449" y="388"/>
      <point x="404" y="403" type="qcurve"/>
      <point x="424" y="411"/>
      <point x="466" y="445"/>
      <point x="498" y="493"/>
      <point x="519" y="549"/>
      <point x="519" y="579" type="qcurve" smooth="yes"/>
      <point x="519" y="642"/>
      <point x="432" y="714"/>
      <point x="361" y="714" type="qcurve" smooth="yes"/>
      <point x="315" y="714"/>
      <point x="230" y="686"/>
      <point x="162" y="635"/>
      <point x="114" y="565"/>
      <point x="105" y="523" type="qcurve" smooth="yes"/>
      <point x="-6" y="0" type="line"/>
      <point x="128" y="0" type="line"/>
      <point x="234" y="498" type="line" smooth="yes"/>
      <point x="238" y="519"/>
      <point x="254" y="554"/>
      <point x="276" y="580"/>
      <point x="305" y="594"/>
      <point x="324" y="594" type="qcurve" smooth="yes"/>
      <point x="346" y="594"/>
      <point x="377" y="567"/>
      <point x="377" y="541" type="qcurve" smooth="yes"/>
      <point x="377" y="525"/>
      <point x="367" y="494"/>
      <point x="346" y="471"/>
      <point x="316" y="456"/>
      <point x="297" y="456" type="qcurve" smooth="yes"/>
      <point x="278" y="456" type="line"/>
      <point x="251" y="329" type="line"/>
      <point x="271" y="329" type="line" smooth="yes"/>
      <point x="286" y="329"/>
      <point x="315" y="318"/>
      <point x="337" y="297"/>
      <point x="349" y="267"/>
      <point x="349" y="248" type="qcurve" smooth="yes"/>
      <point x="349" y="217"/>
      <point x="326" y="170"/>
      <point x="286" y="139"/>
      <point x="233" y="124"/>
      <point x="202" y="123" type="qcurve"/>
    </contour>
  </outline>
</glyph>
<glyph name="ae" format="2">
  <advance width="938"/>
  <unicode hex="00E6"/>
  <outline>
    <contour>
      <point x="200" y="-10" type="qcurve" smooth="yes"/>
      <point x="253" y="-10"/>
      <point x="337" y="39"/>
      <point x="370" y="83" type="qcurve"/>
      <point x="352" y="0" type="line"/>
      <point x="467" y="0" type="line"/>
      <point x="495" y="139" type="line"/>
      <point x="482" y="258" type="line"/>
      <point x="545" y="368" type="line"/>
      <point x="577" y="518" type="line"/>
      <point x="462" y="518" type="line"/>
      <point x="444" y="433" type="line"/>
      <point x="430" y="479"/>
      <point x="356" y="534"/>
      <point x="302" y="534" type="qcurve" smooth="yes"/>
      <point x="246" y="534"/>
      <point x="142" y="481"/>
      <point x="62" y="390"/>
      <point x="14" y="271"/>
      <point x="14" y="204" type="qcurve" smooth="yes"/>
      <point x="14" y="159"/>
      <point x="40" y="80"/>
      <point x="87" y="22"/>
      <point x="156" y="-10"/>
    </contour>
    <contour>
      <point x="262" y="110" type="qcurve" smooth="yes"/>
      <point x="239" y="110"/>
      <point x="202" y="127"/>
      <point x="177" y="159"/>
      <point x="163" y="202"/>
      <point x="163" y="227" type="qcurve" smooth="yes"/>
      <point x="163" y="261"/>
      <point x="189" y="328"/>
      <point x="233" y="381"/>
      <point x="290" y="414"/>
      <point x="320" y="414" type="qcurve" smooth="yes"/>
      <point x="340" y="414"/>
      <point x="373" y="399"/>
      <point x="398" y="373"/>
      <point x="415" y="336"/>
      <point x="419" y="313" type="qcurve"/>
      <point x="393" y="193" type="line"/>
      <point x="380" y="175"/>
      <point x="349" y="144"/>
      <point x="316" y="122"/>
      <point x="280" y="110"/>
    </contour>
    <contour>
      <point x="616" y="-10" type="qcurve" smooth="yes"/>
      <point x="655" y="-10"/>
      <point x="732" y="10"/>
      <point x="801" y="47"/>
      <point x="860" y="97"/>
      <point x="880" y="127" type="qcurve"/>
      <point x="768" y="162" type="line"/>
      <point x="759" y="146"/>
      <point x="730" y="120"/>
      <point x="697" y="102"/>
      <point x="661" y="92"/>
      <point x="641" y="92" type="qcurve" smooth="yes"/>
      <point x="616" y="92"/>
      <point x="580" y="109"/>
      <point x="557" y="139"/>
      <point x="545" y="181"/>
      <point x="545" y="207" type="qcurve" smooth="yes"/>
      <point x="545" y="247"/>
      <point x="567" y="328"/>
      <point x="610" y="392"/>
      <point x="672" y="432"/>
      <point x="711" y="432" type="qcurve" smooth="yes"/>
      <point x="728" y="432"/>
      <point x="756" y="424"/>
      <point x="776" y="410"/>
      <point x="786" y="390"/>
      <point x="786" y="376" type="qcurve" smooth="yes"/>
      <point x="786" y="359"/>
      <point x="769" y="333"/>
      <point x="729" y="314"/>
      <point x="664" y="305"/>
      <point x="617" y="305" type="qcurve" smooth="yes"/>
      <point x="589" y="305"/>
      <point x="534" y="308"/>
      <point x="508" y="311" type="qcurve"/>
      <point x="484" y="223" type="line"/>
      <point x="518" y="219"/>
      <point x="586" y="216"/>
      <point x="616" y="216" type="qcurve" smooth="yes"/>
      <point x="770" y="216"/>
      <point x="921" y="302"/>
      <point x="921" y="386" type="qcurve" smooth="yes"/>
      <point x="921" y="422"/>
      <point x="894" y="477"/>
      <point x="845" y="514"/>
      <point x="775" y="534"/>
      <point x="732" y="534" type="qcurve" smooth="yes"/>
      <point x="662" y="534"/>
      <point x="551" y="482"/>
      <point x="474" y="394"/>
      <point x="433" y="278"/>
      <point x="433" y="212" type="qcurve" smooth="yes"/>
      <point x="433" y="163"/>
      <point x="453" y="82"/>
      <point x="496" y="23"/>
      <point x="566" y="-10"/>
    </contour>
  </outline>
</glyph>
<glyph name="idieresis" format="2">
  <advance width="286"/>
  <unicode hex="00EF"/>
  <anchor x="116" y="526" name="_top"/>
  <anchor x="158" y="721" name="top"/>
  <outline>
    <component base="dotlessi"/>
    <contour>
      <point x="76" y="651" type="curve" smooth="yes"/>
      <point x="65" y="599"/>
      <point x="84" y="557"/>
      <point x="119" y="557" type="curve" smooth="yes"/>
      <point x="154" y="557"/>
      <point x="191" y="599"/>
      <point x="202" y="651" type="curve" smooth="yes"/>
      <point x="213" y="703"/>
      <point x="194" y="745"/>
      <point x="159" y="745" type="curve" smooth="yes"/>
      <point x="124" y="745"/>
      <point x="87" y="703"/>
    </contour>
    <contour>
      <point x="231" y="651" type="curve" smooth="yes"/>
      <point x="220" y="599"/>
      <point x="239" y="557"/>
      <point x="274" y="557" type="curve" smooth="yes"/>
      <point x="309" y="557"/>
      <point x="346" y="599"/>
      <point x="357" y="651" type="curve" smooth="yes"/>
      <point x="368" y="703"/>
      <point x="349" y="745"/>
      <point x="314" y="745" type="curve" smooth="yes"/>
      <point x="279" y="745"/>
      <point x="242" y="703"/>
    </contour>
  </outline>
</glyph>
<glyph name="eth" format="2">
  <advance width="593"/>
  <unicode hex="00F0"/>
  <outline>
    <contour>
      <point x="568" y="376" type="qcurve" smooth="yes"/>
      <point x="568" y="426"/>
      <point x="548" y="530"/>
      <point x="506" y="624"/>
      <point x="444" y="704"/>
      <point x="401" y="730" type="qcurve"/>
      <point x="224" y="730" type="line"/>
      <point x="272" y="699"/>
      <point x="343" y="636"/>
      <point x="392" y="568"/>
      <point x="422" y="499"/>
      <point x="428" y="462" type="qcurve" smooth="yes"/>
      <point x="431" y="446"/>
      <point x="434" y="415"/>
      <point x="435" y="398" type="qcurve"/>
      <point x="415" y="432"/>
      <point x="342" y="472"/>
      <point x="296" y="472" type="qcurve" smooth="yes"/>
      <point x="241" y="472"/>
      <point x="138" y="426"/>
      <point x="59" y="350"/>
      <point x="11" y="248"/>
      <point x="11" y="191" type="qcurve" smooth="yes"/>
      <point x="11" y="148"/>
      <point x="41" y="74"/>
      <point x="98" y="20"/>
      <point x="178" y="-10"/>
      <point x="226" y="-10" type="qcurve" smooth="yes"/>
      <point x="298" y="-10"/>
      <point x="421" y="45"/>
      <point x="514" y="146"/>
      <point x="568" y="288"/>
    </contour>
    <contour>
      <point x="157" y="209" type="qcurve" smooth="yes"/>
      <point x="157" y="240"/>
      <point x="181" y="295"/>
      <point x="223" y="335"/>
      <point x="278" y="359"/>
      <point x="308" y="359" type="qcurve" smooth="yes"/>
      <point x="330" y="359"/>
      <point x="365" y="345"/>
      <point x="390" y="318"/>
      <point x="404" y="282"/>
      <point x="404" y="261" type="qcurve" smooth="yes"/>
      <point x="404" y="231"/>
      <point x="379" y="175"/>
      <point x="338" y="134"/>
      <point x="283" y="110"/>
      <point x="253" y="110" type="qcurve" smooth="yes"/>
      <point x="231" y="110"/>
      <point x="196" y="124"/>
      <point x="171" y="152"/>
      <point x="157" y="188"/>
    </contour>
    <contour>
      <point x="556" y="712" type="line"/>
      <point x="431" y="648" type="line"/>
      <point x="388" y="636" type="line"/>
      <point x="270" y="575" type="line"/>
      <point x="299" y="521" type="line"/>
      <point x="418" y="583" type="line"/>
      <point x="465" y="596" type="line"/>
      <point x="585" y="658" type="line"/>
    </contour>
  </outline>
</glyph>
<glyph name="divide" format="2">
  <advance width="485"/>
  <unicode hex="00F7"/>
  <outline>
    <contour>
      <point x="445" y="235" type="line"/>
      <point x="445" y="385" type="line"/>
      <point x="41" y="385" type="line"/>
      <point x="41" y="235" type="line"/>
    </contour>
    <contour>
      <point x="150" y="94" type="curve" smooth="yes"/>
      <point x="150" y="42"/>
      <point x="192" y="0"/>
      <point x="244" y="0" type="curve" smooth="yes"/>
      <point x="296" y="0"/>
      <point x="338" y="42"/>
      <point x="338" y="94" type="curve" smooth="yes"/>
      <point x="338" y="146"/>
      <point x="296" y="188"/>
      <point x="244" y="188" type="curve" smooth="yes"/>
      <point x="192" y="188"/>
      <point x="150" y="146"/>
    </contour>
    <contour>
      <point x="150" y="526" type="curve" smooth="yes"/>
      <point x="150" y="474"/>
      <point x="192" y="432"/>
      <point x="244" y="432" type="curve" smooth="yes"/>
      <point x="296" y="432"/>
      <point x="338" y="474"/>
      <point x="338" y="526" type="curve" smooth="yes"/>
      <point x="338" y="578"/>
      <point x="296" y="620"/>
      <point x="244" y="620" type="curve" smooth="yes"/>
      <point x="192" y="620"/>
      <point x="150" y="578"/>
    </contour>
  </outline>
</glyph>
<glyph name="oslash" format="2">
  <advance width="587"/>
  <unicode hex="00F8"/>
  <outline>
    <contour>
      <point x="228" y="-10" type="qcurve" smooth="yes"/>
      <point x="300" y="-10"/>
      <point x="421" y="45"/>
      <point x="508" y="136"/>
      <point x="557" y="253"/>
      <point x="557" y="315" type="qcurve" smooth="yes"/>
      <point x="557" y="360"/>
      <point x="530" y="439"/>
      <point x="476" y="499"/>
      <point x="396" y="534"/>
      <point x="343" y="534" type="qcurve" smooth="yes"/>
      <point x="271" y="534"/>
      <point x="151" y="479"/>
      <point x="63" y="388"/>
      <point x="14" y="271"/>
      <point x="14" y="209" type="qcurve" smooth="yes"/>
      <point x="14" y="164"/>
      <point x="41" y="85"/>
      <point x="95" y="25"/>
      <point x="175" y="-10"/>
    </contour>
    <contour>
      <point x="253" y="110" type="qcurve" smooth="yes"/>
      <point x="232" y="110"/>
      <point x="198" y="126"/>
      <point x="174" y="157"/>
      <point x="161" y="200"/>
      <point x="161" y="226" type="qcurve" smooth="yes"/>
      <point x="161" y="264"/>
      <point x="187" y="333"/>
      <point x="231" y="384"/>
      <point x="288" y="414"/>
      <point x="317" y="414" type="qcurve" smooth="yes"/>
      <point x="339" y="414"/>
      <point x="373" y="397"/>
      <point x="397" y="366"/>
      <point x="410" y="323"/>
      <point x="410" y="297" type="qcurve" smooth="yes"/>
      <point x="410" y="258"/>
      <point x="383" y="190"/>
      <point x="340" y="139"/>
      <point x="283" y="110"/>
    </contour>
    <contour>
      <point x="-21" y="-4" type="line"/>
      <point x="57" y="-4" type="line"/>
      <point x="151" y="85" type="line"/>
      <point x="118" y="127" type="line"/>
    </contour>
    <contour>
      <point x="160" y="97" type="line"/>
      <point x="453" y="405" type="line"/>
      <point x="414" y="436" type="line"/>
      <point x="131" y="135" type="line"/>
    </contour>
    <contour>
      <point x="466" y="414" type="line"/>
      <point x="587" y="528" type="line"/>
      <point x="508" y="528" type="line"/>
      <point x="423" y="447" type="line"/>
    </contour>
  </outline>
</glyph>
<glyph name="Dcroat" format="2">
  <advance width="697"/>
  <unicode hex="0110"/>
  <outline>
    <contour>
      <point x="35" y="304" type="line"/>
      <point x="349" y="304" type="line"/>
      <point x="371" y="410" type="line"/>
      <point x="57" y="410" type="line"/>
    </contour>
    <contour>
      <point x="13" y="0" type="line"/>
      <point x="262" y="0" type="line" smooth="yes"/>
      <point x="352" y="0"/>
      <point x="506" y="65"/>
      <point x="619" y="182"/>
      <point x="682" y="341"/>
      <point x="682" y="435" type="qcurve" smooth="yes"/>
      <point x="682" y="492"/>
      <point x="650" y="593"/>
      <point x="583" y="667"/>
      <point x="482" y="710"/>
      <point x="413" y="710" type="qcurve" smooth="yes"/>
      <point x="164" y="710" type="line"/>
    </contour>
    <contour>
      <point x="184" y="127" type="line"/>
      <point x="282" y="583" type="line"/>
      <point x="386" y="583" type="line" smooth="yes"/>
      <point x="422" y="583"/>
      <point x="477" y="558"/>
      <point x="514" y="513"/>
      <point x="533" y="451"/>
      <point x="533" y="414" type="qcurve" smooth="yes"/>
      <point x="533" y="357"/>
      <point x="498" y="253"/>
      <point x="434" y="173"/>
      <point x="344" y="127"/>
      <point x="289" y="127" type="qcurve" smooth="yes"/>
    </contour>
  </outline>
</glyph>
<glyph name="Hbar" format="2">
  <advance width="726"/>
  <unicode hex="0126"/>
  <outline>
    <contour>
      <point x="80" y="543" type="line"/>
      <point x="750" y="543" type="line"/>
      <point x="764" y="611" type="line"/>
      <point x="95" y="611" type="line"/>
    </contour>
    <contour>
      <point x="12" y="0" type="line"/>
      <point x="157" y="0" type="line"/>
      <point x="221" y="300" type="line"/>
      <point x="506" y="300" type="line"/>
      <point x="443" y="0" type="line"/>
      <point x="587" y="0" type="line"/>
      <point x="738" y="710" type="line"/>
      <point x="594" y="710" type="line"/>
      <point x="533" y="426" type="line"/>
      <point x="248" y="426" type="line"/>
      <point x="308" y="710" type="line"/>
      <point x="163" y="710" type="line"/>
    </contour>
  </outline>
</glyph>
<glyph name="hbar" format="2">
  <advance width="601"/>
  <unicode hex="0127"/>
  <outline>
    <component base="h"/>
    <contour>
      <point x="61" y="579" type="line"/>
      <point x="386" y="579" type="line"/>
      <point x="409" y="688" type="line"/>
      <point x="84" y="688" type="line"/>
    </contour>
  </outline>
</glyph>
<glyph name="dotlessi" format="2">
  <advance width="257"/>
  <unicode hex="0131"/>
  <outline>
    <contour>
      <point x="-6" y="0" type="line"/>
      <point x="135" y="0" type="line"/>
      <point x="247" y="524" type="line"/>
      <point x="106" y="524" type="line"/>
    </contour>
  </outline>
</glyph>
<glyph name="kgreenlandic" format="2">
  <advance width="542"/>
  <unicode hex="0138"/>
  <outline>
    <contour>
      <point x="-6" y="0" type="line"/>
      <point x="135" y="0" type="line"/>
      <point x="168" y="155" type="line"/>
      <point x="243" y="222" type="line"/>
      <point x="332" y="0" type="line"/>
      <point x="482" y="0" type="line"/>
      <point x="349" y="300" type="line"/>
      <point x="579" y="524" type="line"/>
      <point x="429" y="524" type="line"/>
      <point x="197" y="292" type="line"/>
      <point x="247" y="524" type="line"/>
      <point x="106" y="524" type="line"/>
    </contour>
  </outline>
</glyph>
<glyph name="Lslash" format="2">
  <advance width="569"/>
  <unicode hex="0141"/>
  <outline>
    <contour>
      <point x="20" y="243" type="line"/>
      <point x="385" y="449" type="line"/>
      <point x="368" y="525" type="line"/>
      <point x="2" y="319" type="line"/>
    </contour>
    <contour>
      <point x="8" y="0" type="line"/>
      <point x="487" y="0" type="line"/>
      <point x="514" y="127" type="line"/>
      <point x="180" y="127" type="line"/>
      <point x="304" y="710" type="line"/>
      <point x="159" y="710" type="line"/>
    </contour>
  </outline>
</glyph>
<glyph name="lslash" format="2">
  <advance width="349"/>
  <unicode hex="0142"/>
  <outline>
    <contour>
      <point x="27" y="267" type="line"/>
      <point x="368" y="449" type="line"/>
      <point x="350" y="525" type="line"/>
      <point x="9" y="343" type="line"/>
    </contour>
    <contour>
      <point x="156" y="-9" type="qcurve" smooth="yes"/>
      <point x="187" y="-9"/>
      <point x="261" y="7"/>
      <point x="292" y="19" type="qcurve"/>
      <point x="296" y="126" type="line"/>
      <point x="283" y="120"/>
      <point x="253" y="113"/>
      <point x="242" y="113" type="qcurve" smooth="yes"/>
      <point x="222" y="113"/>
      <point x="202" y="133"/>
      <point x="202" y="153" type="qcurve" smooth="yes"/>
      <point x="202" y="159"/>
      <point x="204" y="174"/>
      <point x="207" y="183" type="qcurve"/>
      <point x="323" y="730" type="line"/>
      <point x="182" y="730" type="line"/>
      <point x="53" y="123" type="line" smooth="yes"/>
      <point x="51" y="113"/>
      <point x="49" y="94"/>
      <point x="49" y="85" type="qcurve" smooth="yes"/>
      <point x="49" y="40"/>
      <point x="104" y="-9"/>
    </contour>
  </outline>
</glyph>
<glyph name="Eng" format="2">
  <advance width="718"/>
  <unicode hex="014A"/>
  <outline>
    <contour>
      <point x="360" y="-198" type="qcurve" smooth="yes"/>
      <point x="397" y="-198"/>
      <point x="468" y="-171"/>
      <point x="527" y="-121"/>
      <point x="571" y="-50"/>
      <point x="580" y="-7" type="qcurve" smooth="yes"/>
      <point x="732" y="709" type="line"/>
      <point x="588" y="709" type="line"/>
      <point x="493" y="264" type="line"/>
      <point x="270" y="710" type="line"/>
      <point x="159" y="710" type="line"/>
      <point x="8" y="0" type="line"/>
      <point x="153" y="0" type="line"/>
      <point x="246" y="438" type="line"/>
      <point x="447" y="30" type="line"/>
      <point x="438" y="-13" type="line" smooth="yes"/>
      <point x="435" y="-26"/>
      <point x="422" y="-50"/>
      <point x="403" y="-66"/>
      <point x="380" y="-76"/>
      <point x="369" y="-76" type="qcurve" smooth="yes"/>
      <point x="354" y="-76"/>
      <point x="328" y="-65"/>
      <point x="321" y="-54" type="qcurve"/>
      <point x="241" y="-150" type="line"/>
      <point x="263" y="-174"/>
      <point x="324" y="-198"/>
    </contour>
  </outline>
</glyph>
<glyph name="eng" format="2">
  <advance width="584"/>
  <unicode hex="014B"/>
  <outline>
    <contour>
      <point x="246" y="-198" type="qcurve" smooth="yes"/>
      <point x="283" y="-198"/>
      <point x="355" y="-169"/>
      <point x="414" y="-117"/>
      <point x="457" y="-45"/>
      <point x="466" y="-2" type="qcurve" smooth="yes"/>
      <point x="537" y="330" type="line" smooth="yes"/>
      <point x="541" y="351"/>
      <point x="547" y="393"/>
      <point x="547" y="414" type="qcurve" smooth="yes"/>
      <point x="547" y="439"/>
      <point x="536" y="482"/>
      <point x="509" y="515"/>
      <point x="464" y="534"/>
      <point x="430" y="534" type="qcurve" smooth="yes"/>
      <point x="398" y="534"/>
      <point x="336" y="520"/>
      <point x="280" y="492"/>
      <point x="232" y="454"/>
      <point x="213" y="430" type="qcurve"/>
      <point x="233" y="524" type="line"/>
      <point x="106" y="524" type="line"/>
      <point x="-6" y="0" type="line"/>
      <point x="135" y="0" type="line"/>
      <point x="200" y="305" type="line"/>
      <point x="212" y="328"/>
      <point x="246" y="366"/>
      <point x="284" y="394"/>
      <point x="323" y="409"/>
      <point x="341" y="409" type="qcurve" smooth="yes"/>
      <point x="366" y="409"/>
      <point x="395" y="378"/>
      <point x="395" y="344" type="qcurve" smooth="yes"/>
      <point x="395" y="333"/>
      <point x="393" y="309"/>
      <point x="389" y="294" type="qcurve"/>
      <point x="324" y="-13" type="line" smooth="yes"/>
      <point x="321" y="-26"/>
      <point x="307" y="-50"/>
      <point x="288" y="-66"/>
      <point x="266" y="-76"/>
      <point x="255" y="-76" type="qcurve" smooth="yes"/>
      <point x="240" y="-76"/>
      <point x="214" y="-65"/>
      <point x="206" y="-54" type="qcurve"/>
      <point x="126" y="-150" type="line"/>
      <point x="148" y="-174"/>
      <point x="209" y="-198"/>
    </contour>
  </outline>
</glyph>
<glyph name="OE" format="2">
  <advance width="1025"/>
  <unicode hex="0152"/>
  <outline>
    <contour>
      <point x="288" y="-5" type="qcurve" smooth="yes"/>
      <point x="316" y="-5"/>
      <point x="371" y="11"/>
      <point x="422" y="38"/>
      <point x="471" y="75"/>
      <point x="491" y="97" type="qcurve"/>
      <point x="470" y="0" type="line"/>
      <point x="928" y="0" type="line"/>
      <point x="955" y="127" type="line"/>
      <point x="642" y="127" type="line"/>
      <point x="679" y="298" type="line"/>
      <point x="931" y="298" type="line"/>
      <point x="958" y="425" type="line"/>
      <point x="706" y="425" type="line"/>
      <point x="739" y="583" type="line"/>
      <point x="1043" y="583" type="line"/>
      <point x="1070" y="710" type="line"/>
      <point x="621" y="710" type="line"/>
      <point x="601" y="614" type="line"/>
      <point x="590" y="636"/>
      <point x="559" y="673"/>
      <point x="520" y="700"/>
      <point x="472" y="715"/>
      <point x="444" y="715" type="qcurve" smooth="yes"/>
      <point x="365" y="715"/>
      <point x="217" y="643"/>
      <point x="104" y="523"/>
      <point x="36" y="369"/>
      <point x="36" y="288" type="qcurve" smooth="yes"/>
      <point x="36" y="231"/>
      <point x="69" y="125"/>
      <point x="133" y="44"/>
      <point x="228" y="-5"/>
    </contour>
    <contour>
      <point x="317" y="124" type="qcurve" smooth="yes"/>
      <point x="283" y="124"/>
      <point x="233" y="153"/>
      <point x="200" y="200"/>
      <point x="183" y="263"/>
      <point x="183" y="299" type="qcurve" smooth="yes"/>
      <point x="183" y="348"/>
      <point x="217" y="450"/>
      <point x="279" y="533"/>
      <point x="364" y="586"/>
      <point x="415" y="586" type="qcurve" smooth="yes"/>
      <point x="448" y="586"/>
      <point x="497" y="557"/>
      <point x="531" y="510"/>
      <point x="548" y="447"/>
      <point x="548" y="411" type="qcurve" smooth="yes"/>
      <point x="548" y="362"/>
      <point x="514" y="261"/>
      <point x="453" y="177"/>
      <point x="368" y="124"/>
    </contour>
  </outline>
</glyph>
<glyph name="Tbar" format="2">
  <advance width="619"/>
  <unicode hex="0166"/>
  <outline>
    <contour>
      <point x="63" y="307" type="line"/>
      <point x="556" y="307" type="line"/>
      <point x="571" y="376" type="line"/>
      <point x="78" y="376" type="line"/>
    </contour>
    <contour>
      <point x="173" y="0" type="line"/>
      <point x="317" y="0" type="line"/>
      <point x="441" y="583" type="line"/>
      <point x="650" y="583" type="line"/>
      <point x="677" y="710" type="line"/>
      <point x="113" y="710" type="line"/>
      <point x="86" y="583" type="line"/>
      <point x="296" y="583" type="line"/>
    </contour>
  </outline>
</glyph>
<glyph name="tbar" format="2">
  <advance width="417"/>
  <unicode hex="0167"/>
  <outline>
    <component base="t"/>
    <contour>
      <point x="9" y="227" type="line"/>
      <point x="336" y="227" type="line"/>
      <point x="359" y="336" type="line"/>
      <point x="32" y="336" type="line"/>
    </contour>
  </outline>
</glyph>
<glyph name="Schwa" format="2">
  <advance width="720"/>
  <unicode hex="018F"/>
  <outline>
    <contour>
      <point x="289" y="-5" type="qcurve" smooth="yes"/>
      <point x="378" y="-5"/>
      <point x="531" y="70"/>
      <point x="643" y="192"/>
      <point x="707" y="346"/>
      <point x="707" y="424" type="qcurve" smooth="yes"/>
      <point x="707" y="481"/>
      <point x="673" y="586"/>
      <point x="606" y="666"/>
      <point x="508" y="714"/>
      <point x="444" y="714" type="qcurve" smooth="yes"/>
      <point x="392" y="714"/>
      <point x="294" y="687"/>
      <point x="206" y="639"/>
      <point x="132" y="571"/>
      <point x="104" y="529" type="qcurve"/>
      <point x="242" y="481" type="line"/>
      <point x="254" y="505"/>
      <point x="291" y="543"/>
      <point x="337" y="570"/>
      <point x="389" y="586"/>
      <point x="414" y="586" type="qcurve" smooth="yes"/>
      <point x="444" y="586"/>
      <point x="494" y="565"/>
      <point x="530" y="526"/>
      <point x="551" y="469"/>
      <point x="551" y="433" type="qcurve" smooth="yes"/>
      <point x="551" y="425"/>
      <point x="550" y="410"/>
      <point x="549" y="402" type="qcurve"/>
      <point x="45" y="402" type="line"/>
      <point x="38" y="385"/>
      <point x="21" y="326"/>
      <point x="21" y="283" type="qcurve" smooth="yes"/>
      <point x="21" y="228"/>
      <point x="55" y="124"/>
      <point x="123" y="44"/>
      <point x="223" y="-5"/>
    </contour>
    <contour>
      <point x="319" y="122" type="qcurve" smooth="yes"/>
      <point x="285" y="122"/>
      <point x="230" y="142"/>
      <point x="191" y="177"/>
      <point x="170" y="226"/>
      <point x="170" y="254" type="qcurve" smooth="yes"/>
      <point x="170" y="263"/>
      <point x="171" y="281"/>
      <point x="174" y="290" type="qcurve"/>
      <point x="524" y="290" type="line"/>
      <point x="512" y="253"/>
      <point x="470" y="191"/>
      <point x="417" y="147"/>
      <point x="353" y="122"/>
    </contour>
  </outline>
</glyph>
<glyph name="florin" format="2">
  <advance width="529"/>
  <unicode hex="0192"/>
  <outline>
    <contour>
      <point x="53" y="-198" type="qcurve" smooth="yes"/>
      <point x="91" y="-198"/>
      <point x="162" y="-170"/>
      <point x="220" y="-121"/>
      <point x="263" y="-51"/>
      <point x="272" y="-9" type="qcurve" smooth="yes"/>
      <point x="350" y="356" type="line"/>
      <point x="468" y="356" type="line"/>
      <point x="491" y="463" type="line"/>
      <point x="372" y="463" type="line"/>
      <point x="387" y="532" type="line" smooth="yes"/>
      <point x="397" y="576"/>
      <point x="437" y="621"/>
      <point x="467" y="621" type="qcurve" smooth="yes"/>
      <point x="483" y="621"/>
      <point x="520" y="611"/>
      <point x="532" y="603" type="qcurve"/>
      <point x="581" y="709" type="line"/>
      <point x="553" y="724"/>
      <point x="492" y="740"/>
      <point x="461" y="740" type="qcurve" smooth="yes"/>
      <point x="422" y="740"/>
      <point x="353" y="710"/>
      <point x="296" y="655"/>
      <point x="256" y="576"/>
      <point x="245" y="527" type="qcurve" smooth="yes"/>
      <point x="232" y="463" type="line"/>
      <point x="168" y="463" type="line"/>
      <point x="145" y="356" type="line"/>
      <point x="209" y="356" type="line"/>
      <point x="130" y="-13" type="line" smooth="yes"/>
      <point x="127" y="-26"/>
      <point x="114" y="-50"/>
      <point x="96" y="-66"/>
      <point x="73" y="-76"/>
      <point x="62" y="-76" type="qcurve" smooth="yes"/>
      <point x="48" y="-76"/>
      <point x="21" y="-65"/>
      <point x="13" y="-54" type="qcurve"/>
      <point x="-67" y="-150" type="line"/>
      <point x="-45" y="-174"/>
      <point x="17" y="-198"/>
    </contour>
  </outline>
</glyph>
<glyph name="Aringacute" format="2">
  <advance width="644"/>
  <unicode hex="01FA"/>
  <outline>
    <contour>
      <point x="-54" y="0" type="line"/>
      <point x="95" y="0" type="line"/>
      <point x="187" y="172" type="line"/>
      <point x="409" y="172" type="line"/>
      <point x="429" y="0" type="line"/>
      <point x="578" y="0" type="line"/>
      <point x="478" y="710" type="line"/>
      <point x="348" y="710" type="line"/>
    </contour>
    <contour>
      <point x="232" y="273" type="line"/>
      <point x="378" y="545" type="line"/>
      <point x="406" y="273" type="line"/>
    </contour>
    <contour>
      <point x="617" y="964" type="line"/>
      <point x="479" y="964" type="line"/>
      <point x="394" y="812" type="line"/>
      <point x="472" y="812" type="line"/>
    </contour>
    <contour>
      <point x="324" y="747" type="qcurve" smooth="yes"/>
      <point x="324" y="716"/>
      <point x="368" y="684"/>
      <point x="407" y="684" type="qcurve" smooth="yes"/>
      <point x="458" y="684"/>
      <point x="523" y="733"/>
      <point x="523" y="777" type="qcurve" smooth="yes"/>
      <point x="523" y="808"/>
      <point x="479" y="840"/>
      <point x="440" y="840" type="qcurve" smooth="yes"/>
      <point x="390" y="840"/>
      <point x="324" y="791"/>
    </contour>
    <contour>
      <point x="431" y="797" type="qcurve" smooth="yes"/>
      <point x="445" y="797"/>
      <point x="463" y="781"/>
      <point x="463" y="769" type="qcurve" smooth="yes"/>
      <point x="463" y="750"/>
      <point x="433" y="727"/>
      <point x="416" y="727" type="qcurve" smooth="yes"/>
      <point x="402" y="727"/>
      <point x="385" y="743"/>
      <point x="385" y="756" type="qcurve" smooth="yes"/>
      <point x="385" y="775"/>
      <point x="412" y="797"/>
    </contour>
  </outline>
</glyph>
<glyph name="uni0237" format="2">
  <advance width="257"/>
  <unicode hex="0237"/>
  <outline>
    <contour>
      <point x="-86" y="-198" type="qcurve" smooth="yes"/>
      <point x="-48" y="-198"/>
      <point x="24" y="-169"/>
      <point x="83" y="-117"/>
      <point x="126" y="-45"/>
      <point x="135" y="-2" type="qcurve" smooth="yes"/>
      <point x="247" y="524" type="line"/>
      <point x="105" y="524" type="line"/>
      <point x="-9" y="-13" type="line" smooth="yes"/>
      <point x="-12" y="-26"/>
      <point x="-25" y="-50"/>
      <point x="-44" y="-66"/>
      <point x="-66" y="-76"/>
      <point x="-77" y="-76" type="qcurve" smooth="yes"/>
      <point x="-92" y="-76"/>
      <point x="-118" y="-65"/>
      <point x="-126" y="-54" type="qcurve"/>
      <point x="-206" y="-150" type="line"/>
      <point x="-184" y="-174"/>
      <point x="-122" y="-198"/>
    </contour>
  </outline>
</glyph>
<glyph name="uni0259" format="2">
  <advance width="579"/>
  <unicode hex="0259"/>
  <outline>
    <contour>
      <point x="220" y="-10" type="qcurve" smooth="yes"/>
      <point x="293" y="-10"/>
      <point x="414" y="45"/>
      <point x="501" y="136"/>
      <point x="549" y="253"/>
      <point x="549" y="316" type="qcurve" smooth="yes"/>
      <point x="549" y="361"/>
      <point x="522" y="440"/>
      <point x="468" y="499"/>
      <point x="388" y="534"/>
      <point x="335" y="534" type="qcurve" smooth="yes"/>
      <point x="293" y="534"/>
      <point x="214" y="513"/>
      <point x="146" y="477"/>
      <point x="90" y="426"/>
      <point x="70" y="396" type="qcurve"/>
      <point x="182" y="362" type="line"/>
      <point x="191" y="377"/>
      <point x="220" y="403"/>
      <point x="253" y="421"/>
      <point x="290" y="431"/>
      <point x="308" y="431" type="qcurve" smooth="yes"/>
      <point x="328" y="431"/>
      <point x="362" y="417"/>
      <point x="388" y="391"/>
      <point x="403" y="354"/>
      <point x="403" y="330" type="qcurve" smooth="yes"/>
      <point x="403" y="324"/>
      <point x="402" y="312"/>
      <point x="401" y="306" type="qcurve"/>
      <point x="26" y="306" type="line"/>
      <point x="16" y="281"/>
      <point x="6" y="223"/>
      <point x="6" y="197" type="qcurve" smooth="yes"/>
      <point x="6" y="154"/>
      <point x="33" y="78"/>
      <point x="87" y="22"/>
      <point x="167" y="-10"/>
    </contour>
    <contour>
      <point x="244" y="92" type="qcurve" smooth="yes"/>
      <point x="222" y="92"/>
      <point x="188" y="107"/>
      <point x="163" y="134"/>
      <point x="150" y="172"/>
      <point x="150" y="196" type="qcurve" smooth="yes"/>
      <point x="150" y="202"/>
      <point x="150" y="213"/>
      <point x="152" y="219" type="qcurve"/>
      <point x="386" y="219" type="line"/>
      <point x="378" y="191"/>
      <point x="349" y="144"/>
      <point x="312" y="110"/>
      <point x="267" y="92"/>
    </contour>
  </outline>
</glyph>
<glyph name="uni02BC" format="2">
  <advance width="238"/>
  <unicode hex="02BC"/>
  <outline>
    <contour>
      <point x="325" y="730" type="line"/>
      <point x="187" y="730" type="line"/>
      <point x="101" y="570" type="line"/>
      <point x="179" y="570" type="line"/>
    </contour>
  </outline>
</glyph>
<glyph name="uni02BE" format="2">
  <advance width="135"/>
  <unicode hex="02BE"/>
  <outline>
    <contour>
      <point x="90" y="563" type="line"/>
      <point x="111" y="563"/>
      <point x="149" y="579"/>
      <point x="178" y="609"/>
      <point x="194" y="650"/>
      <point x="194" y="674" type="qcurve" smooth="yes"/>
      <point x="194" y="707"/>
      <point x="165" y="745"/>
      <point x="138" y="745" type="qcurve"/>
      <point x="125" y="696" type="line"/>
      <point x="132" y="696"/>
      <point x="140" y="679"/>
      <point x="140" y="665" type="qcurve" smooth="yes"/>
      <point x="140" y="643"/>
      <point x="115" y="611"/>
      <point x="103" y="611" type="qcurve"/>
    </contour>
  </outline>
</glyph>
<glyph name="ringhalfleftmod" format="2">
  <advance width="134"/>
  <unicode hex="02BF"/>
  <outline>
    <contour>
      <point x="176" y="611" type="line"/>
      <point x="169" y="611"/>
      <point x="162" y="630"/>
      <point x="162" y="644" type="qcurve" smooth="yes"/>
      <point x="162" y="667"/>
      <point x="185" y="696"/>
      <point x="198" y="696" type="qcurve"/>
      <point x="211" y="745" type="line"/>
      <point x="190" y="745"/>
      <point x="151" y="728"/>
      <point x="123" y="699"/>
      <point x="107" y="658"/>
      <point x="107" y="633" type="qcurve" smooth="yes"/>
      <point x="107" y="602"/>
      <point x="136" y="563"/>
      <point x="163" y="563" type="qcurve"/>
    </contour>
  </outline>
</glyph>
<glyph name="verticallinemod" format="2">
  <advance width="215"/>
  <unicode hex="02C8"/>
  <outline>
    <contour>
      <point x="107" y="775" type="line"/>
      <point x="107" y="382" type="line"/>
      <point x="227" y="382" type="line"/>
      <point x="227" y="775" type="line"/>
    </contour>
  </outline>
</glyph>
<glyph name="macronmod" format="2">
  <advance width="397"/>
  <unicode hex="02C9"/>
  <outline>
    <contour>
      <point x="413" y="630" type="line"/>
      <point x="433" y="716" type="line"/>
      <point x="159" y="716" type="line"/>
      <point x="138" y="630" type="line"/>
    </contour>
  </outline>
</glyph>
<glyph name="uni02CB" format="2">
  <advance width="233"/>
  <unicode hex="02CB"/>
  <outline>
    <contour>
      <point x="213" y="498" type="line"/>
      <point x="271" y="724" type="line"/>
      <point x="158" y="724" type="line"/>
      <point x="128" y="498" type="line"/>
    </contour>
  </outline>
</glyph>
<glyph name="verticallinelowmod" format="2">
  <advance width="215"/>
  <unicode hex="02CC"/>
  <outline>
    <contour>
      <point x="-1" y="263" type="line"/>
      <point x="-1" y="-130" type="line"/>
      <point x="118" y="-130" type="line"/>
      <point x="118" y="263" type="line"/>
    </contour>
  </outline>
</glyph>
<glyph name="hungarumlaut" format="2">
  <advance width="399"/>
  <unicode hex="02DD"/>
  <anchor x="175" y="525" name="_top"/>
  <outline>
    <contour>
      <point x="491" y="730" type="line"/>
      <point x="322" y="730" type="line"/>
      <point x="225" y="556" type="line"/>
      <point x="315" y="556" type="line"/>
    </contour>
    <contour>
      <point x="300" y="730" type="line"/>
      <point x="131" y="730" type="line"/>
      <point x="34" y="556" type="line"/>
      <point x="124" y="556" type="line"/>
    </contour>
  </outline>
</glyph>
<glyph name="gravecomb" format="2">
  <advance width="272"/>
  <unicode hex="0300"/>
  <outline>
    <contour>
      <point x="76" y="760" type="line"/>
      <point x="192" y="600" type="line"/>
      <point x="272" y="600" type="line"/>
      <point x="225" y="760" type="line"/>
    </contour>
  </outline>
</glyph>
<glyph name="acutecomb" format="2">
  <advance width="284"/>
  <unicode hex="0301"/>
  <anchor x="117" y="526" name="_top"/>
  <anchor x="233" y="730" name="top"/>
  <outline>
    <contour>
      <point x="341" y="730" type="line"/>
      <point x="162" y="730" type="line"/>
      <point x="65" y="556" type="line"/>
      <point x="165" y="556" type="line"/>
    </contour>
  </outline>
</glyph>
<glyph name="circumflexcomb" format="2">
  <advance width="388"/>
  <unicode hex="0302"/>
  <outline>
    <contour>
      <point x="65" y="600" type="line"/>
      <point x="146" y="600" type="line"/>
      <point x="250" y="683" type="line"/>
      <point x="319" y="600" type="line"/>
      <point x="399" y="600" type="line"/>
      <point x="340" y="755" type="line"/>
      <point x="190" y="755" type="line"/>
    </contour>
  </outline>
</glyph>
<glyph name="uni0302" format="2">
  <advance width="373"/>
  <unicode hex="0302"/>
  <outline>
    <contour>
      <point x="67" y="600" type="line"/>
      <point x="138" y="600" type="line"/>
      <point x="245" y="685" type="line"/>
      <point x="316" y="600" type="line"/>
      <point x="386" y="600" type="line"/>
      <point x="324" y="750" type="line"/>
      <point x="193" y="750" type="line"/>
    </contour>
  </outline>
</glyph>
<glyph name="tildecomb" format="2">
  <advance width="469"/>
  <unicode hex="0303"/>
  <outline>
    <contour>
      <point x="369" y="614" type="qcurve" smooth="yes"/>
      <point x="403" y="614"/>
      <point x="457" y="650"/>
      <point x="496" y="696"/>
      <point x="517" y="738"/>
      <point x="519" y="746" type="qcurve"/>
      <point x="442" y="746" type="line"/>
      <point x="442" y="745"/>
      <point x="435" y="729"/>
      <point x="421" y="710"/>
      <point x="398" y="696"/>
      <point x="381" y="696" type="qcurve" smooth="yes"/>
      <point x="365" y="696"/>
      <point x="341" y="710"/>
      <point x="317" y="728"/>
      <point x="288" y="743"/>
      <point x="266" y="743" type="qcurve" smooth="yes"/>
      <point x="234" y="743"/>
      <point x="182" y="709"/>
      <point x="145" y="665"/>
      <point x="124" y="621"/>
      <point x="121" y="611" type="qcurve"/>
      <point x="199" y="611" type="line"/>
      <point x="199" y="613"/>
      <point x="204" y="628"/>
      <point x="216" y="645"/>
      <point x="237" y="659"/>
      <point x="253" y="659" type="qcurve" smooth="yes"/>
      <point x="269" y="659"/>
      <point x="293" y="645"/>
      <point x="318" y="628"/>
      <point x="348" y="614"/>
    </contour>
  </outline>
</glyph>
<glyph name="uni0304" format="2">
  <advance width="388"/>
  <unicode hex="0304"/>
  <outline>
    <contour>
      <point x="415" y="629" type="line"/>
      <point x="434" y="715" type="line"/>
      <point x="146" y="715" type="line"/>
      <point x="128" y="629" type="line"/>
    </contour>
  </outline>
</glyph>
<glyph name="brevecomb" format="2">
  <advance width="363"/>
  <unicode hex="0306"/>
  <outline>
    <contour>
      <point x="265" y="655" type="qcurve" smooth="yes"/>
      <point x="246" y="655"/>
      <point x="222" y="687"/>
      <point x="222" y="710" type="qcurve" smooth="yes"/>
      <point x="222" y="715"/>
      <point x="223" y="724"/>
      <point x="225" y="730" type="qcurve"/>
      <point x="149" y="730" type="line"/>
      <point x="147" y="721"/>
      <point x="145" y="705"/>
      <point x="145" y="696" type="qcurve" smooth="yes"/>
      <point x="145" y="649"/>
      <point x="202" y="592"/>
      <point x="252" y="592" type="qcurve" smooth="yes"/>
      <point x="281" y="592"/>
      <point x="333" y="613"/>
      <point x="376" y="650"/>
      <point x="406" y="700"/>
      <point x="413" y="730" type="qcurve"/>
      <point x="338" y="730" type="line"/>
      <point x="328" y="698"/>
      <point x="286" y="655"/>
    </contour>
  </outline>
</glyph>
<glyph name="dotaccentcomb" format="2">
  <advance width="270"/>
  <unicode hex="0307"/>
  <anchor x="167" y="526" name="_top"/>
  <anchor x="210" y="730" name="top"/>
  <outline>
    <contour>
      <point x="100" y="660" type="curve" smooth="yes"/>
      <point x="89" y="608"/>
      <point x="122" y="566"/>
      <point x="174" y="566" type="curve" smooth="yes"/>
      <point x="226" y="566"/>
      <point x="277" y="608"/>
      <point x="288" y="660" type="curve" smooth="yes"/>
      <point x="299" y="712"/>
      <point x="266" y="754"/>
      <point x="214" y="754" type="curve" smooth="yes"/>
      <point x="162" y="754"/>
      <point x="111" y="712"/>
    </contour>
  </outline>
</glyph>
<glyph name="dieresiscomb" format="2">
  <advance width="566"/>
  <unicode hex="0308"/>
  <anchor x="315" y="525" name="_top"/>
  <anchor x="357" y="720" name="top"/>
  <outline>
    <contour>
      <point x="197" y="557" type="curve" smooth="yes"/>
      <point x="249" y="557"/>
      <point x="300" y="599"/>
      <point x="311" y="651" type="curve" smooth="yes"/>
      <point x="322" y="703"/>
      <point x="289" y="745"/>
      <point x="237" y="745" type="curve" smooth="yes"/>
      <point x="185" y="745"/>
      <point x="134" y="703"/>
      <point x="123" y="651" type="curve" smooth="yes"/>
      <point x="112" y="599"/>
      <point x="145" y="557"/>
    </contour>
    <contour>
      <point x="448" y="557" type="curve" smooth="yes"/>
      <point x="500" y="557"/>
      <point x="551" y="599"/>
      <point x="562" y="651" type="curve" smooth="yes"/>
      <point x="573" y="703"/>
      <point x="540" y="745"/>
      <point x="488" y="745" type="curve" smooth="yes"/>
      <point x="436" y="745"/>
      <point x="385" y="703"/>
      <point x="374" y="651" type="curve" smooth="yes"/>
      <point x="363" y="599"/>
      <point x="396" y="557"/>
    </contour>
  </outline>
</glyph>
<glyph name="uni0308" format="2">
  <advance width="471"/>
  <unicode hex="0308"/>
  <outline>
    <contour>
      <point x="168" y="586" type="qcurve" smooth="yes"/>
      <point x="184" y="586"/>
      <point x="214" y="598"/>
      <point x="239" y="619"/>
      <point x="257" y="646"/>
      <point x="260" y="662" type="qcurve"/>
      <point x="267" y="693"/>
      <point x="232" y="738"/>
      <point x="201" y="738" type="qcurve" smooth="yes"/>
      <point x="185" y="738"/>
      <point x="155" y="726"/>
      <point x="130" y="705"/>
      <point x="112" y="678"/>
      <point x="109" y="662" type="qcurve"/>
      <point x="102" y="631"/>
      <point x="137" y="586"/>
    </contour>
    <contour>
      <point x="395" y="586" type="qcurve" smooth="yes"/>
      <point x="411" y="586"/>
      <point x="441" y="598"/>
      <point x="466" y="619"/>
      <point x="484" y="646"/>
      <point x="487" y="662" type="qcurve"/>
      <point x="494" y="693"/>
      <point x="459" y="738"/>
      <point x="428" y="738" type="qcurve" smooth="yes"/>
      <point x="412" y="738"/>
      <point x="382" y="726"/>
      <point x="357" y="705"/>
      <point x="339" y="678"/>
      <point x="336" y="662" type="qcurve"/>
      <point x="329" y="631"/>
      <point x="364" y="586"/>
    </contour>
  </outline>
</glyph>
<glyph name="hookabovecomb" format="2">
  <advance width="283"/>
  <unicode hex="0309"/>
  <outline>
    <contour>
      <point x="175" y="686" type="line"/>
      <point x="195" y="699"/>
      <point x="219" y="710"/>
      <point x="232" y="710" type="qcurve" smooth="yes"/>
      <point x="245" y="710"/>
      <point x="255" y="694"/>
      <point x="250" y="682" type="qcurve"/>
      <point x="245" y="669"/>
      <point x="220" y="646"/>
      <point x="198" y="632" type="qcurve"/>
      <point x="219" y="594" type="line"/>
      <point x="263" y="621"/>
      <point x="313" y="670"/>
      <point x="325" y="700" type="qcurve" smooth="yes"/>
      <point x="337" y="732"/>
      <point x="310" y="775"/>
      <point x="269" y="775" type="qcurve" smooth="yes"/>
      <point x="242" y="775"/>
      <point x="183" y="752"/>
      <point x="148" y="727" type="qcurve"/>
    </contour>
  </outline>
</glyph>
<glyph name="uni030A" format="2">
  <advance width="296"/>
  <unicode hex="030A"/>
  <outline>
    <contour>
      <point x="132" y="637" type="qcurve" smooth="yes"/>
      <point x="132" y="606"/>
      <point x="176" y="573"/>
      <point x="215" y="573" type="qcurve" smooth="yes"/>
      <point x="265" y="573"/>
      <point x="330" y="623"/>
      <point x="330" y="667" type="qcurve" smooth="yes"/>
      <point x="330" y="697"/>
      <point x="287" y="730"/>
      <point x="248" y="730" type="qcurve" smooth="yes"/>
      <point x="198" y="730"/>
      <point x="132" y="681"/>
    </contour>
    <contour>
      <point x="239" y="687" type="qcurve" smooth="yes"/>
      <point x="253" y="687"/>
      <point x="271" y="671"/>
      <point x="271" y="658" type="qcurve" smooth="yes"/>
      <point x="271" y="640"/>
      <point x="241" y="616"/>
      <point x="224" y="616" type="qcurve" smooth="yes"/>
      <point x="210" y="616"/>
      <point x="193" y="633"/>
      <point x="193" y="646" type="qcurve" smooth="yes"/>
      <point x="193" y="664"/>
      <point x="220" y="687"/>
    </contour>
  </outline>
</glyph>
<glyph name="uni030B" format="2">
  <advance width="370"/>
  <unicode hex="030B"/>
  <outline>
    <contour>
      <point x="501" y="760" type="line"/>
      <point x="363" y="760" type="line"/>
      <point x="261" y="600" type="line"/>
      <point x="339" y="600" type="line"/>
    </contour>
    <contour>
      <point x="307" y="760" type="line"/>
      <point x="170" y="760" type="line"/>
      <point x="67" y="600" type="line"/>
      <point x="145" y="600" type="line"/>
    </contour>
  </outline>
</glyph>
<glyph name="caroncomb" format="2">
  <advance width="388"/>
  <unicode hex="030C"/>
  <outline>
    <contour>
      <point x="98" y="755" type="line"/>
      <point x="157" y="600" type="line"/>
      <point x="307" y="600" type="line"/>
      <point x="432" y="755" type="line"/>
      <point x="352" y="755" type="line"/>
      <point x="248" y="673" type="line"/>
      <point x="179" y="755" type="line"/>
    </contour>
  </outline>
</glyph>
<glyph name="uni030C" format="2">
  <advance width="373"/>
  <unicode hex="030C"/>
  <outline>
    <contour>
      <point x="99" y="750" type="line"/>
      <point x="161" y="600" type="line"/>
      <point x="292" y="600" type="line"/>
      <point x="418" y="750" type="line"/>
      <point x="348" y="750" type="line"/>
      <point x="241" y="666" type="line"/>
      <point x="170" y="750" type="line"/>
    </contour>
  </outline>
</glyph>
<glyph name="dblgravecomb" format="2">
  <advance width="399"/>
  <unicode hex="030F"/>
  <anchor x="256" y="525" name="_top"/>
  <outline>
    <contour>
      <point x="166" y="556" type="line"/>
      <point x="256" y="556" type="line"/>
      <point x="233" y="730" type="line"/>
      <point x="64" y="730" type="line"/>
    </contour>
    <contour>
      <point x="354" y="556" type="line"/>
      <point x="444" y="556" type="line"/>
      <point x="421" y="730" type="line"/>
      <point x="252" y="730" type="line"/>
    </contour>
  </outline>
</glyph>
<glyph name="uni030F" format="2">
  <advance width="370"/>
  <unicode hex="030F"/>
  <outline>
    <contour>
      <point x="227" y="760" type="line"/>
      <point x="322" y="600" type="line"/>
      <point x="392" y="600" type="line"/>
      <point x="357" y="760" type="line"/>
    </contour>
    <contour>
      <point x="35" y="760" type="line"/>
      <point x="129" y="600" type="line"/>
      <point x="200" y="600" type="line"/>
      <point x="165" y="760" type="line"/>
    </contour>
  </outline>
</glyph>
<glyph name="breveinvertedcomb" format="2">
  <advance width="363"/>
  <unicode hex="0311"/>
  <outline>
    <contour>
      <point x="120" y="592" type="qcurve"/>
      <point x="195" y="592" type="line"/>
      <point x="203" y="631"/>
      <point x="240" y="667"/>
      <point x="268" y="667" type="qcurve" smooth="yes"/>
      <point x="290" y="667"/>
      <point x="311" y="645"/>
      <point x="311" y="621" type="qcurve" smooth="yes"/>
      <point x="311" y="615"/>
      <point x="310" y="601"/>
      <point x="308" y="592" type="qcurve"/>
      <point x="383" y="592" type="line"/>
      <point x="385" y="601"/>
      <point x="386" y="616"/>
      <point x="386" y="623" type="qcurve" smooth="yes"/>
      <point x="386" y="669"/>
      <point x="331" y="730"/>
      <point x="280" y="730" type="qcurve" smooth="yes"/>
      <point x="252" y="730"/>
      <point x="199" y="709"/>
      <point x="157" y="673"/>
      <point x="127" y="623"/>
    </contour>
  </outline>
</glyph>
<glyph name="commaturnedabovecomb" format="2">
  <advance width="241"/>
  <unicode hex="0312"/>
  <anchor x="131" y="526" name="_top"/>
  <anchor x="175" y="730" name="top"/>
  <outline>
    <contour>
      <point x="53" y="575" type="line"/>
      <point x="222" y="575" type="line"/>
      <point x="319" y="749" type="line"/>
      <point x="229" y="749" type="line"/>
    </contour>
  </outline>
</glyph>
<glyph name="uni0312" format="2">
  <advance width="206"/>
  <unicode hex="0312"/>
  <outline>
    <contour>
      <point x="62" y="581" type="line"/>
      <point x="192" y="581" type="line"/>
      <point x="290" y="739" type="line"/>
      <point x="220" y="739" type="line"/>
    </contour>
  </outline>
</glyph>
<glyph name="uni031B" format="2">
  <advance width="307"/>
  <unicode hex="031B"/>
  <outline>
    <contour>
      <point x="96" y="481" type="line"/>
      <point x="122" y="481"/>
      <point x="173" y="489"/>
      <point x="220" y="502"/>
      <point x="260" y="520"/>
      <point x="273" y="532" type="qcurve"/>
      <point x="291" y="547"/>
      <point x="315" y="581"/>
      <point x="330" y="616"/>
      <point x="339" y="651"/>
      <point x="343" y="668" type="qcurve"/>
      <point x="242" y="668" type="line"/>
      <point x="237" y="648"/>
      <point x="227" y="615"/>
      <point x="212" y="601" type="qcurve" smooth="yes"/>
      <point x="198" y="588"/>
      <point x="152" y="578"/>
      <point x="117" y="578" type="qcurve"/>
    </contour>
  </outline>
</glyph>
<glyph name="dotbelowcomb" format="2">
  <advance width="227"/>
  <unicode hex="0323"/>
  <outline>
    <contour>
      <point x="-60" y="-138" type="qcurve"/>
      <point x="-66" y="-169"/>
      <point x="-31" y="-214"/>
      <point x="0" y="-214" type="qcurve" smooth="yes"/>
      <point x="16" y="-214"/>
      <point x="46" y="-202"/>
      <point x="71" y="-182"/>
      <point x="89" y="-154"/>
      <point x="92" y="-138" type="qcurve" smooth="yes"/>
      <point x="98" y="-107"/>
      <point x="63" y="-62"/>
      <point x="32" y="-62" type="qcurve" smooth="yes"/>
      <point x="17" y="-62"/>
      <point x="-14" y="-74"/>
      <point x="-39" y="-95"/>
      <point x="-56" y="-122"/>
    </contour>
  </outline>
</glyph>
<glyph name="dieresisbelowcomb" format="2">
  <advance width="566"/>
  <unicode hex="0324"/>
  <anchor x="288" y="0" name="_bottom"/>
  <anchor x="243" y="-214" name="bottom"/>
  <outline>
    <contour>
      <point x="111" y="-238" type="curve" smooth="yes"/>
      <point x="163" y="-238"/>
      <point x="214" y="-196"/>
      <point x="225" y="-144" type="curve" smooth="yes"/>
      <point x="236" y="-92"/>
      <point x="203" y="-50"/>
      <point x="151" y="-50" type="curve" smooth="yes"/>
      <point x="99" y="-50"/>
      <point x="48" y="-92"/>
      <point x="37" y="-144" type="curve" smooth="yes"/>
      <point x="26" y="-196"/>
      <point x="59" y="-238"/>
    </contour>
    <contour>
      <point x="362" y="-238" type="curve" smooth="yes"/>
      <point x="414" y="-238"/>
      <point x="465" y="-196"/>
      <point x="476" y="-144" type="curve" smooth="yes"/>
      <point x="487" y="-92"/>
      <point x="454" y="-50"/>
      <point x="402" y="-50" type="curve" smooth="yes"/>
      <point x="350" y="-50"/>
      <point x="299" y="-92"/>
      <point x="288" y="-144" type="curve" smooth="yes"/>
      <point x="277" y="-196"/>
      <point x="310" y="-238"/>
    </contour>
  </outline>
</glyph>
<glyph name="uni0324" format="2">
  <advance width="471"/>
  <unicode hex="0324"/>
  <outline>
    <contour>
      <point x="82" y="-216" type="qcurve" smooth="yes"/>
      <point x="98" y="-216"/>
      <point x="128" y="-204"/>
      <point x="153" y="-184"/>
      <point x="171" y="-156"/>
      <point x="174" y="-140" type="qcurve"/>
      <point x="181" y="-109"/>
      <point x="146" y="-64"/>
      <point x="115" y="-64" type="qcurve" smooth="yes"/>
      <point x="99" y="-64"/>
      <point x="69" y="-77"/>
      <point x="44" y="-97"/>
      <point x="26" y="-125"/>
      <point x="23" y="-140" type="qcurve" smooth="yes"/>
      <point x="16" y="-171"/>
      <point x="51" y="-216"/>
    </contour>
    <contour>
      <point x="309" y="-216" type="qcurve" smooth="yes"/>
      <point x="325" y="-216"/>
      <point x="355" y="-204"/>
      <point x="380" y="-184"/>
      <point x="398" y="-156"/>
      <point x="401" y="-140" type="qcurve"/>
      <point x="408" y="-109"/>
      <point x="373" y="-64"/>
      <point x="342" y="-64" type="qcurve" smooth="yes"/>
      <point x="326" y="-64"/>
      <point x="296" y="-77"/>
      <point x="271" y="-97"/>
      <point x="253" y="-125"/>
      <point x="250" y="-140" type="qcurve" smooth="yes"/>
      <point x="243" y="-171"/>
      <point x="278" y="-216"/>
    </contour>
  </outline>
</glyph>
<glyph name="commaaccentcomb" format="2">
  <advance width="224"/>
  <unicode hex="0326"/>
  <outline>
    <contour>
      <point x="-10" y="-279" type="line"/>
      <point x="146" y="-47" type="line"/>
      <point x="7" y="-47" type="line"/>
      <point x="-83" y="-279" type="line"/>
    </contour>
  </outline>
</glyph>
<glyph name="uni0326" format="2">
  <advance width="206"/>
  <unicode hex="0326"/>
  <outline>
    <contour>
      <point x="11" y="-267" type="line"/>
      <point x="152" y="-47" type="line"/>
      <point x="31" y="-47" type="line"/>
      <point x="-53" y="-267" type="line"/>
    </contour>
  </outline>
</glyph>
<glyph name="cedillacomb" format="2">
  <advance width="336"/>
  <unicode hex="0327"/>
  <outline>
    <contour>
      <point x="-139" y="-205" type="line"/>
      <point x="-68" y="-153"/>
      <point x="-14" y="-101"/>
      <point x="28" y="-44" type="curve"/>
      <point x="-120" y="-28" type="line"/>
      <point x="-140" y="-83"/>
      <point x="-177" y="-150"/>
      <point x="-218" y="-191" type="curve"/>
    </contour>
  </outline>
</glyph>
<glyph name="uni0327" format="2">
  <advance width="318"/>
  <unicode hex="0327"/>
  <outline>
    <contour>
      <point x="-43" y="-183" type="qcurve"/>
      <point x="-20" y="-194"/>
      <point x="30" y="-203"/>
      <point x="55" y="-203" type="qcurve" smooth="yes"/>
      <point x="79" y="-203"/>
      <point x="132" y="-193"/>
      <point x="176" y="-168"/>
      <point x="204" y="-129"/>
      <point x="204" y="-99" type="qcurve" smooth="yes"/>
      <point x="204" y="-68"/>
      <point x="163" y="-42"/>
      <point x="134" y="-42" type="qcurve" smooth="yes"/>
      <point x="127" y="-42"/>
      <point x="112" y="-43"/>
      <point x="105" y="-45" type="qcurve"/>
      <point x="150" y="8" type="line"/>
      <point x="99" y="24" type="line"/>
      <point x="15" y="-97" type="line"/>
      <point x="34" y="-92"/>
      <point x="73" y="-86"/>
      <point x="93" y="-86" type="qcurve" smooth="yes"/>
      <point x="100" y="-86"/>
      <point x="116" y="-87"/>
      <point x="129" y="-93"/>
      <point x="137" y="-103"/>
      <point x="137" y="-112" type="qcurve" smooth="yes"/>
      <point x="137" y="-125"/>
      <point x="125" y="-140"/>
      <point x="107" y="-148"/>
      <point x="86" y="-151"/>
      <point x="76" y="-151" type="qcurve" smooth="yes"/>
      <point x="68" y="-151"/>
      <point x="45" y="-149"/>
      <point x="23" y="-144"/>
      <point x="2" y="-137"/>
      <point x="-5" y="-132" type="qcurve"/>
      <point x="-15" y="-144"/>
      <point x="-33" y="-170"/>
    </contour>
  </outline>
</glyph>
<glyph name="ogonekcomb" format="2">
  <advance width="244"/>
  <unicode hex="0328"/>
  <outline>
    <contour>
      <point x="-30" y="-124" type="qcurve" smooth="yes"/>
      <point x="-30" y="-151"/>
      <point x="15" y="-195"/>
      <point x="61" y="-202" type="qcurve"/>
      <point x="107" y="-123" type="line"/>
      <point x="84" y="-122"/>
      <point x="62" y="-107"/>
      <point x="62" y="-92" type="qcurve" smooth="yes"/>
      <point x="62" y="-73"/>
      <point x="101" y="-28"/>
      <point x="139" y="1" type="qcurve"/>
      <point x="134" y="22" type="line"/>
      <point x="89" y="22" type="line"/>
      <point x="29" y="-13"/>
      <point x="-30" y="-88"/>
    </contour>
  </outline>
</glyph>
<glyph name="uni032E" format="2">
  <advance width="308"/>
  <unicode hex="032E"/>
  <outline>
    <contour>
      <point x="55" y="-190" type="qcurve" smooth="yes"/>
      <point x="81" y="-190"/>
      <point x="131" y="-170"/>
      <point x="172" y="-133"/>
      <point x="202" y="-83"/>
      <point x="209" y="-53" type="qcurve"/>
      <point x="137" y="-53" type="line"/>
      <point x="127" y="-85"/>
      <point x="89" y="-128"/>
      <point x="70" y="-128" type="qcurve" smooth="yes"/>
      <point x="49" y="-128"/>
      <point x="30" y="-83"/>
      <point x="38" y="-53" type="qcurve"/>
      <point x="-35" y="-53" type="line"/>
      <point x="-49" y="-113"/>
      <point x="1" y="-190"/>
    </contour>
  </outline>
</glyph>
<glyph name="macronbelowcomb" format="2">
  <advance width="376"/>
  <unicode hex="0331"/>
  <outline>
    <contour>
      <point x="233" y="-166" type="line"/>
      <point x="253" y="-79" type="line"/>
      <point x="-21" y="-79" type="line"/>
      <point x="-41" y="-166" type="line"/>
    </contour>
  </outline>
</glyph>
<glyph name="strokeshortcomb" format="2">
  <advance width="373"/>
  <unicode hex="0335"/>
  <outline>
    <contour>
      <point x="319" y="249" type="line"/>
      <point x="338" y="332" type="line"/>
      <point x="67" y="332" type="line"/>
      <point x="47" y="249" type="line"/>
    </contour>
  </outline>
</glyph>
<glyph name="tonos" format="2">
  <advance width="236"/>
  <unicode hex="0384"/>
  <anchor x="148" y="528" name="_top"/>
  <outline>
    <contour>
      <point x="198" y="842" type="line"/>
      <point x="114" y="582" type="line"/>
      <point x="204" y="568" type="line"/>
      <point x="322" y="814" type="line"/>
    </contour>
  </outline>
</glyph>
<glyph name="dieresistonos" format="2">
  <advance width="536"/>
  <unicode hex="0385"/>
  <outline>
    <contour>
      <point x="124" y="666" type="qcurve"/>
      <point x="114" y="629"/>
      <point x="152" y="575"/>
      <point x="188" y="575" type="qcurve" smooth="yes"/>
      <point x="221" y="575"/>
      <point x="268" y="613"/>
      <point x="275" y="642" type="qcurve" smooth="yes"/>
      <point x="284" y="681"/>
      <point x="247" y="733"/>
      <point x="210" y="733" type="qcurve" smooth="yes"/>
      <point x="179" y="733"/>
      <point x="130" y="697"/>
    </contour>
    <contour>
      <point x="440" y="666" type="qcurve" smooth="yes"/>
      <point x="432" y="629"/>
      <point x="471" y="575"/>
      <point x="506" y="575" type="qcurve" smooth="yes"/>
      <point x="538" y="575"/>
      <point x="586" y="613"/>
      <point x="592" y="642" type="qcurve" smooth="yes"/>
      <point x="601" y="681"/>
      <point x="563" y="733"/>
      <point x="527" y="733" type="qcurve" smooth="yes"/>
      <point x="497" y="733"/>
      <point x="447" y="697"/>
    </contour>
    <contour>
      <point x="371" y="831" type="line"/>
      <point x="291" y="587" type="line"/>
      <point x="365" y="576" type="line"/>
      <point x="470" y="809" type="line"/>
    </contour>
  </outline>
</glyph>
<glyph name="Gamma" format="2">
  <advance width="495"/>
  <unicode hex="0393"/>
  <outline>
    <contour>
      <point x="144" y="714" type="line"/>
      <point x="620" y="714" type="line"/>
      <point x="586" y="588" type="line"/>
      <point x="254" y="588" type="line"/>
      <point x="100" y="10" type="line"/>
      <point x="-44" y="10" type="line"/>
    </contour>
  </outline>
</glyph>
